<?xml version="1.0" encoding="utf-8"?>
<!-- Uploaded to: SVG Repo, www.svgrepo.com, Generator: SVG Repo Mixer Tools -->
<svg fill="#000000" version="1.1" id="Layer_1" xmlns="http://www.w3.org/2000/svg" xmlns:xlink="http://www.w3.org/1999/xlink" 
	 width="800px" height="800px" viewBox="0 0 256 251" enable-background="new 0 0 256 251" xml:space="preserve">
<path d="M64.538,202.46c-12.775,0-23.113,10.338-23.113,23.113c0,12.775,10.338,23.113,23.113,23.113
	c12.775,0,23.113-10.338,23.113-23.113C87.651,212.797,77.314,202.46,64.538,202.46z M64.538,234.426c-4.853,0-8.853-4-8.853-8.853
	c0-4.853,4-8.853,8.853-8.853c4.853,0,8.853,4,8.853,8.853C73.391,230.425,69.391,234.426,64.538,234.426z M210.043,201.475
	c-12.775,0-23.113,10.338-23.113,23.113c0,12.775,10.338,23.113,23.113,23.113c12.775,0,23.113-10.338,23.113-23.113
	C233.156,211.813,222.818,201.475,210.043,201.475z M210.043,233.441c-4.853,0-8.853-4-8.853-8.853c0-4.853,4-8.853,8.853-8.853
	c4.853,0,8.853,4,8.853,8.853C218.896,229.441,214.896,233.441,210.043,233.441z M2,212.44c0,4.481,3.519,8.56,8,8.56h22
	c0.924,0,1.832-1.16,2-2c2.521-14.456,15.326-24.441,30.538-24.441s27.82,10.026,30.341,24.482C95.048,219.966,96.076,221,97,221h33
	V110H2V212.44z M252,204h-5v-22c0-7.396-5.52-13-13-13h-24c-0.504,0-1.099-0.268-1.435-0.604l-37.401-36.405
	c-1.681-1.681-3.726-2.906-6.163-2.991h-27v92h40c0.925,0,1.832-1.16,2-2c2.521-14.456,14.83-25.425,30.043-25.425
	s27.82,11.01,30.341,25.466c0.168,0.925,1.691,1.959,2.616,1.959h2c4.791,0,9-4.312,9-9.019v-6.219C254,204.837,253.009,204,252,204
	z M191,169h-41c-1.009,0-2-0.991-2-2v-26c0-1.009,0.991-2,2-2h13c0.504,0,1.523,0.555,1.944,0.891L192,166
	C193.009,167.261,192.597,169,191,169z M123.685,2.022c-25.689,0-46.57,20.844-46.57,46.495c0,25.689,20.882,46.57,46.57,46.57
	s46.57-20.882,46.57-46.57C170.18,22.866,149.298,2.022,123.685,2.022z M123.685,84.499c-19.853,0-35.982-16.129-35.982-35.982
	s16.129-35.982,35.982-35.982s35.982,16.129,35.982,35.982C159.45,68.37,143.321,84.499,123.685,84.499z M146.895,39.428
	c-0.864-1.427-2.667-2.404-4.732-1.352l-16.487,7.361V25.945c0-1.052-0.376-1.991-1.052-2.704l-0.038-0.038
	c-0.676-0.601-1.465-0.864-2.404-0.864c-1.803,0-3.681,1.352-3.681,3.605v25.501c0,1.39,0.789,2.704,2.028,3.38
	c0.638,0.3,1.202,0.451,1.728,0.451c0.563,0,1.202-0.188,1.803-0.451l21.295-10.178c0.939-0.488,1.615-1.277,1.915-2.216
	C147.496,41.456,147.383,40.367,146.895,39.428L146.895,39.428z"/>
</svg>