<svg width="20" height="20" viewBox="0 0 20 20" fill="none" xmlns="http://www.w3.org/2000/svg">
<path d="M7.316 2.58V2.058C7.316 1.32333 7.70267 0.956 8.476 0.956H11.376C12.1493 0.956 12.536 1.32333 12.536 2.058V2.58C12.536 4.12666 12.188 5.73133 11.492 7.394C11.376 7.70333 11.26 8.01266 11.144 8.322C11.028 8.59267 10.8927 8.844 10.738 9.076C10.622 9.26933 10.506 9.46267 10.39 9.656C10.3127 9.81067 10.2547 9.946 10.216 10.062C11.26 8.786 12.0333 7.916 12.536 7.452C13.6187 6.44666 15.1073 5.63466 17.002 5.016C17.6593 4.82267 18.1427 5.074 18.452 5.77L19.322 8.554C19.554 9.28867 19.3027 9.772 18.568 10.004C17.2147 10.5067 15.842 10.758 14.45 10.758C12.826 10.7193 11.5307 10.584 10.564 10.352C13.58 11.396 15.7647 13.0007 17.118 15.166C17.5433 15.7847 17.466 16.3067 16.886 16.732L14.508 18.414C13.8893 18.8007 13.348 18.7233 12.884 18.182C11.028 15.9393 10.1 13.2713 10.1 10.178C9.984 12.6527 9.67467 14.412 9.172 15.456C8.824 16.3067 8.28267 17.312 7.548 18.472C7.16133 19.0133 6.62 19.0713 5.924 18.646L3.604 16.906C2.86933 16.5193 2.77267 15.9973 3.314 15.34C4.20333 14.1027 4.95733 13.2713 5.576 12.846C6.19467 12.382 6.69733 12.0147 7.084 11.744C7.50933 11.4733 7.896 11.2607 8.244 11.106C8.592 10.9127 8.882 10.758 9.114 10.642C9.38467 10.4873 9.71333 10.3327 10.1 10.178C6.77467 11.106 4.068 11.222 1.98 10.526L1.458 10.352C0.800667 10.12 0.588 9.63667 0.82 8.902L1.69 6.118C1.922 5.38333 2.40533 5.15133 3.14 5.422C5.46 6.07933 7.664 7.54867 9.752 9.83L9.984 10.062C9.90667 9.946 9.81 9.81067 9.694 9.656C9.61667 9.46267 9.50067 9.26933 9.346 9.076C9.19133 8.844 9.03667 8.59267 8.882 8.322C8.766 8.01266 8.63067 7.70333 8.476 7.394C8.32133 7.046 8.16667 6.67867 8.012 6.292C7.896 5.90533 7.78 5.51866 7.664 5.132C7.432 4.35867 7.316 3.508 7.316 2.58Z" fill="white"/>
</svg>
