<svg width="152" height="51" viewBox="0 0 152 51" fill="none" xmlns="http://www.w3.org/2000/svg">
<path d="M65.0295 27.0598C65.0295 34.2533 59.4021 39.5541 52.4957 39.5541C45.5894 39.5541 39.9619 34.2533 39.9619 27.0598C39.9619 19.8155 45.5894 14.5654 52.4957 14.5654C59.4021 14.5654 65.0295 19.8155 65.0295 27.0598ZM59.5427 27.0598C59.5427 22.5644 56.2812 19.4889 52.4957 19.4889C48.7103 19.4889 45.4487 22.5647 45.4487 27.0598C45.4487 31.5101 48.7103 34.6307 52.4957 34.6307C56.2812 34.631 59.5427 31.5044 59.5427 27.0598Z" fill="#FF4131"/>
<path d="M92.0686 27.0598C92.0686 34.2533 86.4412 39.5541 79.5348 39.5541C72.6284 39.5541 67.001 34.2533 67.001 27.0598C67.001 19.8212 72.6284 14.5654 79.5348 14.5654C86.4409 14.5654 92.0686 19.8155 92.0686 27.0598ZM86.5818 27.0598C86.5818 22.5644 83.3202 19.4889 79.5348 19.4889C75.7493 19.4889 72.4878 22.5647 72.4878 27.0598C72.4878 31.5101 75.7493 34.6307 79.5348 34.6307C83.3202 34.631 86.5818 31.5044 86.5818 27.0598Z" fill="#FFBC00"/>
<path d="M117.981 15.3204V37.7516C117.981 46.9788 112.54 50.7473 106.107 50.7473C100.051 50.7473 96.4065 46.6969 95.032 43.3847L99.8089 41.3961C100.659 43.4298 102.744 45.8295 106.101 45.8295C110.219 45.8295 112.771 43.2889 112.771 38.5063V36.7094H112.579C111.351 38.2248 108.985 39.5485 106 39.5485C99.7526 39.5485 94.0293 34.1068 94.0293 27.1049C94.0293 20.0523 99.7526 14.5654 106 14.5654C108.98 14.5654 111.346 15.8892 112.579 17.3594H112.771V15.3258H117.981V15.3204ZM113.159 27.1049C113.159 22.7053 110.225 19.4889 106.49 19.4889C102.704 19.4889 99.5327 22.7053 99.5327 27.1049C99.5327 31.4593 102.704 34.6307 106.49 34.6307C110.225 34.631 113.159 31.4593 113.159 27.1049Z" fill="#0085F7"/>
<path d="M126.571 2.17188V38.7875H121.22V2.17188H126.571Z" fill="#00A94B"/>
<path d="M147.426 31.1719L151.684 34.011C150.31 36.0447 146.998 39.5483 141.275 39.5483C134.177 39.5483 128.876 34.0615 128.876 27.0539C128.876 19.6236 134.222 14.5596 140.66 14.5596C147.144 14.5596 150.316 19.7195 151.352 22.5078L151.921 23.9274L135.219 30.845C136.498 33.3518 138.486 34.6305 141.275 34.6305C144.069 34.6308 146.006 33.256 147.426 31.1719ZM134.318 26.6766L145.483 22.0406C144.869 20.4801 143.021 19.3931 140.847 19.3931C138.058 19.3928 134.177 21.8546 134.318 26.6766Z" fill="#FF4131"/>
<path d="M19.7049 23.8092V18.5084H37.5678C37.7425 19.4322 37.8324 20.5252 37.8324 21.708C37.8324 25.6851 36.7451 30.6026 33.2415 34.1065C29.8334 37.6555 25.4789 39.5482 19.7106 39.5482C9.01876 39.5482 0.0283203 30.8393 0.0283203 20.1478C0.0283203 9.45628 9.01876 0.74707 19.7106 0.74707C25.6255 0.74707 29.839 3.06788 33.0047 6.09298L29.2644 9.83334C26.9943 7.70387 23.9185 6.04789 19.7049 6.04789C11.8973 6.04789 5.79104 12.3402 5.79104 20.1478C5.79104 27.9554 11.8973 34.2477 19.7049 34.2477C24.769 34.2477 27.6532 32.2141 29.5011 30.3664C30.9996 28.868 31.9854 26.7275 32.374 23.8039L19.7049 23.8092Z" fill="#0085F7"/>
</svg>
