<svg width="40" height="41" viewBox="0 0 40 41" fill="none" xmlns="http://www.w3.org/2000/svg">
<path d="M4.97198 10.4594C3.42138 10.4594 2.16016 11.7242 2.16016 13.2785V21.8659C2.16016 24.3485 2.91737 26.7233 4.34921 28.7321L7.60837 33.3188H7.42751C7.09412 33.3188 6.82463 33.5888 6.82463 33.9216V37.6432C6.82463 37.976 7.09412 38.2461 7.42751 38.2461H17.0754C17.4088 38.2461 17.6783 37.976 17.6783 37.6432V33.9216C17.6783 33.5888 17.4088 33.3188 17.0754 33.3188H16.6485L16.6473 27.9622C16.6335 27.7198 16.6057 27.4913 16.5708 27.2707C17.6825 27.58 18.8316 27.7373 20.0005 27.7373C20.8283 27.7373 21.6518 27.6589 22.4494 27.5046C22.4621 27.5028 22.4754 27.501 22.488 27.4986C22.8094 27.4353 23.1229 27.3593 23.4345 27.2719C23.3972 27.5028 23.367 27.7415 23.3526 27.9959V33.3188H22.9257C22.5923 33.3188 22.3228 33.5888 22.3228 33.9216V37.6432C22.3228 37.976 22.5923 38.2461 22.9257 38.2461H32.5736C32.907 38.2461 33.1765 37.976 33.1765 37.6432V33.9216C33.1765 33.5888 32.907 33.3188 32.5736 33.3188H32.3927L35.6513 28.7327C37.0837 26.7227 37.8409 24.3479 37.8409 21.8653V13.2779C37.8409 11.7236 36.5797 10.4588 35.0291 10.4588C34.2803 10.4588 33.575 10.7518 33.0426 11.2841C32.8172 11.5096 32.6447 11.7719 32.5091 12.051C32.1311 10.3889 31.445 8.85092 30.4593 7.48058C30.4539 7.47214 30.4527 7.46249 30.4466 7.45405C30.4412 7.44682 30.4328 7.4438 30.4267 7.43657C28.0267 4.07733 24.1333 2.07275 20.0018 2.07275C19.7262 2.07275 19.4574 2.09687 19.1861 2.11435C19.1511 2.11496 19.1167 2.11315 19.083 2.11978C13.3978 2.52552 8.73154 6.64137 7.49865 12.0594C7.3624 11.7773 7.18877 11.5126 6.96088 11.2847C6.42854 10.7524 5.72317 10.4594 4.9744 10.4594H4.97198ZM16.4719 37.0403H8.02979V34.5245H8.76711C8.77012 34.5245 8.77374 34.5257 8.77675 34.5257H16.0451C16.0451 34.5257 16.0487 34.5245 16.0511 34.5245H16.4719V37.0403ZM16.162 25.8744C15.3367 24.0278 13.6631 23.267 12.5658 22.9607C11.72 22.7292 10.9634 22.1715 10.4341 21.3872L9.72749 20.352C9.5623 20.044 9.4146 19.7184 9.27533 19.385C9.71544 19.2735 10.1326 19.2488 10.5197 19.3229C11.0773 19.4278 11.465 19.6967 11.9147 20.0084C12.5514 20.4497 13.273 20.9501 14.5457 21.0532C15.4633 21.1285 16.083 20.9477 16.6293 20.7885C17.1996 20.6221 17.6499 20.4889 18.4288 20.6716C18.8973 20.7716 20.2881 21.2503 20.5184 22.107C20.5908 22.3729 20.5269 22.5586 20.3858 22.9191C20.2857 23.1753 20.1724 23.4653 20.1308 23.821C20.0223 24.6801 20.3466 25.5543 21.1135 26.4731C19.4543 26.6286 17.7434 26.4291 16.1614 25.8756L16.162 25.8744ZM7.78321 18.8051C7.79165 18.8316 7.79949 18.8581 7.80793 18.8846C7.79949 18.884 7.79165 18.8804 7.78321 18.8798V18.8051ZM31.9689 37.0403H23.5268V34.5245H23.9476C23.9476 34.5245 23.9512 34.5257 23.9536 34.5257H31.2219C31.2256 34.5257 31.2286 34.5245 31.2316 34.5245H31.9689V37.0403ZM33.1861 21.4861L32.3035 22.9293C30.9619 25.1246 30.2911 26.2962 30.2911 26.4441C30.2911 26.7769 30.5606 27.047 30.894 27.047C31.1418 27.047 31.3552 26.8969 31.4474 26.6829C31.5487 26.4966 32.2143 25.3867 33.3314 23.5594L34.2146 22.1149C34.8211 21.1249 34.5185 19.8191 33.5346 19.2017C33.4972 19.1788 33.4592 19.1571 33.4212 19.136V13.2785C33.4212 12.8474 33.5888 12.4423 33.8933 12.1372C34.1977 11.8328 34.6005 11.6652 35.0273 11.6652C35.9129 11.6652 36.6334 12.3886 36.6334 13.2785V21.8659C36.6334 24.0959 35.9533 26.2283 34.6668 28.0339L30.9115 33.3194H24.5571L24.5559 28.0309C24.6994 25.4994 26.3748 24.5089 27.7512 24.1249C28.8749 23.8174 29.8739 23.0861 30.5612 22.0678L31.6439 20.4805C31.8538 20.1658 32.2782 20.0174 32.6357 20.1085C32.6405 20.1097 32.6447 20.1109 32.6489 20.1127C32.7412 20.1422 32.822 20.1796 32.8985 20.2266C33.3278 20.4961 33.4544 21.0496 33.1867 21.4867L33.1861 21.4861ZM32.2155 18.8256V18.8798C32.2082 18.8804 32.2022 18.8834 32.195 18.884C32.2016 18.8641 32.2088 18.8448 32.2155 18.8256ZM31.4709 13.0867C31.5656 13.6908 31.6259 14.3003 31.6259 14.9062C31.6259 16.7987 31.1574 18.6809 30.2718 20.352L29.5634 21.3908C29.2101 21.9141 28.7483 22.3259 28.2311 22.6177C27.8735 22.2234 27.6927 21.8568 27.7102 21.5222C27.724 21.1551 27.9664 20.7391 28.1798 20.3719C28.4915 19.8372 28.8442 19.2307 28.4294 18.667C28.0918 18.2197 27.5715 18.2739 27.2285 18.3089C26.9312 18.3384 26.7419 18.3499 26.5954 18.2552C26.4085 18.131 26.2506 17.8326 26.1807 17.4769C26.0902 17.0103 26.162 16.5322 26.3682 16.2296C26.5062 16.0276 26.6618 15.9661 27.0012 15.8455C27.387 15.7087 27.9151 15.5218 28.4409 14.9599C28.9087 14.4595 29.0624 14.0007 29.1746 13.6655C29.2433 13.4593 29.2867 13.3387 29.3615 13.2489C29.5218 13.059 30.0174 12.8088 31.4721 13.0873L31.4709 13.0867ZM29.1052 7.69158C28.0755 8.37344 27.1549 8.65016 26.3639 8.50788C26.1819 8.47653 25.9992 8.42348 25.8141 8.37163C25.1956 8.198 24.4233 7.98097 23.6257 8.40057C22.8516 8.80992 22.6182 9.51228 22.4133 10.132C22.2408 10.6523 22.0919 11.1021 21.6494 11.4162C20.8597 11.9793 19.6985 11.8086 19.5635 11.6609C19.5701 11.5554 19.7624 11.257 19.9029 11.0388C20.3104 10.4076 20.8687 9.54303 20.8042 8.33968C20.7644 7.57704 20.4925 7.11945 20.2308 6.67634C20.0874 6.43398 19.9391 6.18318 19.8143 5.8528C19.5327 5.12031 19.5008 4.25759 19.6901 3.29479C19.7938 3.29177 19.895 3.27911 19.9993 3.27911C23.5533 3.27911 26.9114 4.91774 29.1052 7.69098V7.69158ZM18.4385 3.39728C18.2775 4.45654 18.3577 5.42657 18.6875 6.28326C18.8491 6.70829 19.0317 7.01757 19.1933 7.29067C19.4236 7.67953 19.5761 7.93635 19.6002 8.40358C19.6436 9.21747 19.2433 9.83783 18.89 10.3852C18.5362 10.9339 18.1352 11.5554 18.5018 12.2065C18.7062 12.5641 19.0992 12.8161 19.6394 12.9348C19.8667 12.9849 20.1042 13.009 20.3442 13.009C21.0598 13.009 21.7953 12.7925 22.3488 12.3989C23.112 11.8557 23.3592 11.1099 23.5575 10.5112C23.7396 9.96082 23.859 9.64129 24.1869 9.46767C24.5432 9.28017 24.9128 9.3706 25.4874 9.53278C25.7122 9.59548 25.9353 9.65757 26.1535 9.69555C27.2586 9.89269 28.4849 9.55207 29.7943 8.68091C30.4183 9.65154 30.8897 10.7018 31.1972 11.8231C29.8697 11.6471 28.9563 11.8569 28.436 12.4736C28.21 12.7443 28.1141 13.0301 28.0297 13.2827C27.932 13.5751 27.847 13.8277 27.5588 14.137C27.2339 14.4842 26.9397 14.5885 26.5979 14.7097C26.2138 14.8459 25.7357 15.0148 25.371 15.5513C24.9839 16.1186 24.8441 16.9253 24.9966 17.7084C25.1292 18.3891 25.4675 18.954 25.9317 19.2638C26.4182 19.581 26.924 19.5526 27.2791 19.5171C27.2321 19.6033 27.1796 19.6931 27.1368 19.7666C26.8661 20.2315 26.5291 20.8096 26.5044 21.4698C26.4767 22.01 26.6636 22.5501 27.0524 23.0825C25.9829 23.4478 24.5812 24.2267 23.8427 25.8744C23.4165 26.0257 22.9884 26.1487 22.5513 26.247C21.6615 25.3849 21.2455 24.6198 21.3281 23.9687C21.3522 23.7613 21.4252 23.575 21.5096 23.3592C21.6669 22.9559 21.8622 22.4543 21.6826 21.7941C21.2154 20.0548 18.7839 19.5164 18.6923 19.4966C17.6162 19.2452 16.9114 19.4507 16.2904 19.6334C15.8015 19.7763 15.3403 19.9113 14.6452 19.8541C13.6938 19.7769 13.188 19.426 12.6014 19.0197C12.1101 18.6791 11.553 18.2926 10.7445 18.1407C10.1501 18.0273 9.52131 18.0629 8.8696 18.2444C8.54645 17.1719 8.37222 16.0541 8.37222 14.9074C8.37222 9.02696 12.7648 4.16474 18.4385 3.39848V3.39728ZM7.33225 20.1169C7.33708 20.1157 7.3419 20.1145 7.34612 20.1133C7.43957 20.0892 7.52156 20.0777 7.59571 20.0777C7.90378 20.0777 8.18714 20.2284 8.35896 20.4853L9.4363 22.0648C10.126 23.0855 11.1244 23.8168 12.2451 24.1236C13.3176 24.4233 14.5656 25.0925 15.1365 26.5478C15.1365 26.549 15.1377 26.5502 15.1377 26.5514C15.2999 26.9668 15.4102 27.4425 15.4422 27.9965V33.3194H9.08784L5.3319 28.0333C4.04596 26.2289 3.36591 24.0965 3.36591 21.8665V13.2791C3.36591 12.3892 4.08635 11.6658 4.97198 11.6658C5.39882 11.6658 5.80155 11.8334 6.106 12.1378C6.41045 12.4423 6.57805 12.8474 6.57805 13.2791V19.1366C6.53826 19.1583 6.49847 19.1812 6.45929 19.2054C5.48081 19.8197 5.17817 21.1255 5.78406 22.1149L6.66668 23.5588C7.78441 25.3879 8.45059 26.4978 8.55188 26.6841C8.64412 26.8981 8.85754 27.0482 9.10532 27.0482C9.43871 27.0482 9.7082 26.7781 9.7082 26.4453C9.7082 26.2974 9.037 25.1252 7.69458 22.9287L6.81257 21.4867C6.5455 21.0496 6.6721 20.4967 7.09593 20.2303C7.17973 20.179 7.26292 20.141 7.33286 20.1181L7.33225 20.1169Z" fill="white"/>
<path d="M10.6033 17.3589C10.7534 17.4312 10.895 17.4602 11.0307 17.4602C11.3749 17.4602 11.6764 17.2691 11.9507 17.0942C12.2461 16.9067 12.6133 16.6734 13.1974 16.4805C13.8479 16.2659 14.3369 16.2448 14.7288 16.2285C15.237 16.2068 15.7621 16.1845 16.1081 15.6648C16.5241 15.0402 16.2112 14.3879 15.9592 13.8634C15.7338 13.3944 15.501 12.9097 15.6192 12.364C15.7229 11.8836 16.0503 11.5761 16.3668 11.2783C16.7448 10.9238 17.2144 10.4819 17.0607 9.79639C16.8135 8.6883 15.1731 8.38083 14.2169 8.29642C13.7774 8.25784 11.5642 8.12943 11.0843 9.38281C10.9113 9.83618 11.0771 10.1931 11.1874 10.4294C11.2592 10.5843 11.3213 10.7182 11.3358 10.9189C11.3611 11.2765 11.2152 11.4899 10.8836 11.939C10.6557 12.2471 10.373 12.6299 10.1463 13.1514C9.48371 14.6767 9.53917 16.8471 10.6033 17.3589ZM11.252 13.6325C11.4238 13.237 11.642 12.9416 11.853 12.6558C12.2178 12.1615 12.5958 11.6502 12.5379 10.8339C12.5077 10.4113 12.3715 10.1171 12.2805 9.92239C12.2582 9.87356 12.228 9.80965 12.2154 9.80965C12.2135 9.80965 12.2123 9.81086 12.2111 9.81327C12.2847 9.62517 13.1142 9.41054 14.1108 9.49796C15.2141 9.59563 15.8525 9.91576 15.8869 10.0273C15.8604 10.1002 15.6686 10.2805 15.5414 10.4005C15.1538 10.7646 14.6233 11.2626 14.4406 12.1102C14.2356 13.0598 14.604 13.8266 14.8728 14.3861C14.9717 14.5923 15.1218 14.9046 15.1267 14.9799C15.0682 15.0071 14.8523 15.0167 14.6787 15.0239C14.2362 15.0426 13.6303 15.0686 12.82 15.3356C12.0936 15.5756 11.6185 15.877 11.3044 16.0766C11.2327 16.1224 11.1507 16.1742 11.0862 16.2116C10.8914 15.8758 10.7901 14.6966 11.252 13.6325Z" fill="white"/>
</svg>
