<svg width="40" height="40" viewBox="0 0 40 40" fill="none" xmlns="http://www.w3.org/2000/svg">
<path d="M38.1759 5.60096C37.6342 3.89716 36.8999 2.67722 36.8688 2.62595C36.7484 2.42751 36.5005 2.32429 36.276 2.37578C36.2178 2.38906 34.8313 2.7127 33.2318 3.5115C31.0726 4.58953 29.5642 6.02874 28.8694 7.6728C28.291 9.04197 28.2079 10.7158 28.6183 12.5649C27.7442 11.5887 26.7609 10.7348 25.689 10.0159C25.3617 9.36927 24.4963 7.7774 23.1434 6.11365C22.6978 5.56594 21.8406 6.25327 22.2908 6.80648C23.2025 7.92777 23.8887 9.03053 24.3178 9.78813L19.3138 8.81263L14.5594 2.32772C15.0211 2.33413 15.4843 2.37876 15.9453 2.46917C17.4067 2.75527 18.8503 3.49959 20.2366 4.68108C20.7798 5.14411 21.4852 4.30137 20.9491 3.84475C19.4177 2.53966 17.8052 1.71386 16.1563 1.39091C13.6393 0.898351 10.7037 1.54494 7.66596 3.26156C5.40186 4.54101 3.88781 5.94634 3.82464 6.00539C3.62208 6.19468 3.5898 6.53846 3.7594 6.75956C3.98142 7.21503 4.82279 8.85818 6.22332 10.6272C7.0489 11.6702 7.91956 12.5629 8.82021 13.2964C8.56432 13.5109 8.3153 13.7352 8.07429 13.9712C6.78706 15.2303 5.80149 16.7155 5.15444 18.3392C4.58246 19.7738 4.27485 21.3171 4.25768 22.9079C4.2293 25.5091 4.98301 28.0179 6.43778 30.1634C7.85891 32.2591 9.8456 33.8681 12.1829 34.8164C12.8371 35.0812 13.2507 34.0638 12.5961 33.7983C11.7492 33.4547 10.9536 33.0146 10.2198 32.4912C10.3137 31.9707 10.5313 30.0975 9.28713 28.1584C9.11295 27.8872 9.63366 26.822 9.94448 26.1857C10.2654 25.5299 10.5966 24.852 10.7513 24.2136C10.9156 23.5355 10.7307 22.9662 10.2169 22.5668C9.83965 22.2736 9.34595 22.1219 8.91085 21.988C8.62818 21.901 8.30775 21.8026 8.19331 21.7072C7.95756 21.5096 7.57258 20.7797 7.26313 20.1936C6.91981 19.5433 6.59296 18.9244 6.25925 18.5433C7.01021 16.7599 8.21642 15.1817 9.72704 13.9744C11.107 14.9144 12.6819 15.563 14.356 15.6944C12.4146 17.1986 11.7865 19.1196 12.6842 20.9649C13.7325 23.1196 15.8901 22.7753 17.7938 22.4721C18.1231 22.4194 18.4639 22.3652 18.7903 22.3244C18.9128 22.3091 18.9496 22.3425 18.9743 22.3643C19.3911 22.7351 19.3788 24.5059 19.3698 25.7991C19.3577 27.5878 19.3463 29.2774 20.0125 30.1449C20.3524 30.5871 20.831 30.8132 21.392 30.8132C21.7282 30.8132 22.0935 30.7322 22.4767 30.5679C24.1336 29.8583 25.8559 27.7229 25.5931 26.0332C25.3636 24.556 25.2116 23.5801 25.5698 22.7934C25.901 22.0654 26.7016 21.3913 28.2784 20.5312C28.4672 21.3815 28.5624 22.2661 28.5526 23.1736C28.5189 26.2713 27.2807 29.1705 25.0663 31.3369C22.5914 33.758 19.113 34.9537 15.6723 34.5744C14.9712 34.4984 14.8501 35.5893 15.5521 35.6667C19.3183 36.0814 23.1262 34.7722 25.8344 32.1224C28.2589 29.7505 29.6144 26.5768 29.6512 23.1853C29.7002 18.6884 27.3928 14.7045 23.8804 12.4095C24.6062 11.892 25.1468 11.4445 25.4467 11.1848C26.7272 12.1035 27.8632 13.2353 28.8082 14.5539C31.0769 17.72 31.9767 21.5797 31.3422 25.4226C30.0318 33.3554 22.5124 38.744 14.5782 37.4332C10.735 36.7985 7.36933 34.7056 5.10065 31.5395C2.83175 28.3736 1.93201 24.5135 2.5667 20.6708C2.68068 19.9793 1.59739 19.7978 1.48294 20.4918C0.80019 24.6243 1.76813 28.775 4.20733 32.1796C6.64698 35.5838 10.2667 37.8346 14.3992 38.5174C15.2635 38.66 16.1286 38.7305 16.9879 38.7305C20.2357 38.7305 23.3952 37.722 26.0875 35.7928C29.4926 33.3531 31.7437 29.734 32.426 25.6016C32.9261 22.5735 32.539 19.5355 31.3369 16.7885C31.8917 16.6248 32.8359 16.3071 33.87 15.7908C36.0288 14.7127 37.5373 13.2735 38.232 11.6295C38.9273 9.98496 38.9079 7.90031 38.1759 5.60096ZM6.2913 20.7063C6.70008 21.4812 7.08666 22.2137 7.48835 22.5497C7.77285 22.7875 8.16882 22.9092 8.5879 23.0381C9.66158 23.3681 9.78632 23.5302 9.68333 23.9548C9.55698 24.4769 9.25211 25.1003 8.95754 25.703C8.39014 26.8639 7.85433 27.9597 8.36222 28.7517C9.08251 29.8741 9.20588 30.9792 9.19352 31.6665C5.92142 28.716 4.5891 24.0557 5.8079 19.82C5.96949 20.097 6.13932 20.4188 6.2913 20.7063ZM32.8702 9.91058L31.309 6.12716C32.0687 5.41671 32.9501 4.88204 33.7008 4.50553C34.3403 4.18464 34.9487 3.94477 35.4367 3.77471L32.8702 9.91058ZM36.4495 4.20066C36.6676 4.66941 36.9205 5.27389 37.1366 5.9571C37.3735 6.70692 37.5909 7.63618 37.6342 8.60549L33.9755 10.115L36.4495 4.20066ZM29.8812 8.10058C30.0433 7.71743 30.2527 7.36221 30.4946 7.03422L32.2719 11.3406L30.6771 15.1543C30.453 14.6789 30.1891 14.0545 29.9652 13.3452C29.5159 11.925 29.1369 9.86182 29.8812 8.10058ZM33.4008 14.7967C32.7853 15.1057 32.198 15.3397 31.7196 15.5083L33.3747 11.5517L37.5875 9.8133C37.5264 10.2853 37.4099 10.7531 37.2201 11.2017C36.476 12.9629 34.7324 14.1291 33.4008 14.7967ZM13.5917 14.4841C13.3976 14.4461 13.206 14.3996 13.0172 14.3468L19.0972 9.88998L24.1036 10.8657C22.2798 12.3026 17.8416 15.3168 13.5917 14.4841ZM8.03515 11.047C6.73487 9.64553 5.78181 8.14704 5.23455 7.18757L11.6055 8.42971L8.03515 11.047ZM9.16033 3.71749L11.8259 7.35328L5.41376 6.10335C6.22103 5.46592 7.55358 4.50896 9.16033 3.71749ZM13.4152 7.66319L10.1837 3.25515C11.1511 2.85758 12.1896 2.5447 13.2541 2.40554L17.7246 8.50295L13.4152 7.66319ZM13.0733 8.71581L17.6297 9.60388L11.7819 13.8901C10.6792 13.3809 9.68676 12.6487 8.81838 11.8348L13.0733 8.71581ZM27.9799 19.4435C25.9994 20.4987 25.0296 21.3274 24.5696 22.3384C24.0754 23.424 24.2565 24.5892 24.5071 26.2019C24.6552 27.1529 23.525 28.9238 22.0441 29.558C21.4962 29.7926 21.1059 29.7649 20.8837 29.4754C20.4472 28.9073 20.4591 27.188 20.4685 25.8067C20.4815 23.8955 20.493 22.245 19.7045 21.5435C19.4209 21.2913 19.0581 21.1846 18.655 21.2341C18.3097 21.2771 17.9592 21.3329 17.6207 21.3869C15.6013 21.7088 14.3305 21.8376 13.6723 20.4842C12.6057 18.2922 14.7647 16.6685 15.7425 16.0723C15.9416 15.951 16.1264 15.8079 16.298 15.6486C18.6612 15.3662 20.8942 14.3523 22.8841 13.0822C25.27 14.5077 27.1015 16.7635 27.9799 19.4435Z" fill="white"/>
</svg>
