<svg width="37" height="37" viewBox="0 0 37 37" fill="none" xmlns="http://www.w3.org/2000/svg">
<path fill-rule="evenodd" clip-rule="evenodd" d="M34.1557 23.5746L30.8322 15.7429L30.8314 15.7432C30.591 15.1793 29.9377 14.9152 29.3743 15.1545L26.598 16.3327C26.111 16.5394 25.8401 17.0631 25.9431 17.5738C25.3788 17.7836 24.8401 18.0246 24.3476 18.245C23.594 18.582 22.9586 18.8662 22.6388 18.8673C22.2943 18.8684 21.0547 18.1013 19.6496 18.2617V18.2619C19.3395 18.2973 19.1674 18.3125 18.9716 18.39V17.8113C18.9716 15.8896 20.0087 14.1765 21.6067 13.2563C24.9814 15.5373 28.9603 14.2918 30.5454 10.5268C30.6457 10.2887 30.5604 10.0188 30.3553 9.87834C29.5638 9.28202 28.6921 8.86197 27.7902 8.65532C25.9469 8.23296 24.1017 8.72761 22.7166 10.015C22.055 10.6298 21.5202 11.4057 21.1352 12.2896C21.0913 12.3381 19.9145 12.8834 18.9717 14.285V11.3108C21.176 9.47292 21.9939 6.62843 20.6283 4.05C20.1924 3.22706 19.5576 2.49039 18.7729 1.87917C18.5845 1.72546 18.3086 1.71562 18.1079 1.87066C14.8335 4.40585 14.7114 8.65364 17.8982 11.3108V14.285C16.9554 12.8835 15.7785 12.3381 15.7346 12.2896C15.3496 11.4057 14.8149 10.6299 14.1533 10.015C12.7682 8.72768 10.923 8.23303 9.0797 8.65539C8.1778 8.86204 7.30614 9.28209 6.51463 9.87841C6.30939 10.0189 6.22417 10.2888 6.3245 10.5269C7.90942 14.292 11.8887 15.5374 15.2632 13.2564C16.8613 14.1767 17.8983 15.8896 17.8983 17.8115V18.4397C17.1474 18.2005 16.2438 18.0633 14.7559 18.5592C14.3541 18.6931 13.9712 18.9037 13.6363 18.8695C12.7527 18.7792 11.7432 18.3325 10.8017 17.9286L10.8603 17.7907C11.0995 17.2281 10.8349 16.5717 10.2719 16.3327L7.49563 15.1546C6.93221 14.9152 6.27894 15.1793 6.03847 15.7433L6.0377 15.743L2.7141 23.5746C2.47497 24.1372 2.73948 24.7936 3.30247 25.0325L6.07876 26.2107C6.59324 26.4294 7.19167 26.2275 7.47179 25.7512L10.7434 28.058L10.1391 29.1491C9.42093 30.4459 10.6047 31.9755 12.0356 31.6124C12.3103 32.4643 13.1958 32.9553 14.063 32.7352C14.3377 33.5869 15.223 34.0783 16.0904 33.8581C16.5446 35.2665 18.4683 35.4522 19.1837 34.1605L19.5751 33.4538L20.7752 34.0227C21.1734 34.2114 21.6554 34.333 22.0832 34.2815C22.4942 34.2319 22.8538 34.0407 23.0774 33.6404C23.3358 33.2942 23.442 32.8789 23.4062 32.4778C24.2905 32.3422 24.9165 31.5453 24.837 30.6546C25.7213 30.5191 26.3474 29.7221 26.2679 28.8315C27.3706 28.6624 28.0043 27.502 27.5663 26.4844L29.0006 25.9036L29.0003 25.903L29.3852 25.729C29.6593 26.2207 30.268 26.4329 30.791 26.2107L33.5673 25.0325C34.1304 24.7935 34.3946 24.1372 34.1557 23.5746ZM29.3822 10.4986C28.0935 13.0756 25.4072 14.0636 22.8351 12.7443C23.2776 12.6233 23.7434 12.5586 24.2243 12.5586C24.5207 12.5586 24.761 12.3183 24.761 12.0219C24.761 11.7255 24.5207 11.4852 24.2243 11.4852C23.6967 11.4852 23.1842 11.5499 22.6943 11.6716C24.2943 9.36014 27.0499 8.95935 29.3822 10.4986ZM12.6454 12.5586C13.1263 12.5586 13.5921 12.6233 14.0346 12.7443C11.4625 14.0636 8.77616 13.0757 7.48761 10.4986C9.81981 8.95935 12.5754 9.36014 14.1754 11.6715C13.6854 11.5498 13.173 11.4851 12.6455 11.4851C12.349 11.4851 12.1088 11.7254 12.1088 12.0218C12.1088 12.3182 12.3489 12.5586 12.6454 12.5586ZM18.4348 2.98884C20.5584 4.87118 20.8496 7.68234 18.9715 9.82279V7.91325C18.9715 7.61681 18.7312 7.37655 18.4348 7.37655C18.1385 7.37655 17.8982 7.61688 17.8982 7.91325V9.82279C16.0202 7.68241 16.3113 4.87125 18.4348 2.98884ZM6.55133 25.2029L6.50289 25.2273L3.72182 24.0471L3.69742 23.9987L7.02299 16.1622L7.02221 16.1618L7.07143 16.1377L9.8525 17.318L9.87697 17.3664L6.55133 25.2029ZM12.1661 30.2724C12.0836 30.4211 11.9468 30.5229 11.7928 30.5672C11.2396 30.726 10.8171 30.133 11.074 29.669L12.2263 27.5886C12.3088 27.4397 12.4457 27.3377 12.5998 27.2934C13.1528 27.1346 13.577 27.7318 13.3187 28.1913L12.8936 28.9588L12.1661 30.2724ZM14.1938 31.3948C14.1113 31.5438 13.9744 31.6458 13.8203 31.6901C13.6338 31.7436 13.4828 31.7136 13.3175 31.6226C13.0607 31.4813 12.9443 31.0802 13.0869 30.82L13.1232 30.7529L14.2537 28.7115C14.3363 28.5625 14.4732 28.4606 14.6272 28.4164C15.1756 28.2589 15.605 28.8469 15.346 29.3145L14.1938 31.3948ZM16.2206 32.5188C16.1379 32.6671 16.0013 32.7687 15.8477 32.8129C15.2944 32.9718 14.8718 32.3788 15.1288 31.9148L16.281 29.8344C16.3636 29.6854 16.5005 29.5835 16.6545 29.5393C17.2029 29.3818 17.6324 29.9698 17.3734 30.4374L16.2206 32.5188ZM19.4154 31.5321L18.2694 33.603C18.2553 33.6241 18.2428 33.6461 18.2317 33.6692C18.1481 33.8027 18.0191 33.8944 17.8751 33.9358C17.6887 33.9893 17.5375 33.9593 17.3722 33.8683C17.1131 33.7256 16.9995 33.3193 17.1416 33.0656L18.3084 30.9572C18.391 30.8082 18.5279 30.7062 18.6819 30.6619C18.8684 30.6084 19.0194 30.6384 19.1847 30.7294C19.4437 30.872 19.5575 31.2781 19.4154 31.5321ZM25.6275 27.6475C25.3947 27.4647 25.0578 27.5051 24.8749 27.7377C24.692 27.9704 24.7323 28.3073 24.965 28.4904C25.0992 28.5958 25.1782 28.7467 25.1973 28.9048C25.2652 29.4689 24.6197 29.8029 24.1967 29.4707C23.9639 29.2878 23.6269 29.3281 23.4441 29.5608C23.2612 29.7936 23.3015 30.1305 23.5341 30.3135C23.6684 30.4189 23.7474 30.5698 23.7664 30.728C23.8344 31.2921 23.1888 31.6261 22.7657 31.2938C22.5329 31.1108 22.1959 31.1512 22.0131 31.3839C21.8435 31.5997 21.8658 31.9051 22.0555 32.0942L22.055 32.0947C22.0752 32.1149 22.0966 32.1331 22.1189 32.1493C22.3665 32.3431 22.4133 32.752 22.2206 32.9959C22.1275 33.1138 22.1428 33.194 21.9574 33.2164C21.7425 33.2423 21.4709 33.1672 21.2322 33.054L20.0949 32.515L20.3358 32.0801C21.0553 30.7628 19.8568 29.2571 18.4393 29.6167C18.1646 28.7651 17.2769 28.2743 16.4119 28.4939C16.1372 27.6422 15.2496 27.1516 14.3845 27.371C14.104 26.5013 13.1841 26.0098 12.3063 26.2618C11.8492 26.393 11.508 26.6772 11.265 27.1159C10.0701 26.2598 9.07928 25.5539 7.90583 24.7522L10.3827 18.9157C11.3997 19.3525 12.4746 19.8268 13.5272 19.9344C14.0374 19.9865 14.3815 19.8503 14.7667 19.6976C15.9448 19.231 16.7561 19.2244 17.5114 19.4447L14.2067 22.0648C13.6292 22.5227 13.6737 23.4143 14.286 23.8199C15.2442 24.4546 16.1927 24.6242 17.1282 24.4501C18.0246 24.2833 18.8872 23.7981 19.7206 23.1067C19.7432 23.1064 19.7764 23.1138 19.8158 23.1261L23.2089 24.1926L26.3664 26.6432C26.5142 26.7673 26.604 26.881 26.6282 27.0816C26.6957 27.6424 26.0528 27.9814 25.6275 27.6475ZM28.5925 24.9121L26.8109 25.6335L23.7865 23.2863C23.7347 23.2462 23.6778 23.2172 23.6186 23.1988L23.6188 23.1983L20.1346 22.1032C19.7609 21.9857 19.3635 22.0139 19.0454 22.2784C17.7458 23.3589 16.3712 23.9137 14.8774 22.9269L14.8735 22.9036L19.0627 19.5822C19.3872 19.3427 19.3701 19.3724 19.7713 19.3266V19.3269C20.9329 19.1943 21.9253 19.9389 22.6388 19.9367C23.1901 19.9349 23.9191 19.6088 24.7836 19.2221C25.2668 19.006 25.7962 18.7691 26.3396 18.5683L28.9609 24.7454C28.8347 24.8 28.7115 24.8553 28.5925 24.9121ZM33.1569 24.0419L30.3669 25.2273L30.3184 25.2029L26.9929 17.3665L27.0173 17.318L29.7936 16.1399L29.8476 16.1619L29.8468 16.1622L33.1549 23.9576C33.1637 23.9806 33.1889 24.0237 33.1569 24.0419Z" fill="white"/>
</svg>
