<svg width="60" height="61" viewBox="0 0 60 61" fill="none" xmlns="http://www.w3.org/2000/svg">
<path d="M30.0043 58.3625C14.9124 58.3625 2.63086 46.081 2.63086 30.9891C2.63086 30.4873 3.04146 30.0767 3.54331 30.0767H56.4652C56.9671 30.0767 57.3777 30.4873 57.3777 30.9891C57.3777 46.081 45.0961 58.3625 30.0043 58.3625ZM4.474 31.9016C4.9576 45.57 16.2263 56.5376 30.0043 56.5376C43.7822 56.5376 55.0509 45.57 55.5345 31.9016H4.474Z" fill="#8EC73D"/>
<path d="M54.7501 18.4426C54.8413 18.105 54.887 17.7582 54.887 17.4024C54.887 15.395 53.4271 13.707 51.4927 13.3329C51.1003 11.435 49.3849 10.0024 47.341 10.0024C45.2972 10.0024 43.5818 11.435 43.1894 13.3329C42.3408 13.5062 41.547 13.926 40.9448 14.5555C40.5981 14.9205 40.6072 15.4954 40.9722 15.8421C41.3371 16.1888 41.912 16.1797 42.2587 15.8147C42.7058 15.3403 43.3445 15.0756 44.0106 15.0756C44.5124 15.0756 44.923 14.665 44.923 14.1632C44.923 12.8766 45.9997 11.8273 47.3319 11.8273C48.6641 11.8273 49.7408 12.8766 49.7408 14.1632C49.7408 14.665 50.1514 15.0756 50.6532 15.0756C51.9763 15.0756 53.0529 16.1158 53.0529 17.4024C53.0529 17.8039 52.9343 18.2053 52.7062 18.5977C52.5511 18.8623 52.5329 19.1908 52.6788 19.4736C52.8248 19.7565 53.0894 19.939 53.3997 19.9664C54.6224 20.0941 55.5439 21.0795 55.5439 22.2657C55.5439 23.5523 54.4672 24.6016 53.1351 24.6016C52.2591 24.6016 51.4562 24.1271 51.0273 23.3607C50.8631 23.0687 50.562 22.8953 50.2335 22.8953C49.905 22.8953 49.5948 23.0778 49.4397 23.3698C49.0199 24.1271 48.217 24.6016 47.341 24.6016C46.4651 24.6016 45.653 24.1271 45.2424 23.3698C45.0782 23.0778 44.7771 22.8953 44.4395 22.8953C44.1018 22.8953 43.8007 23.0778 43.6365 23.3698C43.5635 23.5066 43.4723 23.6344 43.3628 23.7439C43.016 24.1089 43.0343 24.6928 43.3993 25.0304C43.6639 25.2859 44.0471 25.3407 44.3756 25.2129C44.4486 25.2859 44.5307 25.3315 44.6037 25.3954V27.3298C44.6037 27.8316 45.0143 28.2422 45.5161 28.2422C46.018 28.2422 46.4286 27.8316 46.4286 27.3298V26.3079C46.7297 26.3717 47.0308 26.4174 47.341 26.4174C47.6513 26.4174 47.9524 26.3717 48.2535 26.3079V27.3298C48.2535 27.8316 48.6641 28.2422 49.1659 28.2422C49.6678 28.2422 50.0784 27.8316 50.0784 27.3298V25.3954C50.1331 25.3498 50.197 25.3133 50.2426 25.2677C51.0182 25.9976 52.0493 26.4174 53.1442 26.4174C55.4801 26.4174 57.3779 24.556 57.3779 22.2566C57.3779 20.5412 56.3104 19.0539 54.7501 18.4334V18.4426Z" fill="#8EC73D"/>
<path d="M38.6635 16.8188C38.8095 16.3534 38.8825 15.8698 38.8825 15.3771C38.8825 12.9318 37.1306 10.8879 34.8312 10.4864C34.4389 8.14142 32.4224 6.35303 30.0044 6.35303C27.5864 6.35303 25.5699 8.14142 25.1775 10.4864C22.8782 10.897 21.1263 12.9318 21.1263 15.3771C21.1263 15.8607 21.1993 16.3443 21.3453 16.8188C19.4565 17.5214 18.1426 19.3463 18.1426 21.4631C18.1426 24.2005 20.3416 26.4268 23.0333 26.4268C24.3655 26.4268 25.6064 25.8703 26.5188 24.9304C26.7469 25.1677 26.9933 25.3867 27.267 25.5692V27.3484C27.267 27.8503 27.6776 28.2609 28.1795 28.2609C28.6813 28.2609 29.0919 27.8503 29.0919 27.3484V26.3447C29.393 26.3995 29.6942 26.436 30.0044 26.436C30.3146 26.436 30.6157 26.3995 30.9168 26.3447V27.3484C30.9168 27.8503 31.3274 28.2609 31.8293 28.2609C32.3311 28.2609 32.7417 27.8503 32.7417 27.3484V25.5692C33.0063 25.3867 33.2618 25.1677 33.4899 24.9304C34.3933 25.8794 35.6433 26.4268 36.9755 26.4268C39.6763 26.4268 41.8662 24.2005 41.8662 21.4631C41.8662 19.3463 40.5523 17.5214 38.6635 16.8188ZM36.9755 24.602C35.8623 24.602 34.8404 23.9724 34.2929 22.9504C34.1378 22.6493 33.8275 22.4668 33.4899 22.4668C33.1523 22.4668 32.8421 22.6493 32.687 22.9504C32.1486 23.9632 31.1176 24.602 30.0044 24.602C28.8912 24.602 27.8693 23.9724 27.3218 22.9504C27.0024 22.3573 26.0261 22.3573 25.7159 22.9504C25.1775 23.9632 24.1465 24.602 23.0333 24.602C21.3453 24.602 19.9675 23.1968 19.9675 21.4631C19.9675 19.8664 21.1445 18.5251 22.7139 18.3608C23.0242 18.3243 23.2888 18.1418 23.4348 17.8681C23.5716 17.5944 23.5625 17.2659 23.4074 16.9922C23.1063 16.4812 22.9603 15.9428 22.9603 15.3862C22.9603 13.6526 24.3381 12.2474 26.0261 12.2474C26.528 12.2474 26.9386 11.8368 26.9386 11.335C26.9386 9.60134 28.3164 8.19617 30.0044 8.19617C31.6924 8.19617 33.0702 9.60134 33.0702 11.335C33.0702 11.8368 33.4808 12.2474 33.9827 12.2474C35.6798 12.2474 37.0485 13.6526 37.0485 15.3862C37.0485 15.9428 36.8934 16.4903 36.6014 16.9922C36.4463 17.2568 36.4371 17.5852 36.574 17.8681C36.7109 18.1418 36.9846 18.3334 37.2948 18.3608C38.8642 18.5342 40.0413 19.8664 40.0413 21.4631C40.0413 23.1968 38.6635 24.602 36.9755 24.602Z" fill="#8EC73D"/>
<path d="M19.0552 14.5555C18.453 13.926 17.6683 13.5062 16.8106 13.3329C16.4183 11.435 14.7029 10.0024 12.659 10.0024C10.6151 10.0024 8.8997 11.435 8.50735 13.3329C6.57296 13.7161 5.11305 15.395 5.11305 17.4024C5.11305 17.7491 5.15867 18.0958 5.24992 18.4426C3.68963 19.063 2.62207 20.5503 2.62207 22.2657C2.62207 24.556 4.51996 26.4265 6.85582 26.4265C7.95076 26.4265 8.98182 26.0068 9.7574 25.2768C9.81215 25.3224 9.8669 25.3589 9.92164 25.4045V27.3389C9.92164 27.8408 10.3322 28.2514 10.8341 28.2514C11.3359 28.2514 11.7465 27.8408 11.7465 27.3389V26.317C12.0476 26.3809 12.3488 26.4265 12.659 26.4265C12.9692 26.4265 13.2703 26.3809 13.5714 26.317V27.3389C13.5714 27.8408 13.982 28.2514 14.4839 28.2514C14.9857 28.2514 15.3963 27.8408 15.3963 27.3389V25.4045C15.4693 25.3407 15.5514 25.2859 15.6244 25.222C15.9438 25.3498 16.327 25.295 16.6008 25.0396C16.9657 24.6928 16.984 24.118 16.6372 23.753C16.5278 23.6435 16.4365 23.5158 16.3635 23.3789C16.1993 23.0869 15.8982 22.9044 15.5606 22.9044C15.223 22.9044 14.9219 23.0869 14.7576 23.3789C14.3379 24.1362 13.5349 24.6107 12.659 24.6107C11.783 24.6107 10.971 24.1362 10.5604 23.3789C10.4052 23.0869 10.095 22.9044 9.76653 22.9044C9.43805 22.9044 9.12781 23.0869 8.9727 23.3698C8.54385 24.1362 7.7409 24.6107 6.86495 24.6107C5.53277 24.6107 4.45609 23.5614 4.45609 22.2748C4.45609 21.0978 5.37766 20.1032 6.60034 19.9755C6.91057 19.939 7.1843 19.7565 7.32117 19.4828C7.45804 19.209 7.44891 18.8714 7.2938 18.6068C7.06568 18.2236 6.94707 17.813 6.94707 17.4115C6.94707 16.125 8.02375 15.0848 9.3468 15.0848C9.84865 15.0848 10.2592 14.6742 10.2592 14.1723C10.2592 12.8858 11.3359 11.8365 12.6681 11.8365C14.0003 11.8365 15.077 12.8858 15.077 14.1723C15.077 14.6742 15.4876 15.0848 15.9894 15.0848C16.6555 15.0848 17.2851 15.3585 17.7413 15.8239C18.088 16.1888 18.672 16.198 19.0279 15.8512C19.3928 15.5045 19.402 14.9205 19.0552 14.5647V14.5555Z" fill="#8EC73D"/>
<path d="M48.2535 7.26547C47.8611 7.26547 47.5144 7.01911 47.3867 6.65413C47.1768 6.05192 46.8848 5.66869 46.5016 5.5227C45.9359 5.30371 45.2059 5.60482 45.0326 5.69606C44.5855 5.94242 44.038 5.77818 43.7916 5.34021C43.5453 4.90223 43.7095 4.34564 44.1475 4.09928C44.3026 4.00804 45.7169 3.26895 47.1494 3.81642C47.4779 3.94416 47.8703 4.16315 48.2352 4.5555C48.6002 4.16315 48.9926 3.93504 49.321 3.81642C50.7536 3.25983 52.1679 4.00804 52.323 4.09928C52.761 4.34564 52.9252 4.89311 52.6789 5.34021C52.4416 5.77818 51.885 5.94242 51.447 5.69606C51.2189 5.57744 50.5164 5.31283 49.9689 5.5227C49.5948 5.66869 49.3028 6.05192 49.0929 6.65413C48.9652 7.01911 48.6185 7.26547 48.2261 7.26547H48.2535Z" fill="#8EC73D"/>
<path d="M11.7554 7.26547C11.3631 7.26547 11.0164 7.01911 10.8886 6.65413C10.6788 6.05192 10.3868 5.66869 10.0035 5.5227C9.43783 5.30371 8.70787 5.60482 8.5345 5.69606C8.08741 5.94242 7.53994 5.77818 7.29358 5.34021C7.04722 4.90223 7.21146 4.34564 7.64943 4.09928C7.80455 4.00804 9.21884 3.26895 10.6514 3.81642C10.9799 3.94416 11.3722 4.16315 11.7372 4.5555C12.1022 4.16315 12.4945 3.93504 12.823 3.81642C14.2555 3.25983 15.6698 4.00804 15.825 4.09928C16.2629 4.34564 16.4272 4.89311 16.1808 5.34021C15.9436 5.77818 15.387 5.94242 14.949 5.69606C14.7209 5.57744 14.0183 5.31283 13.4708 5.5227C13.0967 5.66869 12.8048 6.05192 12.5949 6.65413C12.4671 7.01911 12.1204 7.26547 11.7281 7.26547H11.7554Z" fill="#8EC73D"/>
<path d="M24.7029 54.0919C24.5112 54.0919 24.3288 54.0372 24.1645 53.9186C23.7539 53.6175 23.6718 53.0518 23.9729 52.6412C25.962 49.9312 29.6666 48.9914 31.6922 48.672C35.7343 48.0242 37.3129 46.3909 37.3129 42.8506C37.3129 40.2319 38.1706 38.2245 39.7217 37.2026C41.4189 36.0802 43.8004 36.1715 46.7932 37.4489C48.0706 37.9873 49.5944 38.0329 51.328 37.5584C51.8938 37.4033 52.4869 37.8595 52.4869 38.4435C52.4869 38.8906 52.1675 39.2556 51.7478 39.3377C49.6309 39.8943 47.7239 39.8304 46.0815 39.1278C43.7182 38.115 41.866 37.9781 40.7254 38.7263C39.3476 39.6388 39.1378 41.7009 39.1378 42.8506C39.1378 48.6629 35.05 49.9859 31.9842 50.4787C30.5699 50.6976 27.1117 51.4641 25.4511 53.7178C25.2686 53.9642 24.9948 54.0919 24.712 54.0919H24.7029Z" fill="#8EC73D"/>
<path d="M18.8712 46.9656C17.9861 46.9656 17.1011 46.7832 16.2799 46.4182C15.1028 45.8798 13.7889 45.816 12.6666 46.2539C12.2012 46.4364 11.672 46.2083 11.4895 45.7338C11.307 45.2685 11.5351 44.7393 12.0096 44.5568C13.5881 43.9363 15.4222 44.0093 17.0463 44.7575C18.7617 45.5422 21.0337 45.086 22.2016 43.7173C23.2966 42.4308 23.2053 40.688 21.937 38.7992C21.1067 37.5401 20.5501 36.2079 20.2764 34.821C20.176 34.3283 20.5045 33.8447 20.9972 33.7534C21.4899 33.653 21.9735 33.9815 22.0648 34.4743C22.2929 35.6239 22.7582 36.7462 23.4517 37.7956C25.9062 41.4727 24.3641 44.0002 23.5794 44.9126C22.4389 46.2448 20.6505 46.9839 18.8621 46.9839L18.8712 46.9656Z" fill="#8EC73D"/>
</svg>
