<svg width="50" height="51" viewBox="0 0 50 51" fill="none" xmlns="http://www.w3.org/2000/svg">
<path fill-rule="evenodd" clip-rule="evenodd" d="M46.8342 33.0245L42.2183 22.1471L42.2172 22.1476C41.8832 21.3643 40.9759 20.9975 40.1934 21.3299L36.3374 22.9663C35.6611 23.2534 35.2848 23.9807 35.4279 24.6901C34.6442 24.9815 33.8959 25.3162 33.2118 25.6222C32.1652 26.0904 31.2827 26.4851 30.8386 26.4866C30.3601 26.4881 28.6384 25.4227 26.6869 25.6455V25.6458C26.2562 25.6949 26.0171 25.716 25.7452 25.8237V25.02C25.7452 22.3508 27.1856 19.9715 29.4051 18.6935C34.0922 21.8616 39.6185 20.1317 41.82 14.9026C41.9593 14.5718 41.8408 14.197 41.5559 14.0019C40.4566 13.1737 39.2459 12.5903 37.9933 12.3033C35.4331 11.7167 32.8703 12.4037 30.9466 14.1917C30.0278 15.0457 29.285 16.1232 28.7502 17.3508C28.6892 17.4182 27.0548 18.1756 25.7453 20.1222V15.9915C28.8069 13.4388 29.9429 9.48814 28.0462 5.90699C27.4408 4.76402 26.5591 3.74088 25.4693 2.89195C25.2075 2.67847 24.8243 2.6648 24.5456 2.88013C19.9979 6.40123 19.8282 12.3009 24.2544 15.9915V20.1222C22.9449 18.1757 21.3104 17.4182 21.2494 17.3508C20.7147 16.1233 19.972 15.0458 19.0532 14.1918C17.1294 12.4038 14.5666 11.7168 12.0065 12.3034C10.7538 12.5904 9.54319 13.1738 8.44388 14.002C8.15882 14.1971 8.04046 14.5719 8.17981 14.9027C10.3811 20.132 15.9078 21.8617 20.5947 18.6936C22.8142 19.9718 24.2545 22.3508 24.2545 25.0202V25.8927C23.2116 25.5604 21.9566 25.3699 19.8901 26.0587C19.3321 26.2446 18.8002 26.5372 18.3351 26.4896C17.1078 26.3642 15.7058 25.7438 14.3982 25.1829L14.4795 24.9913C14.8117 24.2099 14.4443 23.2982 13.6623 22.9664L9.80638 21.33C9.02386 20.9976 8.11653 21.3644 7.78255 22.1477L7.78147 22.1472L3.16536 33.0245C2.83323 33.8058 3.20061 34.7175 3.98255 35.0494L7.8385 36.6857C8.55305 36.9895 9.38421 36.7091 9.77327 36.0475L14.3171 39.2514L13.4779 40.7669C12.4804 42.5679 14.1245 44.6924 16.1119 44.1881C16.4935 45.3713 17.7233 46.0533 18.9278 45.7476C19.3092 46.9305 20.5388 47.6129 21.7436 47.3072C22.3743 49.2632 25.0462 49.5211 26.0398 47.7272L26.5834 46.7456L28.2502 47.5357C28.8033 47.7978 29.4728 47.9668 30.0669 47.8952C30.6377 47.8263 31.1372 47.5608 31.4478 47.0047C31.8066 46.524 31.9541 45.9471 31.9043 45.39C33.1326 45.2017 34.0021 44.0949 33.8916 42.8579C35.1199 42.6696 35.9894 41.5628 35.8789 40.3257C37.4105 40.0909 38.2907 38.4793 37.6824 37.0659L39.6743 36.2592L39.674 36.2584L40.2086 36.0167C40.5892 36.6997 41.4347 36.9943 42.1611 36.6857L46.017 35.0494C46.7991 34.7174 47.166 33.8059 46.8342 33.0245ZM40.2043 14.8633C38.4146 18.4425 34.6836 19.8148 31.1113 17.9824C31.7258 17.8143 32.3728 17.7245 33.0407 17.7245C33.4524 17.7245 33.7861 17.3907 33.7861 16.9791C33.7861 16.5674 33.4523 16.2337 33.0407 16.2337C32.3078 16.2337 31.5961 16.3235 30.9157 16.4925C33.1379 13.2822 36.9651 12.7255 40.2043 14.8633ZM16.9588 17.7245C17.6267 17.7245 18.2737 17.8143 18.8882 17.9824C15.3159 19.8148 11.5849 18.4426 9.79524 14.8633C13.0344 12.7255 16.8616 13.2822 19.0838 16.4924C18.4033 16.3234 17.6916 16.2336 16.9589 16.2336C16.5472 16.2336 16.2135 16.5673 16.2135 16.979C16.2135 17.3906 16.5471 17.7245 16.9588 17.7245ZM24.9997 4.43316C27.9491 7.04752 28.3535 10.9519 25.7451 13.9248V11.2726C25.7451 10.8609 25.4114 10.5272 24.9997 10.5272C24.5881 10.5272 24.2543 10.861 24.2543 11.2726V13.9248C21.646 10.952 22.0504 7.04762 24.9997 4.43316ZM8.49485 35.2861L8.42757 35.32L4.56497 33.6807L4.53108 33.6135L9.14993 22.7295L9.14886 22.729L9.21722 22.6955L13.0798 24.3347L13.1138 24.402L8.49485 35.2861ZM16.2932 42.327C16.1785 42.5336 15.9885 42.675 15.7747 42.7364C15.0063 42.957 14.4195 42.1335 14.7764 41.4889L16.3767 38.5996C16.4913 38.3926 16.6815 38.251 16.8954 38.1895C17.6636 37.9689 18.2528 38.7984 17.894 39.4366L17.3035 40.5026L16.2932 42.327ZM19.1094 43.8859C18.9948 44.0928 18.8046 44.2345 18.5907 44.296C18.3317 44.3703 18.1219 44.3287 17.8923 44.2023C17.5357 44.006 17.374 43.4489 17.572 43.0876L17.6225 42.9943L19.1926 40.1591C19.3073 39.9522 19.4974 39.8106 19.7114 39.7492C20.473 39.5305 21.0694 40.3471 20.7097 40.9966L19.1094 43.8859ZM21.9243 45.4469C21.8096 45.653 21.6199 45.7941 21.4065 45.8554C20.638 46.0761 20.0511 45.2525 20.408 44.6081L22.0083 41.7187C22.123 41.5118 22.3131 41.3702 22.5271 41.3087C23.2887 41.09 23.8852 41.9067 23.5255 42.5562L21.9243 45.4469ZM26.3617 44.0765L24.7699 46.9528C24.7504 46.9821 24.7329 47.0127 24.7176 47.0448C24.6015 47.2301 24.4223 47.3576 24.2223 47.415C23.9634 47.4893 23.7534 47.4477 23.5239 47.3212C23.164 47.1231 23.0062 46.5588 23.2035 46.2065L24.8241 43.2781C24.9388 43.0711 25.1289 42.9295 25.3429 42.868C25.6019 42.7937 25.8116 42.8353 26.0412 42.9617C26.4009 43.1597 26.559 43.7238 26.3617 44.0765ZM34.9895 38.6813C34.6662 38.4274 34.1983 38.4835 33.9443 38.8066C33.6902 39.1297 33.7462 39.5977 34.0695 39.852C34.2558 39.9984 34.3656 40.208 34.392 40.4276C34.4864 41.211 33.5898 41.675 33.0023 41.2135C32.679 40.9594 32.211 41.0155 31.957 41.3387C31.703 41.662 31.7589 42.1299 32.0821 42.384C32.2686 42.5304 32.3783 42.74 32.4047 42.9597C32.4991 43.7432 31.6025 44.2071 31.0148 43.7456C30.6915 43.4915 30.2235 43.5475 29.9695 43.8708C29.7339 44.1705 29.765 44.5946 30.0283 44.8573L30.0278 44.858C30.0558 44.886 30.0855 44.9113 30.1164 44.9338C30.4604 45.203 30.5253 45.7709 30.2577 46.1096C30.1284 46.2734 30.1497 46.3848 29.8921 46.4159C29.5937 46.4518 29.2165 46.3476 28.8849 46.1904L27.3054 45.4417L27.64 44.8377C28.6392 43.0081 26.9746 40.9169 25.0059 41.4164C24.6244 40.2335 23.3914 39.5519 22.1901 39.8568C21.8086 38.6739 20.5758 37.9925 19.3742 38.2972C18.9847 37.0893 17.7071 36.4067 16.4878 36.7567C15.8531 36.9389 15.3791 37.3336 15.0416 37.9429C13.3821 36.754 12.0059 35.7736 10.3761 34.66L13.8161 26.5538C15.2287 27.1604 16.7216 27.8192 18.1835 27.9686C18.8922 28.041 19.37 27.8518 19.9051 27.6398C21.5413 26.9918 22.6682 26.9826 23.7171 27.2885L19.1273 30.9276C18.3252 31.5635 18.387 32.8019 19.2374 33.3652C20.5683 34.2467 21.8856 34.4823 23.185 34.2405C24.43 34.0088 25.628 33.3349 26.7855 32.3747C26.8169 32.3743 26.863 32.3844 26.9177 32.4016L31.6303 33.8828L36.0158 37.2864C36.2211 37.4587 36.3457 37.6168 36.3793 37.8953C36.4732 38.6743 35.5802 39.1451 34.9895 38.6813ZM39.1075 34.8821L36.6331 35.884L32.4326 32.6241C32.3606 32.5684 32.2816 32.5281 32.1994 32.5026L32.1997 32.5018L27.3605 30.9808C26.8415 30.8176 26.2895 30.8569 25.8477 31.2242C24.0427 32.7249 22.1335 33.4955 20.0588 32.125L20.0534 32.0925L25.8718 27.4795C26.3225 27.1468 26.2988 27.188 26.8559 27.1245V27.1249C28.4693 26.9408 29.8476 27.975 30.8386 27.9718C31.6042 27.9694 32.6167 27.5165 33.8175 26.9794C34.4886 26.6792 35.2239 26.3503 35.9785 26.0712L39.6193 34.6505C39.444 34.7264 39.2729 34.8032 39.1075 34.8821ZM45.4471 33.6735L41.572 35.32L41.5047 35.2861L36.8859 24.4021L36.9199 24.3348L40.7758 22.6985L40.8508 22.7291L40.8497 22.7295L45.4443 33.5565C45.4565 33.5883 45.4914 33.6482 45.4471 33.6735Z" fill="#8EC73D"/>
</svg>
