<svg width="30" height="30" viewBox="0 0 30 30" fill="none" xmlns="http://www.w3.org/2000/svg">
<g clip-path="url(#clip0_880_60)">
<path d="M20.6549 12.6264C17.5319 9.33433 12.4691 9.33433 9.34612 12.6264C6.22311 15.9184 6.22311 21.2553 9.34612 24.5473C12.4691 27.8394 17.5319 27.8394 20.6549 24.5473C23.7714 21.2553 23.7714 15.9184 20.6549 12.6264ZM11.4863 27.3009C10.2449 26.742 9.13921 25.8969 8.25985 24.8404L6.23604 28.5346L8.29218 28.1938C8.46676 28.1597 8.6478 28.2211 8.76419 28.3778L10.0186 30L11.4863 27.3009ZM21.7412 24.8404C20.8553 25.8969 19.7561 26.742 18.5082 27.3009L19.9825 29.9932L21.2368 28.371C21.3532 28.2211 21.5343 28.1529 21.7088 28.187L23.765 28.5278L21.7412 24.8404ZM18.1849 15.23C16.4262 13.3761 13.5748 13.3761 11.8161 15.23C10.0574 17.084 10.0574 20.0898 11.8161 21.9437C13.5748 23.7976 16.4262 23.7976 18.1849 21.9437C19.9437 20.0898 19.9437 17.084 18.1849 15.23ZM14.9973 12.7968C18.0298 12.7968 20.4933 15.3868 20.4933 18.5903C20.4933 21.7869 18.0362 24.3837 14.9973 24.3837C11.9648 24.3837 9.5013 21.7937 9.5013 18.5903C9.50776 15.3868 11.9648 12.7968 14.9973 12.7968ZM12.4368 18.972C12.301 18.7198 12.3786 18.4062 12.6178 18.2631C12.8571 18.12 13.1545 18.2018 13.2903 18.4539L14.0791 19.8921L16.7819 17.0431C16.9758 16.8386 17.2927 16.8386 17.4802 17.0431C17.6741 17.2475 17.6741 17.5747 17.4802 17.7792L14.3248 21.1053C14.0985 21.3439 13.7106 21.2962 13.5489 20.9963L12.4368 18.972ZM26.4095 5.21074L27.3859 7.34411L29.6101 7.66445C29.9916 7.71898 30.1274 8.20972 29.8623 8.48235L28.2394 10.1182L28.6402 12.4492C28.7049 12.8445 28.3105 13.1376 27.9807 12.9536L26.0022 11.8358L24.0236 12.9536C23.7003 13.1376 23.28 12.8513 23.3706 12.4219L23.765 10.1182L22.1421 8.48235C21.8705 8.20972 22.0192 7.71898 22.4007 7.66445L24.6185 7.34411L25.5948 5.21074C25.7565 4.8495 26.2414 4.85632 26.4095 5.21074ZM4.39973 5.21074L5.37608 7.34411L7.60033 7.66445C7.97535 7.71898 8.1176 8.20972 7.8525 8.48235L6.22957 10.1182L6.63045 12.4492C6.69511 12.8445 6.30069 13.1376 5.9774 12.9536L3.99885 11.8358L2.0203 12.9536C1.697 13.1376 1.28319 12.8513 1.36724 12.4219L1.76166 10.1182L0.138731 8.48235C-0.132835 8.20972 0.0158796 7.71898 0.397365 7.66445L2.61516 7.34411L3.5915 5.21074C3.75315 4.8495 4.23809 4.85632 4.39973 5.21074ZM15.4046 0.269251L16.381 2.40261L18.6052 2.72296C18.9802 2.77748 19.1225 3.26823 18.8574 3.54086L17.2345 5.17667L17.6353 7.50769C17.7 7.90301 17.3056 8.19609 16.9758 8.01206L14.9973 6.88744L13.0187 8.00524C12.6954 8.18927 12.2816 7.90301 12.3657 7.47361L12.7601 5.16985L11.1372 3.53404C10.8656 3.26141 11.0143 2.77067 11.3958 2.71614L13.6136 2.3958L14.5899 0.262435C14.758 -0.0919895 15.243 -0.0851735 15.4046 0.269251Z" fill="white"/>
</g>
<defs>
<clipPath id="clip0_880_60">
<rect width="30" height="30" fill="white"/>
</clipPath>
</defs>
</svg>
