<svg width="40" height="41" viewBox="0 0 40 41" fill="none" xmlns="http://www.w3.org/2000/svg">
<path d="M20.0028 39.2275C9.94159 39.2275 1.75391 31.0398 1.75391 20.9786C1.75391 20.644 2.02764 20.3703 2.3622 20.3703H37.6435C37.978 20.3703 38.2518 20.644 38.2518 20.9786C38.2518 31.0398 30.0641 39.2275 20.0028 39.2275ZM2.98267 21.5869C3.30507 30.6992 10.8175 38.0109 20.0028 38.0109C29.1881 38.0109 36.7006 30.6992 37.023 21.5869H2.98267Z" fill="white"/>
<path d="M36.4994 12.6145C36.5602 12.3894 36.5907 12.1583 36.5907 11.921C36.5907 10.5828 35.6174 9.45742 34.3278 9.20802C34.0662 7.94276 32.9226 6.98773 31.56 6.98773C30.1975 6.98773 29.0539 7.94276 28.7923 9.20802C28.2266 9.32359 27.6973 9.60341 27.2959 10.0231C27.0647 10.2665 27.0708 10.6497 27.3141 10.8808C27.5574 11.112 27.9407 11.1059 28.1718 10.8626C28.4699 10.5463 28.8957 10.3699 29.3398 10.3699C29.6743 10.3699 29.948 10.0961 29.948 9.76157C29.948 8.90387 30.6658 8.20433 31.554 8.20433C32.4421 8.20433 33.1599 8.90387 33.1599 9.76157C33.1599 10.0961 33.4336 10.3699 33.7682 10.3699C34.6502 10.3699 35.368 11.0633 35.368 11.921C35.368 12.1887 35.2889 12.4563 35.1368 12.7179C35.0334 12.8943 35.0213 13.1133 35.1186 13.3019C35.2159 13.4904 35.3923 13.6121 35.5991 13.6303C36.4143 13.7155 37.0286 14.3725 37.0286 15.1633C37.0286 16.021 36.3108 16.7205 35.4227 16.7205C34.8388 16.7205 34.3035 16.4042 34.0176 15.8932C33.9081 15.6986 33.7073 15.583 33.4883 15.583C33.2694 15.583 33.0625 15.7046 32.9591 15.8993C32.6793 16.4042 32.144 16.7205 31.56 16.7205C30.9761 16.7205 30.4347 16.4042 30.161 15.8993C30.0515 15.7046 29.8507 15.583 29.6257 15.583C29.4006 15.583 29.1998 15.7046 29.0903 15.8993C29.0417 15.9905 28.9809 16.0757 28.9079 16.1487C28.6767 16.392 28.6889 16.7813 28.9322 17.0064C29.1086 17.1767 29.3641 17.2132 29.5831 17.1281C29.6317 17.1767 29.6865 17.2071 29.7351 17.2497V18.5393C29.7351 18.8739 30.0089 19.1476 30.3434 19.1476C30.678 19.1476 30.9517 18.8739 30.9517 18.5393V17.858C31.1525 17.9006 31.3532 17.931 31.56 17.931C31.7669 17.931 31.9676 17.9006 32.1683 17.858V18.5393C32.1683 18.8739 32.4421 19.1476 32.7766 19.1476C33.1112 19.1476 33.3849 18.8739 33.3849 18.5393V17.2497C33.4214 17.2193 33.464 17.195 33.4944 17.1646C34.0115 17.6512 34.6989 17.931 35.4288 17.931C36.9861 17.931 38.2513 16.6901 38.2513 15.1572C38.2513 14.0136 37.5396 13.022 36.4994 12.6084V12.6145Z" fill="white"/>
<path d="M25.7763 11.5317C25.8736 11.2215 25.9223 10.8991 25.9223 10.5706C25.9223 8.94039 24.7544 7.5778 23.2215 7.31015C22.9599 5.74683 21.6156 4.55457 20.0036 4.55457C18.3916 4.55457 17.0472 5.74683 16.7857 7.31015C15.2528 7.58389 14.0848 8.94039 14.0848 10.5706C14.0848 10.893 14.1335 11.2154 14.2308 11.5317C12.9717 12.0001 12.0957 13.2167 12.0957 14.628C12.0957 16.4529 13.5617 17.9371 15.3562 17.9371C16.2443 17.9371 17.0716 17.5661 17.6799 16.9395C17.832 17.0977 17.9962 17.2437 18.1787 17.3653V18.5515C18.1787 18.8861 18.4524 19.1598 18.787 19.1598C19.1215 19.1598 19.3953 18.8861 19.3953 18.5515V17.8824C19.596 17.9189 19.7968 17.9432 20.0036 17.9432C20.2104 17.9432 20.4111 17.9189 20.6119 17.8824V18.5515C20.6119 18.8861 20.8856 19.1598 21.2202 19.1598C21.5547 19.1598 21.8285 18.8861 21.8285 18.5515V17.3653C22.0049 17.2437 22.1752 17.0977 22.3273 16.9395C22.9295 17.5721 23.7629 17.9371 24.651 17.9371C26.4515 17.9371 27.9114 16.4529 27.9114 14.628C27.9114 13.2167 27.0355 12.0001 25.7763 11.5317ZM24.651 16.7205C23.9088 16.7205 23.2276 16.3008 22.8626 15.6195C22.7592 15.4188 22.5523 15.2971 22.3273 15.2971C22.1022 15.2971 21.8954 15.4188 21.792 15.6195C21.4331 16.2947 20.7457 16.7205 20.0036 16.7205C19.2615 16.7205 18.5802 16.3008 18.2152 15.6195C18.0023 15.2241 17.3514 15.2241 17.1446 15.6195C16.7857 16.2947 16.0983 16.7205 15.3562 16.7205C14.2308 16.7205 13.3123 15.7837 13.3123 14.628C13.3123 13.5635 14.097 12.6693 15.1433 12.5598C15.3501 12.5354 15.5265 12.4138 15.6238 12.2313C15.7151 12.0488 15.709 11.8298 15.6056 11.6473C15.4048 11.3067 15.3075 10.9478 15.3075 10.5767C15.3075 9.42095 16.226 8.48417 17.3514 8.48417C17.686 8.48417 17.9597 8.21043 17.9597 7.87587C17.9597 6.72011 18.8782 5.78333 20.0036 5.78333C21.1289 5.78333 22.0475 6.72011 22.0475 7.87587C22.0475 8.21043 22.3212 8.48417 22.6558 8.48417C23.7872 8.48417 24.6996 9.42095 24.6996 10.5767C24.6996 10.9478 24.5962 11.3128 24.4016 11.6473C24.2982 11.8237 24.2921 12.0427 24.3833 12.2313C24.4746 12.4138 24.6571 12.5415 24.8639 12.5598C25.9101 12.6753 26.6948 13.5635 26.6948 14.628C26.6948 15.7837 25.7763 16.7205 24.651 16.7205Z" fill="white"/>
<path d="M12.7035 10.0231C12.302 9.60341 11.7789 9.32359 11.2071 9.20802C10.9455 7.94276 9.80191 6.98773 8.43932 6.98773C7.07673 6.98773 5.93314 7.94276 5.67157 9.20802C4.38198 9.4635 3.4087 10.5828 3.4087 11.921C3.4087 12.1522 3.43911 12.3833 3.49994 12.6145C2.45976 13.0281 1.74805 14.0197 1.74805 15.1633C1.74805 16.6901 3.01331 17.9371 4.57055 17.9371C5.30051 17.9371 5.98788 17.6573 6.50494 17.1706C6.54143 17.201 6.57793 17.2254 6.61443 17.2558V18.5454C6.61443 18.88 6.88816 19.1537 7.22273 19.1537C7.55729 19.1537 7.83102 18.88 7.83102 18.5454V17.8641C8.03176 17.9067 8.2325 17.9371 8.43932 17.9371C8.64614 17.9371 8.84688 17.9067 9.04762 17.8641V18.5454C9.04762 18.88 9.32135 19.1537 9.65592 19.1537C9.99048 19.1537 10.2642 18.88 10.2642 18.5454V17.2558C10.3129 17.2132 10.3676 17.1767 10.4163 17.1341C10.6292 17.2193 10.8847 17.1828 11.0672 17.0125C11.3105 16.7813 11.3227 16.3981 11.0915 16.1548C11.0185 16.0818 10.9577 15.9966 10.909 15.9054C10.7995 15.7107 10.5988 15.5891 10.3737 15.5891C10.1486 15.5891 9.9479 15.7107 9.83841 15.9054C9.55859 16.4103 9.02329 16.7266 8.43932 16.7266C7.85536 16.7266 7.31397 16.4103 7.04024 15.9054C6.93683 15.7107 6.73001 15.5891 6.51102 15.5891C6.29203 15.5891 6.08521 15.7107 5.9818 15.8993C5.6959 16.4103 5.1606 16.7266 4.57663 16.7266C3.68852 16.7266 2.97073 16.027 2.97073 15.1693C2.97073 14.3846 3.58511 13.7216 4.40022 13.6364C4.60705 13.6121 4.78954 13.4904 4.88078 13.3079C4.97202 13.1255 4.96594 12.9004 4.86253 12.724C4.71046 12.4685 4.63138 12.1948 4.63138 11.9271C4.63138 11.0694 5.34917 10.3759 6.2312 10.3759C6.56576 10.3759 6.8395 10.1022 6.8395 9.76765C6.8395 8.90995 7.55729 8.21041 8.4454 8.21041C9.33352 8.21041 10.0513 8.90995 10.0513 9.76765C10.0513 10.1022 10.325 10.3759 10.6596 10.3759C11.1037 10.3759 11.5234 10.5584 11.8275 10.8687C12.0587 11.112 12.448 11.1181 12.6852 10.8869C12.9286 10.6558 12.9346 10.2665 12.7035 10.0292V10.0231Z" fill="white"/>
<path d="M32.1683 5.16298C31.9068 5.16298 31.6756 4.99874 31.5905 4.75542C31.4505 4.35395 31.2559 4.09846 31.0004 4.00113C30.6233 3.85514 30.1366 4.05588 30.0211 4.11671C29.723 4.28095 29.358 4.17146 29.1938 3.87947C29.0295 3.58749 29.139 3.21643 29.431 3.05219C29.5344 2.99136 30.4773 2.49864 31.4323 2.86362C31.6513 2.94878 31.9129 3.09477 32.1562 3.35634C32.3995 3.09477 32.6611 2.9427 32.88 2.86362C33.8351 2.49256 34.7779 2.99136 34.8813 3.05219C35.1733 3.21643 35.2828 3.58141 35.1186 3.87947C34.9604 4.17146 34.5894 4.28095 34.2974 4.11671C34.1453 4.03763 33.6769 3.86123 33.3119 4.00113C33.0625 4.09846 32.8679 4.35395 32.728 4.75542C32.6428 4.99874 32.4117 5.16298 32.1501 5.16298H32.1683Z" fill="white"/>
<path d="M7.83631 5.16298C7.57474 5.16298 7.34359 4.99874 7.25843 4.75542C7.11852 4.35395 6.92386 4.09846 6.66838 4.00113C6.29123 3.85514 5.8046 4.05588 5.68902 4.11671C5.39095 4.28095 5.02597 4.17146 4.86173 3.87947C4.69749 3.58749 4.80699 3.21643 5.09897 3.05219C5.20238 2.99136 6.14524 2.49864 7.10027 2.86362C7.31926 2.94878 7.58082 3.09477 7.82414 3.35634C8.06746 3.09477 8.32903 2.9427 8.54802 2.86362C9.50305 2.49256 10.4459 2.99136 10.5493 3.05219C10.8413 3.21643 10.9508 3.58141 10.7866 3.87947C10.6284 4.17146 10.2573 4.28095 9.96535 4.11671C9.81328 4.03763 9.34489 3.86123 8.97991 4.00113C8.73051 4.09846 8.53585 4.35395 8.39594 4.75542C8.31078 4.99874 8.07963 5.16298 7.81806 5.16298H7.83631Z" fill="white"/>
<path d="M16.4686 36.3807C16.3408 36.3807 16.2192 36.3442 16.1097 36.2651C15.8359 36.0644 15.7812 35.6873 15.9819 35.4135C17.308 33.6069 19.7777 32.9803 21.1281 32.7674C23.8229 32.3355 24.8752 31.2467 24.8752 28.8865C24.8752 27.1407 25.447 25.8024 26.4812 25.1211C27.6126 24.3729 29.2002 24.4337 31.1955 25.2854C32.0471 25.6443 33.0629 25.6747 34.2187 25.3584C34.5958 25.2549 34.9912 25.5591 34.9912 25.9484C34.9912 26.2465 34.7783 26.4898 34.4985 26.5445C33.0873 26.9156 31.8159 26.873 30.721 26.4046C29.1455 25.7294 27.9107 25.6382 27.1503 26.137C26.2317 26.7453 26.0918 28.12 26.0918 28.8865C26.0918 32.7613 23.3667 33.6434 21.3228 33.9719C20.3799 34.1178 18.0745 34.6288 16.9674 36.1313C16.8457 36.2956 16.6632 36.3807 16.4747 36.3807H16.4686Z" fill="white"/>
<path d="M12.5802 31.6299C11.9901 31.6299 11.4001 31.5082 10.8526 31.2649C10.0679 30.906 9.19194 30.8634 8.44373 31.1554C8.1335 31.2771 7.78069 31.125 7.65903 30.8087C7.53737 30.4985 7.68945 30.1456 8.00576 30.024C9.05811 29.6103 10.2808 29.659 11.3636 30.1578C12.5072 30.6809 14.0218 30.3768 14.8004 29.4643C15.5304 28.6066 15.4696 27.4448 14.624 26.1856C14.0705 25.3462 13.6994 24.4581 13.5169 23.5334C13.45 23.205 13.669 22.8826 13.9975 22.8217C14.326 22.7548 14.6484 22.9738 14.7092 23.3023C14.8613 24.0687 15.1715 24.817 15.6338 25.5165C17.2701 27.9679 16.2421 29.6529 15.719 30.2612C14.9586 31.1493 13.7663 31.6421 12.5741 31.6421L12.5802 31.6299Z" fill="white"/>
</svg>
