<svg width="30" height="30" viewBox="0 0 30 30" fill="none" xmlns="http://www.w3.org/2000/svg">
<path fill-rule="evenodd" clip-rule="evenodd" d="M3.73246 5.21963L15 14.0377L26.2675 5.21963C25.8716 5.07746 25.4449 5 25 5H5C4.55514 5 4.12838 5.07746 3.73246 5.21963ZM1.76407 6.85374C1.43735 7.41009 1.25 8.05817 1.25 8.75V21.25C1.25 23.3211 2.92893 25 5 25H25C27.0711 25 28.75 23.3211 28.75 21.25V8.75C28.75 8.05817 28.5627 7.41009 28.2359 6.85374L15.7704 16.6094C15.3179 16.9635 14.6821 16.9635 14.2296 16.6094L1.76407 6.85374Z" fill="white"/>
</svg>
