<svg width="40" height="40" viewBox="0 0 40 40" fill="none" xmlns="http://www.w3.org/2000/svg">
<path d="M17.4397 12.9444C17.4036 12.9445 17.3676 12.941 17.3321 12.934C15.1026 12.5006 13.1365 11.1992 11.8664 9.31622C10.5964 7.43321 10.1263 5.12279 10.5597 2.89322C10.5881 2.7474 10.6732 2.61881 10.7963 2.53573C10.9194 2.45266 11.0705 2.4219 11.2163 2.45022C11.3622 2.47855 11.4907 2.56364 11.5738 2.68677C11.6569 2.80991 11.6877 2.961 11.6593 3.10682C10.8761 7.13642 13.5169 11.0516 17.5465 11.8348C17.6831 11.8615 17.8048 11.9381 17.888 12.0496C17.9712 12.1611 18.0099 12.2996 17.9965 12.4381C17.9832 12.5766 17.9188 12.7051 17.8159 12.7987C17.713 12.8923 17.5789 12.9443 17.4397 12.9444Z" fill="white"/>
<path d="M17.4395 12.9445C17.4033 12.9445 17.3673 12.941 17.3319 12.9341C17.1861 12.9057 17.0576 12.8206 16.9746 12.6975C16.8915 12.5744 16.8608 12.4234 16.8891 12.2777C17.6707 8.24845 15.0299 4.33285 10.9995 3.54965C10.9263 3.53669 10.8564 3.50928 10.7939 3.46903C10.7314 3.42877 10.6775 3.37647 10.6354 3.31518C10.5934 3.25389 10.5639 3.18484 10.5488 3.11205C10.5337 3.03926 10.5332 2.96419 10.5474 2.89122C10.5616 2.81824 10.5902 2.74883 10.6315 2.68703C10.6729 2.62522 10.7261 2.57226 10.7881 2.53123C10.8501 2.4902 10.9196 2.46193 10.9926 2.44806C11.0657 2.43419 11.1407 2.43501 11.2135 2.45045C13.4429 2.8838 15.409 4.185 16.6791 6.06784C17.9492 7.95068 18.4194 10.2609 17.9863 12.4905C17.9617 12.6177 17.8938 12.7325 17.7941 12.8153C17.6944 12.8981 17.5691 12.9437 17.4395 12.9445Z" fill="white"/>
<path d="M23.4629 11.0144C23.3761 11.0144 23.2905 10.9944 23.2128 10.9557C23.1351 10.917 23.0675 10.8608 23.0152 10.7916C22.963 10.7223 22.9276 10.6418 22.9117 10.5565C22.8959 10.4712 22.9001 10.3834 22.924 10.3C23.2341 9.21867 23.7541 8.20904 24.4544 7.32873C25.1547 6.44843 26.0215 5.7147 27.0054 5.16945C27.9893 4.6242 29.0709 4.27812 30.1886 4.15096C31.3063 4.02381 32.438 4.11807 33.5192 4.42837C33.5911 4.4476 33.6584 4.48094 33.7173 4.52647C33.7761 4.572 33.8253 4.62879 33.8619 4.69352C33.8985 4.75826 33.9219 4.82965 33.9306 4.90352C33.9394 4.9774 33.9333 5.05227 33.9128 5.12377C33.8923 5.19528 33.8577 5.26198 33.8112 5.31998C33.7646 5.37798 33.7069 5.42612 33.6415 5.46159C33.5762 5.49706 33.5044 5.51915 33.4303 5.52656C33.3563 5.53397 33.2816 5.52657 33.2105 5.50477C29.2629 4.37317 25.1321 6.66277 23.9993 10.6088C23.9658 10.7253 23.8954 10.8279 23.7987 10.9011C23.702 10.9742 23.5841 11.014 23.4629 11.0144Z" fill="white"/>
<path d="M25.6812 11.3284C24.8784 11.3277 24.0796 11.2148 23.308 10.9928C23.1653 10.9518 23.0446 10.8558 22.9726 10.7259C22.9005 10.596 22.8831 10.4428 22.924 10.3C22.965 10.1572 23.061 10.0365 23.1909 9.9645C23.3208 9.89249 23.4741 9.87503 23.6168 9.91598C24.5566 10.1855 25.5402 10.2673 26.5115 10.1566C27.4828 10.046 28.4228 9.7451 29.2778 9.27114C30.1329 8.79718 30.8861 8.15943 31.4947 7.39433C32.1032 6.62922 32.5551 5.75174 32.8244 4.81198C32.8659 4.66993 32.9619 4.55006 33.0915 4.47858C33.2211 4.40711 33.3737 4.38983 33.516 4.43053C33.6583 4.47123 33.7787 4.56659 33.8509 4.69578C33.923 4.82497 33.9412 4.97748 33.9012 5.11998C33.3882 6.90535 32.3094 8.47588 30.827 9.59535C29.3446 10.7148 27.5388 11.3227 25.6812 11.3276V11.3284Z" fill="white"/>
<path d="M19.7683 17.8307C19.6446 17.8307 19.5243 17.7898 19.4264 17.7142C19.3284 17.6387 19.2582 17.5328 19.2267 17.4131C19.0736 16.8338 18.8806 16.2658 18.6491 15.7131C18.2004 14.6532 17.6389 13.6446 16.9743 12.7047C16.8891 12.5831 16.8558 12.4325 16.8816 12.2863C16.9074 12.14 16.9902 12.0099 17.1119 11.9247C17.2336 11.8396 17.3841 11.8062 17.5304 11.832C17.6767 11.8578 17.8067 11.9407 17.8919 12.0623C18.6026 13.0682 19.2029 14.1476 19.6827 15.2819C19.9342 15.8822 20.1439 16.4991 20.3103 17.1283C20.3321 17.2112 20.3346 17.298 20.3175 17.382C20.3005 17.466 20.2644 17.545 20.2121 17.6129C20.1597 17.6807 20.0925 17.7356 20.0155 17.7734C19.9386 17.8112 19.854 17.8308 19.7683 17.8307Z" fill="white"/>
<path d="M19.1671 16.0576C19.0732 16.0575 18.9808 16.0339 18.8985 15.9888C18.8161 15.9437 18.7464 15.8786 18.6958 15.7996C18.6452 15.7205 18.6153 15.63 18.6088 15.5363C18.6023 15.4427 18.6194 15.3489 18.6587 15.2636C19.5491 13.326 21.0539 11.5532 23.1315 9.99518C23.2503 9.90607 23.3996 9.86781 23.5467 9.88881C23.6937 9.90981 23.8263 9.98836 23.9155 10.1072C24.0046 10.226 24.0428 10.3753 24.0218 10.5224C24.0008 10.6694 23.9223 10.8021 23.8035 10.8912C21.8767 12.3364 20.4879 13.9648 19.6763 15.7312C19.6315 15.8286 19.5598 15.9112 19.4695 15.969C19.3792 16.0269 19.2743 16.0576 19.1671 16.0576Z" fill="white"/>
<path d="M15.5088 21.836C15.4956 21.836 15.4824 21.836 15.4688 21.836C15.3952 21.8309 15.3233 21.8114 15.2573 21.7784C15.1913 21.7455 15.1324 21.6999 15.0841 21.6441C15.0358 21.5883 14.9989 21.5236 14.9757 21.4536C14.9525 21.3835 14.9433 21.3096 14.9488 21.236C15.0361 20.0155 15.5794 18.8725 16.4707 18.0341C17.362 17.1958 18.536 16.7234 19.7596 16.7108H19.8124C21.0445 16.7111 22.2308 17.1781 23.1325 18.0177C24.0342 18.8574 24.5844 20.0074 24.6724 21.2364C24.6776 21.3098 24.6684 21.3834 24.6452 21.4532C24.622 21.523 24.5852 21.5875 24.5371 21.6431C24.4889 21.6987 24.4303 21.7443 24.3645 21.7772C24.2988 21.8101 24.2271 21.8298 24.1538 21.835C24.0804 21.8403 24.0068 21.831 23.937 21.8078C23.8672 21.7846 23.8027 21.7478 23.7471 21.6997C23.6915 21.6515 23.6459 21.5929 23.613 21.5271C23.5801 21.4614 23.5604 21.3898 23.5552 21.3164C23.4172 19.3624 21.7728 17.8316 19.8108 17.8316H19.7744C17.832 17.85 16.2032 19.3804 16.0668 21.316C16.0567 21.4572 15.9935 21.5892 15.89 21.6857C15.7865 21.7822 15.6503 21.8359 15.5088 21.836Z" fill="white"/>
<path d="M20.0008 37.5599C17.8619 37.5616 15.7437 37.1415 13.7673 36.3237C11.7909 35.5059 9.99507 34.3065 8.48264 32.7941C6.9702 31.2817 5.7708 29.4859 4.95303 27.5095C4.13526 25.5331 3.71517 23.4148 3.7168 21.2759C3.7168 21.1274 3.7758 20.985 3.88082 20.88C3.98584 20.7749 4.12828 20.7159 4.2768 20.7159H35.7248C35.8733 20.7159 36.0158 20.7749 36.1208 20.88C36.2258 20.985 36.2848 21.1274 36.2848 21.2759C36.2864 23.4148 35.8663 25.5331 35.0486 27.5095C34.2308 29.4859 33.0314 31.2817 31.519 32.7941C30.0065 34.3065 28.2107 35.5059 26.2343 36.3237C24.2579 37.1415 22.1397 37.5616 20.0008 37.5599ZM4.8468 21.8359C5.1424 29.9391 11.8268 36.4399 20.0008 36.4399C28.1748 36.4399 34.8592 29.9391 35.1548 21.8359H4.8468Z" fill="white"/>
<path d="M35.7248 21.8359H4.2768C4.12828 21.8359 3.98584 21.7769 3.88082 21.6719C3.7758 21.5669 3.7168 21.4245 3.7168 21.2759C3.7168 21.1274 3.7758 20.985 3.88082 20.88C3.98584 20.7749 4.12828 20.7159 4.2768 20.7159H35.7248C35.8733 20.7159 36.0158 20.7749 36.1208 20.88C36.2258 20.985 36.2848 21.1274 36.2848 21.2759C36.2848 21.4245 36.2258 21.5669 36.1208 21.6719C36.0158 21.7769 35.8733 21.8359 35.7248 21.8359Z" fill="white"/>
<path d="M18.7239 37.5087H18.7215C18.6479 37.5084 18.5752 37.4936 18.5073 37.4652C18.4395 37.4368 18.378 37.3953 18.3262 37.343C18.2744 37.2908 18.2334 37.2289 18.2056 37.1608C18.1777 37.0928 18.1636 37.0199 18.1639 36.9463C18.1711 35.3599 18.1599 33.7463 18.1303 32.1463C18.1203 31.5967 18.0239 31.4287 17.9447 31.3843C17.8655 31.3399 17.6975 31.3403 17.5591 31.3387L14.2847 31.3039C13.7647 31.2983 12.7975 31.2879 12.2159 30.6147C11.8467 30.1883 11.7719 29.6731 11.7055 29.2187C11.6836 29.0286 11.6469 28.8404 11.5959 28.6559C11.3107 27.7483 10.1407 27.2703 9.28587 26.9899C8.48787 26.7279 7.66027 26.5251 7.01267 26.8135C6.64787 26.9763 6.33267 27.2971 6.04747 27.7939C6.01115 27.8582 5.9625 27.9146 5.9043 27.96C5.84611 28.0053 5.77952 28.0388 5.70837 28.0583C5.63721 28.0779 5.5629 28.0831 5.48969 28.0739C5.41649 28.0646 5.34584 28.041 5.2818 28.0043C5.21776 27.9677 5.16159 27.9187 5.11653 27.8603C5.07148 27.8018 5.03841 27.7351 5.01924 27.6638C5.00006 27.5926 4.99516 27.5182 5.00481 27.4451C5.01446 27.3719 5.03847 27.3014 5.07547 27.2375C5.48227 26.5271 5.96667 26.0539 6.55547 25.7907C7.55027 25.3475 8.62267 25.5939 9.63547 25.9259C10.7247 26.2799 12.2243 26.9199 12.6643 28.3199C12.7341 28.5612 12.7841 28.8078 12.8139 29.0571C12.8643 29.4039 12.9079 29.7031 13.0631 29.8823C13.2951 30.1507 13.8231 30.1787 14.2967 30.1839L17.5719 30.2187C17.8243 30.2219 18.1683 30.2263 18.4919 30.4067C19.2267 30.8171 19.2439 31.7339 19.2519 32.1267C19.2815 33.7355 19.2919 35.3595 19.2855 36.9547C19.2839 37.1025 19.224 37.2436 19.1188 37.3474C19.0136 37.4512 18.8716 37.5092 18.7239 37.5087Z" fill="white"/>
<path d="M27.5375 35.64C27.4606 35.64 27.3845 35.6242 27.314 35.5935C27.2434 35.5628 27.18 35.5179 27.1275 35.4616C26.9647 35.2868 26.8055 35.1084 26.6515 34.9356L26.6303 34.912C25.8747 34.064 25.0935 33.188 24.5203 32.1432C24.0523 31.29 23.5483 29.9728 23.8027 28.5432C23.8311 28.3832 23.9183 27.8952 24.3395 27.6384C24.6011 27.4784 24.8831 27.4784 25.0347 27.4784C25.5351 27.4788 26.0345 27.5219 26.5275 27.6072H26.5367C26.5667 27.6124 26.6075 27.6192 26.6375 27.6228C26.6507 27.6096 26.6695 27.5892 26.6959 27.558C27.0173 27.1856 27.2912 26.7747 27.5111 26.3348C27.6718 26.0159 27.8979 25.7344 28.1746 25.5087C28.4513 25.283 28.7724 25.1181 29.1171 25.0247C29.4617 24.9313 29.8222 24.9115 30.175 24.9667C30.5278 25.0218 30.865 25.1506 31.1647 25.3448C31.3245 25.4488 31.4761 25.565 31.6179 25.6924C31.9227 25.9664 32.1671 26.274 32.4035 26.5724C32.4739 26.6608 32.5403 26.7444 32.6087 26.8276C33.0691 27.3879 33.5901 27.8954 34.1623 28.3408C34.2204 28.3859 34.269 28.4421 34.3053 28.5061C34.3416 28.57 34.365 28.6405 34.3741 28.7135C34.3832 28.7865 34.3779 28.8605 34.3583 28.9314C34.3388 29.0023 34.3055 29.0687 34.2603 29.1268C34.2152 29.1848 34.159 29.2334 34.095 29.2697C34.0311 29.3061 33.9606 29.3295 33.8876 29.3386C33.8146 29.3477 33.7406 29.3423 33.6697 29.3228C33.5987 29.3032 33.5324 29.2699 33.4743 29.2248C32.8368 28.7283 32.2562 28.1627 31.7431 27.5384C31.6691 27.448 31.5967 27.3568 31.5267 27.2688C31.3091 26.9952 31.1039 26.7368 30.8695 26.5256C30.7705 26.4377 30.665 26.3575 30.5539 26.2856C30.3865 26.1777 30.1982 26.1061 30.0013 26.0756C29.8045 26.045 29.6034 26.0561 29.4111 26.1082C29.2188 26.1603 29.0396 26.2521 28.8851 26.3779C28.7305 26.5036 28.6041 26.6603 28.5139 26.838C28.2525 27.3603 27.9273 27.8483 27.5459 28.2908C27.4583 28.3928 27.2747 28.6068 26.9859 28.6992C26.7355 28.7792 26.5015 28.7392 26.3459 28.7132L26.3363 28.7112C25.9063 28.6373 25.4707 28.6001 25.0343 28.6C24.9943 28.6 24.9631 28.6 24.9391 28.6C24.9242 28.6451 24.9128 28.6914 24.9051 28.7384C24.7079 29.8456 25.1211 30.9068 25.5023 31.602C26.0139 32.5352 26.7523 33.362 27.4663 34.162L27.4871 34.1856C27.6375 34.354 27.7927 34.528 27.9471 34.694C28.0229 34.7736 28.0735 34.8737 28.0928 34.9819C28.112 35.0902 28.099 35.2016 28.0553 35.3025C28.0117 35.4033 27.9393 35.4891 27.8472 35.5491C27.7551 35.6091 27.6474 35.6407 27.5375 35.64Z" fill="white"/>
</svg>
