<svg width="30" height="31" viewBox="0 0 30 31" fill="none" xmlns="http://www.w3.org/2000/svg">
<path fill-rule="evenodd" clip-rule="evenodd" d="M28.1009 19.5483L25.3314 13.0219L25.3307 13.0222C25.1303 12.5522 24.5859 12.3321 24.1164 12.5316L21.8028 13.5134C21.397 13.6856 21.1713 14.122 21.2571 14.5477C20.7869 14.7225 20.3379 14.9233 19.9275 15.1069C19.2995 15.3878 18.77 15.6247 18.5036 15.6255C18.2164 15.6265 17.1834 14.9872 16.0126 15.1209V15.121C15.7541 15.1505 15.6107 15.1632 15.4475 15.2278V14.7456C15.4475 13.1441 16.3117 11.7165 17.6435 10.9497C20.4557 12.8505 23.7715 11.8126 25.0924 8.67515C25.176 8.47669 25.1049 8.25181 24.9339 8.13474C24.2743 7.63781 23.5479 7.28777 22.7964 7.11556C21.2603 6.76359 19.7226 7.1758 18.5684 8.24859C18.017 8.76099 17.5714 9.40751 17.2505 10.1441C17.2139 10.1845 16.2333 10.639 15.4476 11.8069V9.32847C17.2845 7.79689 17.9661 5.42648 16.8281 3.27779C16.4649 2.59201 15.9359 1.97812 15.2819 1.46876C15.1249 1.34068 14.895 1.33248 14.7278 1.46167C11.9991 3.57433 11.8973 7.11415 14.553 9.32847V11.8069C13.7674 10.639 12.7866 10.1845 12.7501 10.1441C12.4292 9.40757 11.9836 8.76105 11.4323 8.24865C10.278 7.17585 8.74037 6.76365 7.20427 7.11562C6.45269 7.28783 5.72631 7.63787 5.06672 8.1348C4.89568 8.25187 4.82466 8.47675 4.90828 8.67521C6.22904 11.8128 9.54509 12.8506 12.3572 10.9498C13.6889 11.7167 14.5531 13.1441 14.5531 14.7457V15.2692C13.9274 15.0698 13.1743 14.9555 11.9344 15.3688C11.5996 15.4803 11.2805 15.6559 11.0014 15.6274C10.2651 15.5521 9.42386 15.1799 8.63929 14.8433L8.6881 14.7284C8.88744 14.2595 8.66695 13.7125 8.19779 13.5134L5.88422 12.5316C5.4147 12.3322 4.87031 12.5522 4.66992 13.0222L4.66927 13.0219L1.89961 19.5483C1.70033 20.0171 1.92076 20.5641 2.38992 20.7632L4.70349 21.745C5.13222 21.9273 5.63091 21.7591 5.86435 21.3621L8.59066 23.2844L8.08711 24.1937C7.48863 25.2743 8.47511 26.5491 9.66755 26.2465C9.89648 26.9564 10.6344 27.3656 11.357 27.1822C11.5859 27.8919 12.3237 28.3014 13.0465 28.1179C13.425 29.2915 15.0281 29.4463 15.6243 28.3699L15.9504 27.7809L16.9505 28.255C17.2823 28.4123 17.6841 28.5136 18.0405 28.4707C18.383 28.4294 18.6827 28.2701 18.8691 27.9364C19.0843 27.648 19.1729 27.3019 19.143 26.9676C19.88 26.8546 20.4016 26.1905 20.3354 25.4483C21.0723 25.3353 21.594 24.6712 21.5278 23.929C22.4467 23.7881 22.9748 22.8211 22.6098 21.9731L23.805 21.4891L23.8048 21.4886L24.1256 21.3436C24.3539 21.7534 24.8612 21.9302 25.297 21.745L27.6106 20.7632C28.0799 20.5641 28.3 20.0171 28.1009 19.5483ZM24.123 8.6516C23.0491 10.7991 20.8106 11.6225 18.6671 10.523C19.0359 10.4222 19.4241 10.3683 19.8248 10.3683C20.0718 10.3683 20.272 10.168 20.272 9.92103C20.272 9.67406 20.0718 9.47378 19.8248 9.47378C19.3851 9.47378 18.9581 9.52769 18.5498 9.62912C19.8831 7.7029 22.1794 7.36892 24.123 8.6516ZM10.1757 10.3683C10.5764 10.3683 10.9646 10.4222 11.3333 10.523C9.18996 11.6225 6.95132 10.7992 5.87754 8.6516C7.82103 7.36892 10.1174 7.7029 11.4507 9.62906C11.0424 9.52763 10.6154 9.47373 10.1757 9.47373C9.92871 9.47373 9.72849 9.674 9.72849 9.92097C9.72849 10.1679 9.92865 10.3683 10.1757 10.3683ZM15.0002 2.39349C16.7698 3.9621 17.0125 6.30474 15.4475 8.08845V6.49716C15.4475 6.25013 15.2472 6.04992 15.0002 6.04992C14.7533 6.04992 14.553 6.25019 14.553 6.49716V8.08845C12.988 6.3048 13.2306 3.96216 15.0002 2.39349ZM5.0973 20.9052L5.05693 20.9256L2.73937 19.942L2.71904 19.9017L5.49035 13.3713L5.4897 13.371L5.53072 13.3509L7.84828 14.3344L7.86867 14.3748L5.0973 20.9052ZM9.77631 25.1298C9.70752 25.2537 9.59349 25.3386 9.46523 25.3754C9.00416 25.5078 8.65207 25.0137 8.86623 24.6269L9.8264 22.8933C9.89519 22.7692 10.0093 22.6842 10.1377 22.6473C10.5986 22.5149 10.952 23.0126 10.7368 23.3955L10.3825 24.0351L9.77631 25.1298ZM11.466 26.0651C11.3972 26.1893 11.2832 26.2743 11.1548 26.3112C10.9994 26.3558 10.8735 26.3308 10.7358 26.255C10.5218 26.1372 10.4248 25.8029 10.5436 25.5861L10.5739 25.5302L11.516 23.8291C11.5847 23.7049 11.6988 23.62 11.8272 23.5831C12.2842 23.4519 12.642 23.9419 12.4262 24.3316L11.466 26.0651ZM13.155 27.0017C13.0861 27.1254 12.9723 27.2101 12.8443 27.2468C12.3832 27.3793 12.0311 26.8851 12.2452 26.4984L13.2054 24.7648C13.2742 24.6407 13.3883 24.5557 13.5166 24.5188C13.9736 24.3876 14.3315 24.8776 14.1157 25.2673L13.155 27.0017ZM15.8174 26.1795L14.8624 27.9053C14.8506 27.9228 14.8402 27.9412 14.831 27.9605C14.7613 28.0717 14.6538 28.1481 14.5338 28.1826C14.3784 28.2272 14.2525 28.2022 14.1147 28.1263C13.8988 28.0075 13.8041 27.6689 13.9225 27.4575L14.8949 25.7004C14.9637 25.5763 15.0778 25.4913 15.2061 25.4544C15.3615 25.4098 15.4874 25.4348 15.6251 25.5106C15.8409 25.6294 15.9358 25.9679 15.8174 26.1795ZM20.9941 22.9424C20.8001 22.79 20.5194 22.8237 20.3669 23.0176C20.2145 23.2114 20.2481 23.4922 20.4421 23.6448C20.5539 23.7326 20.6197 23.8584 20.6356 23.9902C20.6922 24.4602 20.1543 24.7386 19.8018 24.4617C19.6078 24.3093 19.327 24.3429 19.1746 24.5368C19.0222 24.7308 19.0557 25.0116 19.2496 25.164C19.3615 25.2518 19.4273 25.3776 19.4432 25.5094C19.4998 25.9795 18.9619 26.2578 18.6093 25.9809C18.4153 25.8285 18.1345 25.8621 17.9821 26.056C17.8407 26.2359 17.8594 26.4903 18.0174 26.648L18.017 26.6484C18.0339 26.6652 18.0517 26.6804 18.0702 26.6939C18.2766 26.8554 18.3156 27.1961 18.155 27.3994C18.0775 27.4976 18.0902 27.5645 17.9357 27.5831C17.7566 27.6047 17.5303 27.5422 17.3313 27.4478L16.3836 26.9986L16.5844 26.6362C17.1839 25.5384 16.1852 24.2837 15.0039 24.5834C14.7751 23.8737 14.0353 23.4647 13.3144 23.6477C13.0856 22.9379 12.3459 22.5291 11.6249 22.7119C11.3912 21.9872 10.6246 21.5776 9.89308 21.7876C9.51222 21.8969 9.22787 22.1338 9.02537 22.4993C8.02963 21.786 7.20392 21.1977 6.22605 20.5296L8.29007 15.6659C9.13763 16.0298 10.0334 16.4251 10.9105 16.5148C11.3357 16.5582 11.6224 16.4447 11.9435 16.3175C12.9252 15.9286 13.6013 15.9231 14.2307 16.1067L11.4768 18.2901C10.9955 18.6717 11.0326 19.4147 11.5428 19.7527C12.3414 20.2816 13.1317 20.423 13.9114 20.2779C14.6584 20.1389 15.3772 19.7345 16.0717 19.1584C16.0905 19.1582 16.1182 19.1643 16.151 19.1746L18.9786 20.0633L21.6099 22.1054C21.7331 22.2088 21.8078 22.3036 21.828 22.4708C21.8843 22.9382 21.3485 23.2206 20.9941 22.9424ZM23.4649 20.6628L21.9803 21.264L19.46 19.308C19.4167 19.2746 19.3693 19.2504 19.3201 19.2351L19.3202 19.2347L16.4167 18.3221C16.1053 18.2242 15.7741 18.2477 15.509 18.4681C14.426 19.3685 13.2805 19.8309 12.0357 19.0086L12.0325 18.9891L15.5235 16.2213C15.7939 16.0217 15.7796 16.0464 16.1139 16.0083V16.0085C17.0819 15.8981 17.9089 16.5186 18.5036 16.5167C18.9629 16.5152 19.5704 16.2435 20.2909 15.9212C20.6936 15.7411 21.1347 15.5437 21.5875 15.3763L23.7719 20.5239C23.6668 20.5694 23.5641 20.6155 23.4649 20.6628ZM27.2686 19.9377L24.9436 20.9256L24.9032 20.9052L22.1319 14.3749L22.1523 14.3345L24.4659 13.3527L24.5109 13.371L24.5102 13.3713L27.2669 19.8675C27.2743 19.8866 27.2952 19.9225 27.2686 19.9377Z" fill="white"/>
</svg>
