<svg width="40" height="40" viewBox="0 0 40 40" fill="none" xmlns="http://www.w3.org/2000/svg">
<g clip-path="url(#clip0_302_641)">
<path d="M37.2946 21.4554C37.0314 21.1921 36.719 20.9833 36.375 20.8408C36.0311 20.6983 35.6625 20.625 35.2902 20.625C34.918 20.625 34.5494 20.6983 34.2054 20.8408C33.8615 20.9833 33.549 21.1921 33.2858 21.4554L28.4336 26.3076C28.2207 25.9136 27.9056 25.5841 27.5213 25.354C27.1371 25.1239 26.6979 25.0016 26.25 25H19.1522C18.5412 24.2605 17.7824 23.6568 16.9244 23.2276C16.0665 22.7984 15.1283 22.5532 14.1701 22.5077C13.2119 22.4622 12.2547 22.6175 11.36 22.9634C10.4652 23.3094 9.65266 23.8385 8.97433 24.5169L6.25002 27.2412L5.4419 26.4331C5.38388 26.3751 5.31499 26.329 5.23917 26.2976C5.16335 26.2662 5.08208 26.25 5 26.25C4.91793 26.25 4.83666 26.2662 4.76084 26.2976C4.68502 26.329 4.61613 26.3751 4.55811 26.4331L2.05811 28.9331C2.00006 28.9911 1.95401 29.06 1.92259 29.1359C1.89117 29.2117 1.875 29.2929 1.875 29.375C1.875 29.4571 1.89117 29.5384 1.92259 29.6142C1.95401 29.69 2.00006 29.7589 2.05811 29.8169L12.0581 39.8169C12.1161 39.875 12.185 39.921 12.2608 39.9524C12.3367 39.9838 12.4179 40 12.5 40C12.5821 40 12.6633 39.9838 12.7392 39.9524C12.815 39.921 12.8839 39.875 12.9419 39.8169L15.4419 37.3169C15.4999 37.2589 15.546 37.19 15.5774 37.1142C15.6088 37.0384 15.625 36.9571 15.625 36.875C15.625 36.7929 15.6088 36.7117 15.5774 36.6359C15.546 36.56 15.4999 36.4911 15.4419 36.4331L14.6338 35.625L15.3348 34.924C15.6873 34.5737 16.1636 34.3765 16.6605 34.375H25.795C26.6162 34.3773 27.4296 34.2167 28.1882 33.9024C28.9468 33.5882 29.6356 33.1265 30.2146 32.5443L37.2946 25.4642C37.5579 25.201 37.7667 24.8885 37.9092 24.5446C38.0517 24.2007 38.125 23.832 38.125 23.4598C38.125 23.0875 38.0517 22.7189 37.9092 22.375C37.7667 22.0311 37.5579 21.7186 37.2946 21.4554ZM12.5 38.4912L3.38381 29.375L5.00002 27.7588L14.1162 36.875L12.5 38.4912ZM36.4108 24.5804L29.3308 31.6605C28.8675 32.1262 28.3165 32.4955 27.7096 32.7469C27.1027 32.9983 26.4519 33.1268 25.795 33.125H16.6605C16.25 33.1239 15.8433 33.2042 15.4641 33.3613C15.0848 33.5184 14.7405 33.7492 14.451 34.0402L13.75 34.7412L7.13381 28.125L9.85815 25.4007C10.4206 24.8383 11.0957 24.4013 11.8391 24.1185C12.5825 23.8356 13.3773 23.7133 14.1714 23.7595C14.9654 23.8058 15.7407 24.0196 16.4462 24.3869C17.1517 24.7542 17.7715 25.2666 18.2648 25.8905L18.361 26.0123C18.4194 26.0864 18.4939 26.1463 18.5788 26.1875C18.6638 26.2286 18.7569 26.25 18.8513 26.25H26.25C26.5815 26.25 26.8995 26.3817 27.1339 26.6161C27.3683 26.8505 27.5 27.1685 27.5 27.5C27.5 27.8315 27.3683 28.1495 27.1339 28.3839C26.8995 28.6183 26.5815 28.75 26.25 28.75H17.5C17.3343 28.75 17.1753 28.8158 17.0581 28.9331C16.9409 29.0503 16.875 29.2092 16.875 29.375C16.875 29.5408 16.9409 29.6997 17.0581 29.8169C17.1753 29.9342 17.3343 30 17.5 30H26.25C26.8614 29.9981 27.4508 29.7717 27.9062 29.3639C28.3617 28.9562 28.6516 28.3953 28.7209 27.7879L34.1697 22.3391C34.4715 22.0509 34.8729 21.8901 35.2903 21.8901C35.7077 21.8901 36.109 22.0509 36.4109 22.3391C36.558 22.4863 36.6748 22.661 36.7544 22.8533C36.8341 23.0456 36.875 23.2516 36.875 23.4597C36.875 23.6679 36.8341 23.8739 36.7544 24.0662C36.6748 24.2585 36.558 24.4332 36.4108 24.5804Z" fill="white"/>
<path d="M12.34 12.7361C12.3313 12.7484 12.3181 12.7553 12.3102 12.7683C12.3081 12.7717 12.3083 12.7756 12.3063 12.7791C10.4054 15.1933 9.37284 18.1773 9.375 21.2501C9.375 21.3523 9.37563 21.4539 9.38263 21.5558C9.39363 21.7136 9.464 21.8613 9.57958 21.9693C9.69516 22.0772 9.84735 22.1373 10.0055 22.1375C10.0201 22.1375 10.0348 22.1369 10.0494 22.136C10.1313 22.1303 10.2113 22.1085 10.2848 22.072C10.3582 22.0354 10.4238 21.9847 10.4776 21.9228C10.5315 21.8608 10.5727 21.7889 10.5987 21.7111C10.6248 21.6333 10.6353 21.551 10.6296 21.4692C10.6244 21.3959 10.625 21.323 10.625 21.2501C10.6256 18.6231 11.4593 16.0639 13.0062 13.9407C14.7738 15.0948 15.8083 16.2098 15.8508 17.0405C15.7855 17.8306 15.5359 18.5944 15.1221 19.2707C14.9381 19.6506 14.7449 20.0504 14.5667 20.4786C14.5351 20.5544 14.5188 20.6356 14.5187 20.7177C14.5185 20.7998 14.5346 20.8811 14.5659 20.957C14.629 21.1102 14.7505 21.2321 14.9036 21.2958C14.9794 21.3274 15.0606 21.3437 15.1427 21.3438C15.2248 21.344 15.3061 21.3279 15.382 21.2966C15.5353 21.2334 15.6571 21.112 15.7208 20.9589C15.8896 20.5536 16.073 20.1752 16.2473 19.8154C16.7662 18.9553 17.0592 17.978 17.099 16.9742C17.0344 15.7136 15.9147 14.3657 13.7926 12.963C14.7495 11.8798 15.8861 10.9697 17.1523 10.2728C18.3697 12.6449 19.8344 13.8969 21.4337 13.8969C21.5501 13.8969 21.6663 13.8903 21.7819 13.8773C22.89 13.8068 23.9476 13.3884 24.8041 12.6819C25.3543 12.2565 25.5823 12.0807 26.8439 12.5214C28.0222 12.9316 29.2643 12.4173 30.3896 11.0827C31.3637 11.7805 32.2324 12.6146 32.9692 13.5595C32.2169 14.363 31.6249 15.3027 31.225 16.3282C30.6919 17.4921 30.3314 18.209 29.6686 18.2712C29.2381 18.298 28.8062 18.2962 28.3759 18.2657C26.7267 18.1846 24.6756 18.0884 23.2105 20.9687C22.8782 21.6177 22.655 22.3169 22.5498 23.0384C22.5268 23.2025 22.5699 23.3691 22.6698 23.5014C22.7696 23.6337 22.9179 23.721 23.082 23.7439C23.111 23.7481 23.1403 23.7501 23.1696 23.7501C23.3201 23.7499 23.4656 23.6953 23.5792 23.5964C23.6927 23.4975 23.7667 23.3609 23.7875 23.2117C23.8725 22.6264 24.0544 22.0592 24.3256 21.5336C25.423 19.376 26.7011 19.4391 28.3163 19.5142C28.8048 19.5484 29.2951 19.549 29.7836 19.516C31.2012 19.3824 31.7911 18.0942 32.3615 16.8485C32.6845 16.0312 33.137 15.2712 33.7015 14.5977C34.5374 15.9205 35.1152 17.3896 35.4044 18.9274C35.4194 19.0081 35.4501 19.0851 35.4949 19.1539C35.5397 19.2227 35.5976 19.2821 35.6653 19.3285C35.733 19.375 35.8092 19.4076 35.8896 19.4246C35.9699 19.4416 36.0528 19.4426 36.1335 19.4275C36.2143 19.4124 36.2912 19.3816 36.36 19.3367C36.4288 19.2919 36.4881 19.2339 36.5345 19.1662C36.5809 19.0984 36.6135 19.0222 36.6304 18.9418C36.6473 18.8615 36.6482 18.7786 36.633 18.6979C36.0576 15.6571 34.4724 12.8997 32.1341 10.8723C29.7959 8.84497 26.8416 7.66648 23.75 7.52778V6.83721C23.7501 6.48718 23.8485 6.14421 24.0342 5.84746C24.2198 5.55071 24.4851 5.31212 24.7998 5.15893C25.1476 5.5641 25.5788 5.88934 26.0639 6.11238C26.549 6.33541 27.0765 6.45098 27.6105 6.45116C28.1168 6.44683 28.6187 6.35664 29.0948 6.18444C29.892 5.9054 30.6481 5.52049 31.3428 5.04005C31.6435 4.77013 32.0135 4.5893 32.4112 4.51783C32.809 4.44635 33.2188 4.48706 33.5947 4.63539C33.7212 4.66786 33.8548 4.65983 33.9766 4.61243C34.0984 4.56503 34.2023 4.48065 34.2737 4.37114C34.345 4.26163 34.3802 4.13252 34.3744 4.00195C34.3685 3.87139 34.3219 3.74595 34.241 3.64326C34.1071 3.47295 30.9247 -0.513561 27.8613 0.0568142C24.9044 0.607964 24.558 2.40144 24.4139 3.95677C23.9011 4.17401 23.456 4.52483 23.125 4.97266C22.794 4.52475 22.3489 4.17386 21.8361 3.95658C21.6919 2.4013 21.3455 0.607927 18.3887 0.0568142C15.325 -0.516611 12.1429 3.47326 12.009 3.64324C11.9281 3.74592 11.8815 3.87137 11.8756 4.00193C11.8698 4.13249 11.905 4.26161 11.9763 4.37111C12.0477 4.48062 12.1516 4.56501 12.2734 4.61241C12.3952 4.65981 12.5287 4.66784 12.6553 4.63536C13.0312 4.48695 13.441 4.4462 13.8388 4.51767C14.2365 4.58915 14.6065 4.77003 14.9072 5.04003C15.6019 5.52047 16.358 5.90538 17.1552 6.18443C17.6313 6.3568 18.1332 6.44699 18.6395 6.45115C19.1735 6.45094 19.701 6.33536 20.1862 6.11231C20.6713 5.88926 21.1025 5.56402 21.4502 5.15885C21.7649 5.31206 22.0302 5.55066 22.2159 5.84743C22.4015 6.14419 22.5 6.48717 22.5 6.83721V7.51592C20.5307 7.60422 18.6036 8.11629 16.8503 9.01717C15.0969 9.91806 13.5585 11.1866 12.34 12.7361ZM28.0902 1.28545C29.4595 1.02819 31.0965 2.21746 32.211 3.28221C31.646 3.39962 31.1149 3.64322 30.6574 3.9948C30.0472 4.41917 29.3824 4.75887 28.681 5.00463C28.2485 5.19334 27.7721 5.25842 27.3048 5.19263C26.8375 5.12685 26.3976 4.93277 26.0339 4.63197L27.6859 3.93865C27.7618 3.90704 27.8307 3.86076 27.8887 3.80246C27.9466 3.74416 27.9926 3.675 28.0238 3.59893C28.055 3.52285 28.0709 3.44137 28.0705 3.35915C28.0702 3.27692 28.0536 3.19557 28.0218 3.11977C27.9899 3.04396 27.9434 2.97517 27.885 2.91736C27.8265 2.85955 27.7572 2.81385 27.681 2.78287C27.6049 2.75189 27.5233 2.73625 27.4411 2.73684C27.3589 2.73743 27.2776 2.75424 27.2019 2.7863L25.7381 3.40073C25.9118 2.33163 26.3507 1.60985 28.0902 1.28545ZM17.569 5.00463C16.8676 4.75887 16.2028 4.41916 15.5927 3.9948C15.1347 3.64269 14.6029 3.39896 14.0372 3.28193C15.1498 2.21686 16.7819 1.02943 18.1598 1.28546C19.8993 1.60979 20.3381 2.33171 20.5118 3.40064L19.0482 2.7863C18.9725 2.75452 18.8913 2.73796 18.8092 2.73755C18.7272 2.73714 18.6458 2.75291 18.5699 2.78394C18.4939 2.81497 18.4248 2.86066 18.3665 2.9184C18.3081 2.97614 18.2618 3.04481 18.23 3.12047C18.1982 3.19613 18.1816 3.27732 18.1812 3.35938C18.1808 3.44145 18.1966 3.52279 18.2276 3.59877C18.2587 3.67474 18.3043 3.74386 18.3621 3.80218C18.4198 3.86049 18.4885 3.90687 18.5642 3.93865L20.2163 4.632C19.8526 4.93262 19.4126 5.12657 18.9453 5.19235C18.478 5.25812 18.0016 5.19315 17.569 5.00463ZM27.2558 11.341C25.487 10.7239 24.8337 11.0795 24.0396 11.6929C23.3636 12.2574 22.5231 12.5879 21.6437 12.6349C20.1629 12.8047 18.971 11.0875 18.27 9.73177C20.0412 8.9851 21.9607 8.65693 23.8793 8.77279C25.7979 8.88864 27.6639 9.44539 29.3324 10.3998C28.7907 11.0096 28.0267 11.6103 27.2558 11.341Z" fill="white"/>
</g>
<defs>
<clipPath id="clip0_302_641">
<rect width="40" height="40" fill="white"/>
</clipPath>
</defs>
</svg>
