<svg width="51" height="51" viewBox="0 0 51 51" fill="none" xmlns="http://www.w3.org/2000/svg">
<path d="M25.0543 48.7996C12.4778 48.7996 2.24316 38.565 2.24316 25.9884C2.24316 25.5702 2.58533 25.228 3.00354 25.228H47.1051C47.5233 25.228 47.8655 25.5702 47.8655 25.9884C47.8655 38.565 37.6309 48.7996 25.0543 48.7996ZM3.77912 26.7488C4.18211 38.1391 13.5727 47.2788 25.0543 47.2788C36.5359 47.2788 45.9265 38.1391 46.3295 26.7488H3.77912Z" fill="#8EC73D"/>
<path d="M45.6765 15.5334C45.7526 15.2521 45.7906 14.9632 45.7906 14.6666C45.7906 12.9938 44.574 11.5871 42.962 11.2754C42.635 9.69378 41.2055 8.5 39.5023 8.5C37.7991 8.5 36.3696 9.69378 36.0426 11.2754C35.3355 11.4198 34.6739 11.7696 34.1721 12.2943C33.8831 12.5984 33.8907 13.0774 34.1949 13.3664C34.499 13.6553 34.9781 13.6477 35.267 13.3436C35.6396 12.9482 36.1719 12.7277 36.7269 12.7277C37.1451 12.7277 37.4873 12.3855 37.4873 11.9673C37.4873 10.8952 38.3845 10.0207 39.4947 10.0207C40.6048 10.0207 41.5021 10.8952 41.5021 11.9673C41.5021 12.3855 41.8442 12.7277 42.2624 12.7277C43.365 12.7277 44.2622 13.5945 44.2622 14.6666C44.2622 15.0012 44.1634 15.3357 43.9733 15.6627C43.844 15.8832 43.8288 16.1569 43.9505 16.3927C44.0721 16.6284 44.2926 16.7805 44.5512 16.8033C45.5701 16.9097 46.338 17.7309 46.338 18.7194C46.338 19.7915 45.4408 20.666 44.3307 20.666C43.6007 20.666 42.9316 20.2706 42.5742 19.6318C42.4373 19.3885 42.1864 19.2441 41.9127 19.2441C41.6389 19.2441 41.3804 19.3961 41.2511 19.6395C40.9014 20.2706 40.2323 20.666 39.5023 20.666C38.7723 20.666 38.0956 20.2706 37.7534 19.6395C37.6166 19.3961 37.3656 19.2441 37.0843 19.2441C36.803 19.2441 36.552 19.3961 36.4152 19.6395C36.3544 19.7535 36.2783 19.86 36.1871 19.9512C35.8981 20.2554 35.9133 20.742 36.2175 21.0233C36.438 21.2362 36.7574 21.2819 37.0311 21.1754C37.0919 21.2362 37.1603 21.2743 37.2212 21.3275V22.9395C37.2212 23.3577 37.5633 23.6998 37.9816 23.6998C38.3998 23.6998 38.7419 23.3577 38.7419 22.9395V22.0879C38.9928 22.1411 39.2438 22.1791 39.5023 22.1791C39.7608 22.1791 40.0117 22.1411 40.2627 22.0879V22.9395C40.2627 23.3577 40.6048 23.6998 41.023 23.6998C41.4412 23.6998 41.7834 23.3577 41.7834 22.9395V21.3275C41.829 21.2895 41.8823 21.259 41.9203 21.221C42.5666 21.8293 43.4258 22.1791 44.3383 22.1791C46.2848 22.1791 47.8664 20.6279 47.8664 18.7118C47.8664 17.2823 46.9768 16.0429 45.6765 15.5258V15.5334Z" fill="#8EC73D"/>
<path d="M32.2707 14.18C32.3924 13.7922 32.4532 13.3892 32.4532 12.9786C32.4532 10.9408 30.9933 9.23755 29.0771 8.90298C28.7502 6.94883 27.0697 5.4585 25.0548 5.4585C23.0398 5.4585 21.3594 6.94883 21.0324 8.90298C19.1163 9.24515 17.6563 10.9408 17.6563 12.9786C17.6563 13.3816 17.7172 13.7846 17.8388 14.18C16.2649 14.7655 15.1699 16.2862 15.1699 18.0503C15.1699 20.3314 17.0024 22.1867 19.2455 22.1867C20.3557 22.1867 21.3898 21.7229 22.1501 20.9397C22.3402 21.1374 22.5455 21.3199 22.7736 21.4719V22.9547C22.7736 23.3729 23.1158 23.715 23.534 23.715C23.9522 23.715 24.2944 23.3729 24.2944 22.9547V22.1182C24.5453 22.1639 24.7962 22.1943 25.0548 22.1943C25.3133 22.1943 25.5642 22.1639 25.8151 22.1182V22.9547C25.8151 23.3729 26.1573 23.715 26.5755 23.715C26.9937 23.715 27.3359 23.3729 27.3359 22.9547V21.4719C27.5564 21.3199 27.7693 21.1374 27.9594 20.9397C28.7121 21.7305 29.7539 22.1867 30.864 22.1867C33.1147 22.1867 34.9396 20.3314 34.9396 18.0503C34.9396 16.2862 33.8447 14.7655 32.2707 14.18ZM30.864 20.6659C29.9363 20.6659 29.0847 20.1413 28.6285 19.2897C28.4992 19.0387 28.2407 18.8867 27.9594 18.8867C27.678 18.8867 27.4195 19.0387 27.2903 19.2897C26.8416 20.1337 25.9824 20.6659 25.0548 20.6659C24.1271 20.6659 23.2755 20.1413 22.8193 19.2897C22.5531 18.7954 21.7395 18.7954 21.481 19.2897C21.0324 20.1337 20.1732 20.6659 19.2455 20.6659C17.8388 20.6659 16.6907 19.495 16.6907 18.0503C16.6907 16.7196 17.6715 15.6019 18.9794 15.465C19.2379 15.4346 19.4584 15.2825 19.5801 15.0544C19.6941 14.8263 19.6865 14.5525 19.5573 14.3244C19.3063 13.8986 19.1847 13.45 19.1847 12.9862C19.1847 11.5415 20.3328 10.3705 21.7395 10.3705C22.1577 10.3705 22.4999 10.0283 22.4999 9.61013C22.4999 8.16542 23.6481 6.99445 25.0548 6.99445C26.4614 6.99445 27.6096 8.16542 27.6096 9.61013C27.6096 10.0283 27.9518 10.3705 28.37 10.3705C29.7843 10.3705 30.9248 11.5415 30.9248 12.9862C30.9248 13.45 30.7956 13.9062 30.5522 14.3244C30.423 14.5449 30.4154 14.8187 30.5294 15.0544C30.6435 15.2825 30.8716 15.4422 31.1301 15.465C32.438 15.6095 33.4189 16.7196 33.4189 18.0503C33.4189 19.495 32.2707 20.6659 30.864 20.6659Z" fill="#8EC73D"/>
<path d="M15.9306 12.2943C15.4288 11.7696 14.7749 11.4198 14.0601 11.2754C13.7332 9.69378 12.3037 8.5 10.6004 8.5C8.89719 8.5 7.46769 9.69378 7.14073 11.2754C5.52874 11.5947 4.31214 12.9938 4.31214 14.6666C4.31214 14.9556 4.35016 15.2445 4.4262 15.5334C3.12596 16.0505 2.23633 17.2899 2.23633 18.7194C2.23633 20.6279 3.8179 22.1867 5.76445 22.1867C6.6769 22.1867 7.53612 21.8369 8.18244 21.2286C8.22806 21.2666 8.27368 21.2971 8.3193 21.3351V22.9471C8.3193 23.3653 8.66147 23.7074 9.07968 23.7074C9.49788 23.7074 9.84005 23.3653 9.84005 22.9471V22.0955C10.091 22.1487 10.3419 22.1867 10.6004 22.1867C10.8589 22.1867 11.1099 22.1487 11.3608 22.0955V22.9471C11.3608 23.3653 11.703 23.7074 12.1212 23.7074C12.5394 23.7074 12.8815 23.3653 12.8815 22.9471V21.3351C12.9424 21.2819 13.0108 21.2362 13.0716 21.183C13.3378 21.2895 13.6571 21.2438 13.8852 21.0309C14.1894 20.742 14.2046 20.263 13.9156 19.9588C13.8244 19.8676 13.7484 19.7611 13.6875 19.6471C13.5507 19.4037 13.2997 19.2517 13.0184 19.2517C12.7371 19.2517 12.4861 19.4037 12.3493 19.6471C11.9995 20.2782 11.3304 20.6736 10.6004 20.6736C9.87046 20.6736 9.19373 20.2782 8.85157 19.6471C8.7223 19.4037 8.46378 19.2517 8.19004 19.2517C7.91631 19.2517 7.65778 19.4037 7.52852 19.6395C7.17114 20.2782 6.50202 20.6736 5.77206 20.6736C4.66191 20.6736 3.76468 19.7991 3.76468 18.727C3.76468 17.7461 4.53265 16.9173 5.55155 16.8109C5.81008 16.7805 6.03819 16.6284 6.15224 16.4003C6.2663 16.1722 6.2587 15.8908 6.12943 15.6703C5.93934 15.351 5.84049 15.0088 5.84049 14.6742C5.84049 13.6021 6.73773 12.7353 7.84027 12.7353C8.25848 12.7353 8.60064 12.3931 8.60064 11.9749C8.60064 10.9028 9.49788 10.0283 10.608 10.0283C11.7182 10.0283 12.6154 10.9028 12.6154 11.9749C12.6154 12.3931 12.9576 12.7353 13.3758 12.7353C13.9309 12.7353 14.4555 12.9634 14.8357 13.3512C15.1246 13.6553 15.6113 13.6629 15.9078 13.374C16.212 13.085 16.2196 12.5984 15.9306 12.3019V12.2943Z" fill="#8EC73D"/>
<path d="M40.2622 6.21911C39.9352 6.21911 39.6463 6.01381 39.5398 5.70966C39.3649 5.20781 39.1216 4.88846 38.8023 4.7668C38.3308 4.58431 37.7225 4.83523 37.5781 4.91127C37.2055 5.11657 36.7493 4.9797 36.544 4.61472C36.3387 4.24975 36.4755 3.78592 36.8405 3.58062C36.9698 3.50458 38.1483 2.88868 39.3421 3.3449C39.6159 3.45135 39.9428 3.63384 40.247 3.9608C40.5511 3.63384 40.8781 3.44375 41.1518 3.3449C42.3456 2.88108 43.5242 3.50458 43.6534 3.58062C44.0184 3.78592 44.1553 4.24214 43.95 4.61472C43.7523 4.9797 43.2885 5.11657 42.9235 4.91127C42.7334 4.81242 42.1479 4.59191 41.6917 4.7668C41.3799 4.88846 41.1366 5.20781 40.9617 5.70966C40.8553 6.01381 40.5663 6.21911 40.2394 6.21911H40.2622Z" fill="#8EC73D"/>
<path d="M9.84714 6.21911C9.52018 6.21911 9.23124 6.01381 9.12479 5.70966C8.94991 5.20781 8.70659 4.88846 8.38723 4.7668C7.9158 4.58431 7.3075 4.83523 7.16303 4.91127C6.79045 5.11657 6.33423 4.9797 6.12893 4.61472C5.92362 4.24975 6.06049 3.78592 6.42547 3.58062C6.55473 3.50458 7.73331 2.88868 8.92709 3.3449C9.20083 3.45135 9.52779 3.63384 9.83194 3.9608C10.1361 3.63384 10.463 3.44375 10.7368 3.3449C11.9306 2.88108 13.1091 3.50458 13.2384 3.58062C13.6034 3.78592 13.7403 4.24214 13.5349 4.61472C13.3373 4.9797 12.8734 5.11657 12.5084 4.91127C12.3184 4.81242 11.7329 4.59191 11.2766 4.7668C10.9649 4.88846 10.7216 5.20781 10.5467 5.70966C10.4402 6.01381 10.1513 6.21911 9.82433 6.21911H9.84714Z" fill="#8EC73D"/>
<path d="M20.637 45.2411C20.4773 45.2411 20.3252 45.1955 20.1884 45.0966C19.8462 44.8457 19.7778 44.3743 20.0287 44.0321C21.6863 41.7738 24.7734 40.9906 26.4614 40.7245C29.8299 40.1846 31.1453 38.8235 31.1453 35.8733C31.1453 33.691 31.8601 32.0182 33.1527 31.1666C34.567 30.2313 36.5516 30.3074 39.0456 31.3719C40.1101 31.8205 41.3799 31.8585 42.8246 31.4631C43.2961 31.3339 43.7903 31.7141 43.7903 32.2007C43.7903 32.5733 43.5242 32.8774 43.1744 32.9459C41.4104 33.4097 39.8212 33.3565 38.4525 32.771C36.4831 31.927 34.9396 31.8129 33.9891 32.4364C32.841 33.1968 32.6661 34.9152 32.6661 35.8733C32.6661 40.7169 29.2596 41.8194 26.7048 42.23C25.5262 42.4125 22.6444 43.0512 21.2605 44.9293C21.1084 45.1346 20.8803 45.2411 20.6446 45.2411H20.637Z" fill="#8EC73D"/>
<path d="M15.7779 39.3026C15.0404 39.3026 14.3028 39.1505 13.6185 38.8464C12.6376 38.3977 11.5427 38.3445 10.6074 38.7095C10.2196 38.8616 9.7786 38.6715 9.62652 38.2761C9.47445 37.8883 9.66454 37.4473 10.0599 37.2952C11.3754 36.7782 12.9037 36.839 14.2572 37.4625C15.6867 38.1164 17.58 37.7362 18.5533 36.5957C19.4657 35.5235 19.3897 34.0712 18.3328 32.4973C17.6408 31.4479 17.177 30.3378 16.9489 29.182C16.8653 28.7714 17.139 28.3684 17.5496 28.2924C17.9602 28.2088 18.3632 28.4825 18.4392 28.8931C18.6293 29.8512 19.0171 30.7864 19.595 31.6608C21.6404 34.7251 20.3554 36.8314 19.7015 37.5917C18.751 38.7019 17.2607 39.3178 15.7703 39.3178L15.7779 39.3026Z" fill="#8EC73D"/>
</svg>
