<svg width="36" height="37" viewBox="0 0 36 37" fill="none" xmlns="http://www.w3.org/2000/svg">
<g clip-path="url(#clip0_351_19703)">
<path d="M28.8249 9.34714C28.6701 9.15374 28.3994 9.07639 28.1286 9.19242L27.123 9.57921L24.0287 2.73312C23.9127 2.50105 23.7193 2.38501 23.4872 2.38501H13.4308C13.2374 2.38501 13.0827 2.46237 12.9667 2.61708L7.28093 9.42449C7.1649 9.54053 7.12622 9.73392 7.16489 9.88864C7.20357 10.0433 7.28093 10.1981 7.39697 10.3141L13.0827 14.5301C13.3535 14.7234 13.7402 14.6848 13.9336 14.414L17.6468 9.38582L19.426 12.5575L18.3043 13.1376C18.0722 13.2537 17.9562 13.4857 17.9949 13.7178C18.0336 13.9499 18.1883 14.1819 18.459 14.2206L24.8023 15.7678C24.841 15.7678 24.8796 15.7678 24.957 15.7678C25.1504 15.7678 25.3438 15.6517 25.4598 15.497L28.8635 10.0434C29.0182 9.81128 28.9796 9.54053 28.8249 9.34714ZM13.3148 13.1763L8.63468 9.69524L13.7402 3.58404H14.5525L17.0666 8.26414L13.3148 13.1763ZM24.6089 14.5301L20.3156 13.4857L20.5477 13.3697C20.7024 13.2923 20.8184 13.1763 20.8571 13.0216C20.8958 12.8669 20.8958 12.7122 20.8184 12.5575L18.2656 7.99339L15.8676 3.54536H23.0618L26.2334 10.5848C26.3494 10.8169 26.6202 10.9716 26.8522 10.933L24.6089 14.5301Z" fill="white"/>
<path d="M15.4424 24.9732L9.17647 24.7025L10.801 21.4535L11.884 22.0724C12.116 22.1884 12.3868 22.1884 12.5802 21.995C12.7736 21.8403 12.8509 21.5695 12.7349 21.3375L10.4529 15.2263C10.3755 14.9942 10.1434 14.8395 9.87268 14.8395L3.41338 15.0715C3.14263 15.0715 2.94923 15.2649 2.87188 15.497C2.79452 15.7291 2.91056 15.9998 3.10395 16.1545L3.99355 16.7734L0.0870266 23.194C-0.0290089 23.3874 -0.0290089 23.6582 0.0870266 23.8516L4.41902 30.2335L6.08219 32.7476C6.19823 32.9023 6.39162 33.0184 6.58501 33.0184H15.4037C15.7518 33.0184 16.0226 32.7476 16.0226 32.3995V25.5921C16.0226 25.2827 15.7518 25.0119 15.4424 24.9732ZM5.3473 29.4599L1.32474 23.5035L5.38598 16.9281C5.54069 16.696 5.50201 16.4253 5.30862 16.2319L9.52458 16.0385L11.0717 20.2158L10.8396 20.0998C10.6849 20.0224 10.5302 19.9837 10.3755 20.0611C10.2208 20.0998 10.1048 20.2158 10.0274 20.3705L7.70669 25.0119L5.3473 29.4599ZM14.7849 31.8193H6.89444L6.12087 30.6203L8.59629 25.9015L14.7849 26.1723V31.8193Z" fill="white"/>
<path d="M35.9422 22.9619L32.0744 14.9942C31.997 14.8395 31.881 14.7234 31.7263 14.6848C31.5716 14.6461 31.4169 14.6461 31.2621 14.7621L25.0736 18.2045C24.8028 18.3592 24.6868 18.746 24.8415 19.0167L27.8584 24.4704L24.2227 24.7798L24.184 23.5421C24.184 23.2714 23.9906 23.078 23.7585 23.0006C23.5264 22.9233 23.2557 23.0006 23.101 23.194L19.0784 28.3383C18.9237 28.5317 18.9237 28.8411 19.0397 29.0345L22.6368 34.3721C22.7529 34.5268 22.9463 34.6429 23.1397 34.6429C23.1783 34.6429 23.2557 34.6429 23.2944 34.6042C23.5264 34.5268 23.7198 34.2947 23.7198 34.0627L23.7585 32.9797H31.2621C31.4942 32.9797 31.7263 32.825 31.8036 32.6316L35.9422 23.4648C36.0196 23.3101 36.0196 23.1167 35.9422 22.9619ZM30.9527 31.8193H23.2557C22.9849 31.8193 22.7529 32.0127 22.6755 32.2448L20.3161 28.725L23.0623 25.2053V25.4761C23.0623 25.6308 23.1397 25.7855 23.2557 25.9015C23.3717 26.0175 23.5264 26.0562 23.7198 26.0562L28.9028 25.5921L33.931 25.244L30.9527 31.8193ZM34.4338 23.9676L29.1348 24.3544L26.1566 18.9394L31.2621 16.0772L34.7819 23.2327L34.4338 23.9676Z" fill="white"/>
</g>
<defs>
<clipPath id="clip0_351_19703">
<rect width="36" height="36" fill="white" transform="translate(0 0.513916)"/>
</clipPath>
</defs>
</svg>
