<svg width="40" height="41" viewBox="0 0 40 41" fill="none" xmlns="http://www.w3.org/2000/svg">
<g clip-path="url(#clip0_301_485)">
<path d="M32.028 10.7922C31.8561 10.5773 31.5553 10.4914 31.2545 10.6203L30.1371 11.0501L26.699 3.4433C26.5701 3.18545 26.3552 3.05652 26.0973 3.05652H14.9236C14.7087 3.05652 14.5368 3.14247 14.4078 3.31438L8.09036 10.8782C7.96143 11.0071 7.91845 11.222 7.96143 11.3939C8.0044 11.5658 8.09036 11.7377 8.21929 11.8666L14.5368 16.551C14.8376 16.7659 15.2674 16.7229 15.4822 16.4221L19.608 10.8352L21.5849 14.3592L20.3385 15.0039C20.0807 15.1328 19.9518 15.3907 19.9947 15.6485C20.0377 15.9064 20.2096 16.1642 20.5104 16.2072L27.5585 17.9262C27.6015 17.9262 27.6445 17.9262 27.7304 17.9262C27.9453 17.9262 28.1602 17.7973 28.2891 17.6254L32.071 11.5658C32.2429 11.3079 32.1999 11.0071 32.028 10.7922ZM14.7946 15.0468L9.59452 11.179L15.2674 4.38878H16.1699L18.9633 9.58888L14.7946 15.0468ZM27.3436 16.551L22.5733 15.3907L22.8312 15.2617C23.0031 15.1758 23.132 15.0468 23.175 14.8749C23.2179 14.703 23.2179 14.5311 23.132 14.3592L20.2956 9.28805L17.6311 4.3458H25.6246L29.1486 12.1675C29.2776 12.4253 29.5784 12.5972 29.8363 12.5542L27.3436 16.551Z" fill="white"/>
<path d="M17.1582 28.1546L10.1961 27.8537L12.0011 24.2438L13.2044 24.9314C13.4623 25.0603 13.7631 25.0603 13.978 24.8454C14.1929 24.6735 14.2788 24.3727 14.1499 24.1148L11.6143 17.3246C11.5283 17.0667 11.2705 16.8948 10.9696 16.8948L3.79264 17.1527C3.49181 17.1527 3.27693 17.3676 3.19097 17.6254C3.10502 17.8833 3.23395 18.1841 3.44883 18.356L4.43728 19.0436L0.0966962 26.1777C-0.0322321 26.3926 -0.0322321 26.6934 0.0966962 26.9083L4.91002 33.9993L6.75799 36.7928C6.88692 36.9647 7.1018 37.0936 7.31668 37.0936H17.1152C17.502 37.0936 17.8028 36.7928 17.8028 36.406V28.8422C17.8028 28.4984 17.502 28.1975 17.1582 28.1546ZM5.94144 33.1398L1.47193 26.5215L5.98442 19.2155C6.15633 18.9577 6.11335 18.6569 5.89847 18.442L10.5829 18.2271L12.3019 22.8685L12.0441 22.7396C11.8721 22.6536 11.7002 22.6107 11.5283 22.6966C11.3564 22.7396 11.2275 22.8685 11.1416 23.0404L8.56299 28.1976L5.94144 33.1398ZM16.4276 35.7613H7.66049L6.80097 34.4291L9.55144 29.186L16.4276 29.4868V35.7613Z" fill="white"/>
<path d="M39.935 25.9198L35.6373 17.0667C35.5514 16.8948 35.4225 16.7659 35.2506 16.7229C35.0787 16.6799 34.9068 16.6799 34.7348 16.8089L27.8587 20.6337C27.5578 20.8056 27.4289 21.2354 27.6008 21.5362L30.953 27.5959L26.9132 27.9397L26.8702 26.5644C26.8702 26.2636 26.6553 26.0487 26.3975 25.9628C26.1396 25.8768 25.8388 25.9628 25.6669 26.1776L21.1974 31.8935C21.0255 32.1083 21.0255 32.4522 21.1544 32.667L25.1512 38.5977C25.2801 38.7696 25.495 38.8986 25.7099 38.8986C25.7528 38.8986 25.8388 38.8986 25.8818 38.8556C26.1396 38.7696 26.3545 38.5118 26.3545 38.2539L26.3975 37.0506H34.7348C34.9927 37.0506 35.2506 36.8787 35.3365 36.6638L39.935 26.4785C40.0209 26.3066 40.0209 26.0917 39.935 25.9198ZM34.391 35.7613H25.8388C25.538 35.7613 25.2801 35.9762 25.1942 36.2341L22.5726 32.3232L25.6239 28.4124V28.7132C25.6239 28.8851 25.7099 29.057 25.8388 29.186C25.9677 29.3149 26.1396 29.3579 26.3545 29.3579L32.1133 28.8422L37.7002 28.4554L34.391 35.7613ZM38.2589 27.0372L32.3712 27.4669L29.062 21.4503L34.7348 18.27L38.6457 26.2206L38.2589 27.0372Z" fill="white"/>
</g>
<defs>
<clipPath id="clip0_301_485">
<rect width="40" height="40" fill="white" transform="translate(0 0.977539)"/>
</clipPath>
</defs>
</svg>
