<svg width="40" height="41" viewBox="0 0 40 41" fill="none" xmlns="http://www.w3.org/2000/svg">
<path fill-rule="evenodd" clip-rule="evenodd" d="M37.4685 26.7332L33.7758 18.0313L33.7749 18.0317C33.5078 17.405 32.7819 17.1116 32.1559 17.3775L29.0711 18.6866C28.53 18.9163 28.229 19.4982 28.3435 20.0657C27.7165 20.2988 27.1179 20.5665 26.5706 20.8114C25.7333 21.1859 25.0274 21.5017 24.6721 21.5028C24.2892 21.5041 22.9119 20.6517 21.3507 20.8299V20.8302C21.0061 20.8695 20.8149 20.8864 20.5974 20.9725V20.3296C20.5974 18.1942 21.7496 16.2908 23.5253 15.2684C27.2749 17.8028 31.696 16.4189 33.4571 12.2357C33.5686 11.971 33.4739 11.6712 33.2459 11.5151C32.3664 10.8525 31.3979 10.3858 30.3958 10.1562C28.3477 9.6869 26.2974 10.2365 24.7585 11.6669C24.0234 12.3501 23.4292 13.2121 23.0014 14.1942C22.9525 14.2482 21.645 14.8541 20.5974 16.4114V13.1067C23.0467 11.0646 23.9555 7.90409 22.4381 5.03917C21.9539 4.12479 21.2485 3.30628 20.3766 2.62714C20.1672 2.45635 19.8606 2.44542 19.6377 2.61768C15.9995 5.43456 15.8638 10.1543 19.4047 13.1067V16.4114C18.3571 14.8542 17.0495 14.2482 17.0007 14.1942C16.5729 13.2122 15.9788 12.3502 15.2437 11.667C13.7047 10.2366 11.6545 9.68698 9.60635 10.1563C8.60424 10.3859 7.63573 10.8526 6.75627 11.5152C6.52823 11.6713 6.43354 11.9711 6.54502 12.2357C8.30604 16.4192 12.7274 17.8029 16.4769 15.2685C18.2525 16.291 19.4048 18.1942 19.4048 20.3297V21.0278C18.5705 20.7619 17.5664 20.6095 15.9132 21.1605C15.4668 21.3092 15.0413 21.5433 14.6692 21.5053C13.6874 21.4049 12.5658 20.9086 11.5197 20.4599L11.5848 20.3066C11.8506 19.6815 11.5566 18.9521 10.931 18.6867L7.84627 17.3776C7.22026 17.1117 6.4944 17.4051 6.22721 18.0317L6.22635 18.0314L2.53346 26.7332C2.26776 27.3582 2.56166 28.0876 3.18721 28.3531L6.27197 29.6621C6.84362 29.9052 7.50854 29.6809 7.81979 29.1516L11.4549 31.7147L10.7835 32.9271C9.98549 34.3679 11.3008 36.0675 12.8907 35.6641C13.196 36.6106 14.1798 37.1562 15.1434 36.9117C15.4485 37.858 16.4322 38.4039 17.396 38.1593C17.9006 39.7242 20.0381 39.9305 20.833 38.4953L21.2679 37.71L22.6014 38.3421C23.0438 38.5518 23.5794 38.687 24.0547 38.6297C24.5114 38.5746 24.911 38.3622 25.1594 37.9174C25.4464 37.5328 25.5645 37.0713 25.5246 36.6256C26.5073 36.4749 27.2028 35.5895 27.1145 34.5999C28.0971 34.4492 28.7927 33.5638 28.7043 32.5742C29.9296 32.3863 30.6337 31.097 30.1471 29.9663L31.7406 29.321L31.7403 29.3203L32.1681 29.1269C32.4725 29.6733 33.1489 29.909 33.73 29.6621L36.8148 28.3531C37.4405 28.0875 37.734 27.3583 37.4685 26.7332ZM32.1646 12.2042C30.7328 15.0676 27.7481 16.1654 24.8902 14.6995C25.3818 14.565 25.8994 14.4932 26.4337 14.4932C26.7631 14.4932 27.03 14.2261 27.03 13.8968C27.03 13.5675 26.763 13.3005 26.4337 13.3005C25.8474 13.3005 25.2781 13.3724 24.7337 13.5076C26.5115 10.9393 29.5732 10.494 32.1646 12.2042ZM13.5682 14.4932C14.1025 14.4932 14.6201 14.565 15.1117 14.6995C12.2539 16.1654 9.26908 15.0677 7.83737 12.2042C10.4287 10.494 13.4905 10.9393 15.2682 13.5075C14.7239 13.3723 14.1545 13.3004 13.5683 13.3004C13.2389 13.3004 12.972 13.5674 12.972 13.8967C12.972 14.226 13.2388 14.4932 13.5682 14.4932ZM20.001 3.8601C22.3604 5.95159 22.684 9.0751 20.5973 11.4534V9.33167C20.5973 9.00229 20.3303 8.73534 20.001 8.73534C19.6717 8.73534 19.4046 9.00237 19.4046 9.33167V11.4534C17.318 9.07518 17.6415 5.95167 20.001 3.8601ZM6.79705 28.5424L6.74323 28.5696L3.65315 27.2582L3.62604 27.2044L7.32112 18.4971L7.32026 18.4967L7.37494 18.4699L10.465 19.7814L10.4922 19.8352L6.79705 28.5424ZM13.0357 34.1752C12.944 34.3404 12.792 34.4535 12.621 34.5027C12.0062 34.6792 11.5367 34.0203 11.8223 33.5047L13.1025 31.1932C13.1942 31.0277 13.3463 30.9144 13.5175 30.8652C14.1321 30.6887 14.6034 31.3523 14.3163 31.8628L13.844 32.7156L13.0357 34.1752ZM15.2887 35.4223C15.197 35.5878 15.0449 35.7012 14.8737 35.7503C14.6665 35.8098 14.4987 35.7765 14.315 35.6754C14.0297 35.5184 13.9003 35.0727 14.0588 34.7836L14.0992 34.709L15.3553 32.4409C15.447 32.2753 15.5991 32.1621 15.7703 32.1129C16.3796 31.938 16.8567 32.5913 16.5689 33.1109L15.2887 35.4223ZM17.5406 36.6711C17.4488 36.836 17.2971 36.9489 17.1264 36.9979C16.5116 37.1745 16.0421 36.5156 16.3276 36L17.6078 33.6885C17.6996 33.523 17.8517 33.4097 18.0228 33.3606C18.6321 33.1856 19.1093 33.8389 18.8216 34.3585L17.5406 36.6711ZM21.0905 35.5748L19.8171 37.8758C19.8015 37.8992 19.7875 37.9238 19.7753 37.9494C19.6824 38.0977 19.539 38.1996 19.379 38.2456C19.1719 38.305 19.0039 38.2717 18.8203 38.1706C18.5324 38.0121 18.4061 37.5606 18.564 37.2788L19.8605 34.936C19.9522 34.7705 20.1043 34.6572 20.2755 34.608C20.4827 34.5485 20.6505 34.5818 20.8342 34.6829C21.1219 34.8414 21.2484 35.2926 21.0905 35.5748ZM27.9928 31.2586C27.7342 31.0555 27.3598 31.1003 27.1566 31.3589C26.9533 31.6174 26.9981 31.9917 27.2567 32.1952C27.4058 32.3123 27.4936 32.4799 27.5148 32.6557C27.5903 33.2824 26.873 33.6535 26.403 33.2844C26.1444 33.0811 25.7699 33.126 25.5667 33.3846C25.3635 33.6432 25.4083 34.0175 25.6668 34.2208C25.816 34.3379 25.9038 34.5056 25.9249 34.6814C26.0004 35.3082 25.2831 35.6792 24.813 35.31C24.5544 35.1067 24.1799 35.1516 23.9767 35.4102C23.7883 35.6499 23.8131 35.9892 24.0239 36.1994L24.0234 36.1999C24.0458 36.2224 24.0696 36.2426 24.0943 36.2607C24.3695 36.476 24.4214 36.9303 24.2074 37.2013C24.1039 37.3323 24.121 37.4214 23.9149 37.4463C23.6761 37.475 23.3744 37.3917 23.1091 37.2659L21.8455 36.6669L22.1131 36.1837C22.9125 34.72 21.5809 33.0471 20.0059 33.4467C19.7007 32.5003 18.7143 31.9551 17.7532 32.199C17.4481 31.2527 16.4618 30.7076 15.5006 30.9514C15.1889 29.985 14.1668 29.4389 13.1914 29.7189C12.6836 29.8647 12.3045 30.1805 12.0345 30.6679C10.7068 29.7167 9.60588 28.9324 8.30205 28.0416L11.0541 21.5566C12.1842 22.0419 13.3785 22.5689 14.548 22.6885C15.1149 22.7464 15.4972 22.595 15.9253 22.4254C17.2342 21.907 18.1357 21.8996 18.9749 22.1444L15.303 25.0557C14.6614 25.5644 14.7108 26.5551 15.3911 27.0057C16.4558 27.711 17.5096 27.8994 18.5492 27.706C19.5452 27.5206 20.5035 26.9815 21.4296 26.2133C21.4547 26.213 21.4916 26.2211 21.5353 26.2349L25.3054 27.4198L28.8139 30.1427C28.9781 30.2806 29.0778 30.407 29.1046 30.6298C29.1797 31.253 28.4653 31.6296 27.9928 31.2586ZM31.2872 28.2192L29.3077 29.0208L25.9473 26.4128C25.8896 26.3683 25.8264 26.336 25.7607 26.3157L25.761 26.315L21.8896 25.0982C21.4744 24.9677 21.0328 24.9991 20.6793 25.2929C19.2353 26.4935 17.708 27.1099 16.0482 26.0135L16.0439 25.9876L20.6986 22.2972C21.0592 22.031 21.0402 22.064 21.4859 22.0132V22.0135C22.7766 21.8662 23.8792 22.6935 24.6721 22.691C25.2846 22.6891 26.0946 22.3267 27.0552 21.8971C27.5921 21.6569 28.1803 21.3938 28.784 21.1706L31.6966 28.034C31.5564 28.0947 31.4195 28.1561 31.2872 28.2192ZM36.3589 27.2524L33.2588 28.5696L33.2049 28.5424L29.5099 19.8353L29.5371 19.7814L32.6218 18.4724L32.6818 18.4968L32.681 18.4972L36.3566 27.1588C36.3663 27.1842 36.3943 27.2321 36.3589 27.2524Z" fill="white"/>
</svg>
