<svg width="60" height="61" viewBox="0 0 60 61" fill="none" xmlns="http://www.w3.org/2000/svg">
<g clip-path="url(#clip0_234_18408)">
<path d="M48.0421 15.7095C47.7842 15.3872 47.333 15.2583 46.8817 15.4516L45.2056 16.0963L40.0485 4.68613C39.8551 4.29935 39.5328 4.10596 39.146 4.10596H22.3853C22.063 4.10596 21.8052 4.23489 21.6118 4.49274L12.1355 15.8384C11.9421 16.0318 11.8777 16.3541 11.9421 16.612C12.0066 16.8699 12.1355 17.1277 12.3289 17.3211L21.8052 24.3477C22.2564 24.67 22.901 24.6056 23.2234 24.1543L29.4119 15.774L32.3773 21.06L30.5078 22.027C30.121 22.2204 29.9276 22.6072 29.9921 22.9939C30.0566 23.3807 30.3144 23.7675 30.7657 23.832L41.3378 26.4105C41.4023 26.4105 41.4667 26.4105 41.5957 26.4105C41.918 26.4105 42.2403 26.2172 42.4337 25.9593L48.1065 16.8699C48.3644 16.4831 48.2999 16.0318 48.0421 15.7095ZM22.1919 22.0915L14.3918 16.2897L22.901 6.10435H24.2548L28.445 13.9045L22.1919 22.0915ZM41.0155 24.3477L33.86 22.6072L34.2467 22.4138C34.5046 22.2848 34.698 22.0915 34.7625 21.8336C34.8269 21.5757 34.8269 21.3179 34.698 21.06L30.4434 13.4533L26.4466 6.03988H38.4369L43.723 17.7724C43.9164 18.1591 44.3676 18.417 44.7544 18.3525L41.0155 24.3477Z" fill="#8EC73D"/>
<path d="M25.7373 41.7529L15.2941 41.3016L18.0016 35.8867L19.8066 36.9181C20.1934 37.1115 20.6446 37.1115 20.967 36.7891C21.2893 36.5313 21.4182 36.08 21.2248 35.6933L17.4214 25.5079C17.2925 25.1211 16.9057 24.8633 16.4545 24.8633L5.68896 25.2501C5.23771 25.2501 4.91539 25.5724 4.78646 25.9592C4.65753 26.346 4.85093 26.7972 5.17325 27.0551L6.65592 28.0865L0.145044 38.7875C-0.0483481 39.1099 -0.0483481 39.5611 0.145044 39.8834L7.36503 50.52L10.137 54.7102C10.3304 54.968 10.6527 55.1614 10.975 55.1614H25.6728C26.253 55.1614 26.7043 54.7102 26.7043 54.13V42.7843C26.7043 42.2686 26.253 41.8174 25.7373 41.7529ZM8.91217 49.2307L2.2079 39.3033L8.97663 28.3443C9.23449 27.9576 9.17002 27.5063 8.8477 27.184L15.8743 26.8617L18.4529 33.8238L18.0661 33.6304C17.8082 33.5015 17.5504 33.437 17.2925 33.5659C17.0346 33.6304 16.8413 33.8238 16.7123 34.0817L12.8445 41.8174L8.91217 49.2307ZM24.6414 53.163H11.4907L10.2015 51.1647L14.3272 43.3L24.6414 43.7513V53.163Z" fill="#8EC73D"/>
<path d="M59.9034 38.4008L53.457 25.1212C53.3281 24.8633 53.1347 24.6699 52.8768 24.6054C52.619 24.541 52.3611 24.541 52.1032 24.7344L41.789 30.4717C41.3377 30.7295 41.1443 31.3742 41.4022 31.8254L46.4304 40.9149L40.3708 41.4306L40.3063 39.3677C40.3063 38.9165 39.984 38.5942 39.5972 38.4652C39.2104 38.3363 38.7592 38.4652 38.5013 38.7876L31.797 47.3613C31.5392 47.6836 31.5392 48.1993 31.7326 48.5216L37.7277 57.4177C37.9211 57.6756 38.2435 57.8689 38.5658 57.8689C38.6302 57.8689 38.7592 57.8689 38.8236 57.8045C39.2104 57.6755 39.5327 57.2888 39.5327 56.902L39.5972 55.097H52.1032C52.49 55.097 52.8768 54.8391 53.0057 54.5168L59.9034 39.2388C60.0323 38.981 60.0323 38.6586 59.9034 38.4008ZM51.5875 53.1631H38.7592C38.3079 53.1631 37.9211 53.4854 37.7922 53.8722L33.8599 48.0059L38.4368 42.1397V42.5909C38.4368 42.8488 38.5658 43.1067 38.7592 43.3C38.9526 43.4934 39.2104 43.5579 39.5327 43.5579L48.1709 42.7843L56.5513 42.2042L51.5875 53.1631ZM57.3893 40.0768L48.5577 40.7215L43.594 31.6965L52.1032 26.9262L57.9695 38.852L57.3893 40.0768Z" fill="#8EC73D"/>
</g>
<defs>
<clipPath id="clip0_234_18408">
<rect width="60" height="60" fill="white" transform="translate(0 0.987305)"/>
</clipPath>
</defs>
</svg>
