<svg width="30" height="30" viewBox="0 0 30 30" fill="none" xmlns="http://www.w3.org/2000/svg">
<path fill-rule="evenodd" clip-rule="evenodd" d="M7.96236 5.55945C9.81244 3.84193 12.3202 2.98047 15 2.98047C17.6798 2.98047 20.1876 3.84193 22.0376 5.55945C23.9015 7.28979 25 9.79943 25 12.89C25 15.2908 23.6716 17.9183 22.1963 20.1447C20.6854 22.4248 18.8596 24.5175 17.5689 25.8972C16.1681 27.3945 13.8319 27.3945 12.4311 25.8972C11.1404 24.5175 9.31459 22.4248 7.8037 20.1447C6.32839 17.9183 5 15.2908 5 12.89C5 9.79943 6.09847 7.28979 7.96236 5.55945ZM12.5 11.7305C12.5 10.3498 13.6193 9.23047 15 9.23047C16.3807 9.23047 17.5 10.3498 17.5 11.7305C17.5 13.1112 16.3807 14.2305 15 14.2305C13.6193 14.2305 12.5 13.1112 12.5 11.7305ZM15 6.73047C12.2386 6.73047 10 8.96904 10 11.7305C10 14.4919 12.2386 16.7305 15 16.7305C17.7614 16.7305 20 14.4919 20 11.7305C20 8.96904 17.7614 6.73047 15 6.73047Z" fill="white"/>
</svg>
