<svg width="37" height="37" viewBox="0 0 37 37" fill="none" xmlns="http://www.w3.org/2000/svg">
<path d="M4.41354 9.34398C2.96679 9.34398 1.79004 10.5241 1.79004 11.9742V19.9865C1.79004 22.3029 2.49654 24.5185 3.83248 26.3928L6.87335 30.6723H6.7046C6.39354 30.6723 6.1421 30.9243 6.1421 31.2348V34.7071C6.1421 35.0176 6.39354 35.2696 6.7046 35.2696H15.7063C16.0174 35.2696 16.2688 35.0176 16.2688 34.7071V31.2348C16.2688 30.9243 16.0174 30.6723 15.7063 30.6723H15.308L15.3069 25.6745C15.294 25.4484 15.2681 25.2352 15.2355 25.0293C16.2727 25.3179 17.3449 25.4647 18.4355 25.4647C19.2079 25.4647 19.9762 25.3915 20.7204 25.2475C20.7322 25.2459 20.7446 25.2442 20.7564 25.2419C21.0562 25.1829 21.3487 25.112 21.6395 25.0304C21.6047 25.2459 21.5765 25.4686 21.563 25.706V30.6723H21.1648C20.8537 30.6723 20.6023 30.9243 20.6023 31.2348V34.7071C20.6023 35.0176 20.8537 35.2696 21.1648 35.2696H30.1665C30.4775 35.2696 30.729 35.0176 30.729 34.7071V31.2348C30.729 30.9243 30.4775 30.6723 30.1665 30.6723H29.9977L33.038 26.3934C34.3745 24.518 35.081 22.3023 35.081 19.9859V11.9737C35.081 10.5235 33.9043 9.34342 32.4575 9.34342C31.7589 9.34342 31.1008 9.61679 30.6041 10.1135C30.3937 10.3239 30.2329 10.5685 30.1063 10.829C29.7536 9.27817 29.1135 7.84323 28.1938 6.56467C28.1887 6.55679 28.1876 6.54779 28.182 6.53992C28.1769 6.53317 28.169 6.53036 28.1634 6.52361C25.9241 3.38936 22.2915 1.51904 18.4367 1.51904C18.1796 1.51904 17.9287 1.54154 17.6756 1.55786C17.643 1.55842 17.6109 1.55673 17.5794 1.56292C12.275 1.94148 7.92129 5.78167 6.77098 10.8369C6.64385 10.5736 6.48185 10.3267 6.26923 10.114C5.77254 9.61736 5.11441 9.34398 4.41579 9.34398H4.41354ZM15.1432 34.1446H7.26654V31.7973H7.95448C7.95729 31.7973 7.96066 31.7984 7.96348 31.7984H14.745C14.745 31.7984 14.7484 31.7973 14.7506 31.7973H15.1432V34.1446ZM14.8541 23.7265C14.084 22.0036 12.5225 21.2937 11.4988 21.008C10.7096 20.792 10.0037 20.2717 9.50979 19.5399L8.85054 18.574C8.69641 18.2866 8.5586 17.9829 8.42866 17.6718C8.83929 17.5677 9.22854 17.5447 9.58966 17.6139C10.11 17.7117 10.4717 17.9626 10.8913 18.2534C11.4853 18.6652 12.1586 19.132 13.346 19.2282C14.2022 19.2985 14.7804 19.1298 15.29 18.9813C15.8222 18.826 16.2424 18.7017 16.9691 18.8722C17.4062 18.9655 18.7039 19.4122 18.9187 20.2115C18.9862 20.4595 18.9266 20.6328 18.795 20.9692C18.7016 21.2082 18.5958 21.4788 18.557 21.8107C18.4558 22.6122 18.7584 23.4279 19.4739 24.2851C17.9259 24.4302 16.3295 24.244 14.8535 23.7277L14.8541 23.7265ZM7.03648 17.1307C7.04435 17.1554 7.05166 17.1802 7.05954 17.2049C7.05166 17.2044 7.04435 17.201 7.03648 17.2004V17.1307ZM29.6023 34.1446H21.7256V31.7973H22.1182C22.1182 31.7973 22.1216 31.7984 22.1238 31.7984H28.9053C28.9087 31.7984 28.9115 31.7973 28.9144 31.7973H29.6023V34.1446ZM30.738 19.6321L29.9145 20.9787C28.6627 23.027 28.0369 24.1201 28.0369 24.2581C28.0369 24.5686 28.2883 24.8206 28.5994 24.8206C28.8305 24.8206 29.0297 24.6805 29.1157 24.4809C29.2102 24.307 29.8312 23.2715 30.8735 21.5665L31.6976 20.2188C32.2635 19.2952 31.9811 18.0768 31.0631 17.5008C31.0282 17.4794 30.9928 17.4592 30.9574 17.4395V11.9742C30.9574 11.572 31.1137 11.194 31.3978 10.9094C31.6819 10.6254 32.0576 10.469 32.4559 10.469C33.2822 10.469 33.9544 11.144 33.9544 11.9742V19.9865C33.9544 22.0672 33.3199 24.0567 32.1195 25.7414L28.6157 30.6729H22.6869L22.6858 25.7386C22.8197 23.3767 24.3829 22.4525 25.667 22.0942C26.7155 21.8073 27.6476 21.125 28.2889 20.1749L29.2991 18.6939C29.4949 18.4002 29.8909 18.2619 30.2244 18.3468C30.2289 18.3479 30.2329 18.349 30.2368 18.3507C30.3229 18.3783 30.3982 18.4132 30.4697 18.457C30.8702 18.7085 30.9883 19.2249 30.7385 19.6327L30.738 19.6321ZM29.8324 17.1498V17.2004C29.8256 17.201 29.82 17.2038 29.8132 17.2044C29.8194 17.1858 29.8262 17.1678 29.8324 17.1498ZM29.1377 11.7954C29.226 12.359 29.2822 12.9277 29.2822 13.493C29.2822 15.2587 28.8452 17.0148 28.0189 18.574L27.3579 19.5432C27.0283 20.0315 26.5974 20.4157 26.1148 20.6879C25.7812 20.32 25.6125 19.978 25.6288 19.6659C25.6417 19.3233 25.8679 18.9352 26.067 18.5926C26.3578 18.0937 26.6868 17.5278 26.2999 17.0019C25.9848 16.5845 25.4994 16.6351 25.1794 16.6677C24.902 16.6953 24.7254 16.706 24.5887 16.6177C24.4144 16.5018 24.267 16.2234 24.2017 15.8915C24.1174 15.4561 24.1843 15.01 24.3767 14.7277C24.5055 14.5392 24.6506 14.4819 24.9673 14.3694C25.3273 14.2417 25.82 14.0673 26.3105 13.543C26.747 13.0762 26.8905 12.6481 26.9951 12.3354C27.0592 12.143 27.0997 12.0305 27.1695 11.9467C27.3191 11.7695 27.7815 11.536 29.1388 11.7959L29.1377 11.7954ZM26.9304 6.76154C25.9697 7.39773 25.1107 7.65592 24.3727 7.52317C24.2029 7.49392 24.0324 7.44442 23.8597 7.39604C23.2826 7.23404 22.562 7.03154 21.8179 7.42304C21.0956 7.80498 20.8779 8.46029 20.6867 9.03854C20.5258 9.52398 20.3869 9.94361 19.974 10.2367C19.2371 10.762 18.1537 10.6029 18.0277 10.465C18.0339 10.3666 18.2134 10.0882 18.3444 9.88454C18.7247 9.29561 19.2455 8.48898 19.1854 7.36623C19.1482 6.65467 18.8945 6.22773 18.6504 5.81429C18.5165 5.58817 18.3782 5.35417 18.2617 5.04592C17.999 4.36248 17.9692 3.55754 18.1459 2.65923C18.2426 2.65642 18.3371 2.64461 18.4344 2.64461C21.7504 2.64461 24.8835 4.17348 26.9304 6.76098V6.76154ZM16.9781 2.75486C16.8279 3.74317 16.9027 4.64823 17.2104 5.44754C17.3612 5.84411 17.5316 6.13267 17.6824 6.38748C17.8972 6.75029 18.0395 6.98992 18.062 7.42586C18.1025 8.18523 17.729 8.76404 17.3994 9.27479C17.0692 9.78667 16.6952 10.3666 17.0372 10.9741C17.2279 11.3077 17.5946 11.5428 18.0986 11.6536C18.3107 11.7003 18.5323 11.7228 18.7562 11.7228C19.4239 11.7228 20.1101 11.5209 20.6265 11.1535C21.3386 10.6467 21.5692 9.95092 21.7543 9.39236C21.9242 8.87879 22.0355 8.58067 22.3415 8.41867C22.674 8.24373 23.0188 8.32811 23.5549 8.47942C23.7647 8.53792 23.9728 8.59586 24.1764 8.63129C25.2075 8.81523 26.3516 8.49742 27.5734 7.68461C28.1555 8.59023 28.5954 9.57011 28.8823 10.6164C27.6437 10.4521 26.7915 10.6479 26.306 11.2233C26.0951 11.4759 26.0057 11.7425 25.9269 11.9782C25.8358 12.251 25.7565 12.4867 25.4876 12.7752C25.1844 13.0992 24.9099 13.1965 24.591 13.3096C24.2327 13.4367 23.7866 13.5942 23.4463 14.0949C23.0852 14.6242 22.9547 15.3768 23.097 16.1075C23.2207 16.7425 23.5363 17.2696 23.9694 17.5587C24.4234 17.8546 24.8953 17.8282 25.2266 17.795C25.1827 17.8754 25.1338 17.9592 25.0939 18.0279C24.8413 18.4615 24.5269 19.001 24.5038 19.6169C24.4779 20.1209 24.6523 20.6249 25.0151 21.1216C24.0172 21.4625 22.7094 22.1892 22.0204 23.7265C21.6227 23.8677 21.2233 23.9825 20.8155 24.0742C19.9852 23.2698 19.5971 22.556 19.6742 21.9485C19.6967 21.755 19.7647 21.5812 19.8435 21.3798C19.9903 21.0035 20.1725 20.5355 20.0049 19.9195C19.569 18.2967 17.3004 17.7944 17.2149 17.7759C16.2109 17.5413 15.5533 17.7331 14.9739 17.9035C14.5177 18.0369 14.0874 18.1629 13.4389 18.1094C12.5512 18.0374 12.0793 17.71 11.532 17.3309C11.0735 17.0131 10.5538 16.6525 9.79948 16.5108C9.24485 16.405 8.65816 16.4382 8.0501 16.6075C7.7486 15.6069 7.58604 14.564 7.58604 13.4941C7.58604 8.00748 11.6844 3.47092 16.9781 2.75598V2.75486ZM6.61573 18.3547C6.62023 18.3535 6.62473 18.3524 6.62866 18.3513C6.71585 18.3288 6.79235 18.3181 6.86154 18.3181C7.14898 18.3181 7.41335 18.4587 7.57366 18.6984L8.57885 20.1721C9.22235 21.1244 10.1539 21.8067 11.1995 22.093C12.2002 22.3726 13.3646 22.997 13.8973 24.3549C13.8973 24.356 13.8984 24.3571 13.8984 24.3582C14.0497 24.7458 14.1527 25.1896 14.1825 25.7065V30.6729H8.25373L4.74935 25.7409C3.54954 24.0573 2.91504 22.0677 2.91504 19.987V11.9748C2.91504 11.1445 3.58723 10.4695 4.41354 10.4695C4.81179 10.4695 5.18754 10.6259 5.4716 10.91C5.75566 11.194 5.91204 11.572 5.91204 11.9748V17.44C5.87491 17.4603 5.83779 17.4817 5.80123 17.5042C4.88829 18.0774 4.60591 19.2957 5.17123 20.2188L5.99473 21.566C7.0376 23.2726 7.65916 24.3082 7.75366 24.482C7.83973 24.6817 8.03885 24.8217 8.27004 24.8217C8.5811 24.8217 8.83254 24.5697 8.83254 24.2592C8.83254 24.1212 8.20629 23.0275 6.95379 20.9782L6.13085 19.6327C5.88166 19.2249 5.99979 18.709 6.39523 18.4604C6.47341 18.4126 6.55104 18.3772 6.61629 18.3558L6.61573 18.3547Z" fill="white"/>
<path d="M9.66764 15.7816C9.80771 15.8491 9.93989 15.8761 10.0665 15.8761C10.3876 15.8761 10.6689 15.6978 10.9248 15.5347C11.2005 15.3598 11.543 15.1421 12.0881 14.9621C12.695 14.7618 13.1512 14.7421 13.5168 14.7269C13.991 14.7067 14.481 14.6859 14.8038 14.201C15.192 13.6183 14.9 13.0096 14.6649 12.5203C14.4545 12.0826 14.2374 11.6304 14.3476 11.1213C14.4444 10.673 14.7498 10.3861 15.0451 10.1083C15.3978 9.77751 15.836 9.3652 15.6926 8.72563C15.462 7.69176 13.9314 7.40488 13.0393 7.32613C12.6292 7.29013 10.5643 7.17032 10.1165 8.33976C9.95508 8.76276 10.1098 9.09576 10.2127 9.31626C10.2796 9.46082 10.3376 9.5857 10.3511 9.77301C10.3747 10.1066 10.2386 10.3057 9.9292 10.7248C9.71658 11.0122 9.45277 11.3694 9.24127 11.8559C8.62308 13.2791 8.67483 15.3041 9.66764 15.7816ZM10.2729 12.3048C10.4332 11.9358 10.6368 11.6602 10.8337 11.3936C11.174 10.9323 11.5267 10.4553 11.4727 9.6937C11.4446 9.29938 11.3175 9.02488 11.2325 8.8432C11.2117 8.79763 11.1836 8.73801 11.1718 8.73801C11.1701 8.73801 11.169 8.73913 11.1678 8.74138C11.2365 8.56588 12.0105 8.36563 12.9403 8.4472C13.9696 8.53832 14.5653 8.83701 14.5974 8.94107C14.5726 9.00913 14.3938 9.17732 14.2751 9.28926C13.9134 9.62901 13.4184 10.0936 13.248 10.8845C13.0567 11.7704 13.4004 12.4859 13.6513 13.0079C13.7435 13.2003 13.8836 13.4917 13.8881 13.562C13.8335 13.5873 13.6321 13.5963 13.4701 13.6031C13.0573 13.6205 12.492 13.6447 11.736 13.8939C11.0581 14.1178 10.6149 14.399 10.3218 14.5852C10.2549 14.6279 10.1784 14.6763 10.1182 14.7112C9.93652 14.3979 9.84202 13.2976 10.2729 12.3048Z" fill="white"/>
</svg>
