<svg width="40" height="40" viewBox="0 0 40 40" fill="none" xmlns="http://www.w3.org/2000/svg">
<path d="M20 37.5C17.5277 37.5 15.111 36.7669 13.0554 35.3934C10.9998 34.0199 9.39761 32.0676 8.45151 29.7835C7.50542 27.4995 7.25787 24.9861 7.74019 22.5614C8.2225 20.1366 9.41301 17.9093 11.1612 16.1612C12.9093 14.413 15.1366 13.2225 17.5614 12.7402C19.9861 12.2579 22.4995 12.5054 24.7835 13.4515C27.0676 14.3976 29.0199 15.9998 30.3934 18.0554C31.7669 20.111 32.5 22.5277 32.5 25C32.4962 28.314 31.178 31.4913 28.8346 33.8346C26.4913 36.178 23.314 37.4962 20 37.5ZM20 13.75C17.775 13.75 15.5999 14.4098 13.7498 15.646C11.8998 16.8821 10.4578 18.6391 9.60636 20.6948C8.75488 22.7505 8.53209 25.0125 8.96617 27.1948C9.40025 29.3771 10.4717 31.3816 12.0451 32.955C13.6184 34.5283 15.623 35.5998 17.8052 36.0338C19.9875 36.4679 22.2495 36.2451 24.3052 35.3937C26.3609 34.5422 28.1179 33.1002 29.354 31.2502C30.5902 29.4001 31.25 27.225 31.25 25C31.2467 22.0173 30.0604 19.1578 27.9513 17.0487C25.8422 14.9396 22.9827 13.7533 20 13.75Z" fill="white"/>
<path d="M20.0003 37.5C17.566 37.4998 15.1846 36.789 13.1486 35.4547C11.1125 34.1203 9.51025 32.2206 8.53851 29.9887C8.47692 29.8476 8.46959 29.6888 8.51792 29.5427C8.56625 29.3966 8.66684 29.2735 8.80038 29.197C9.71308 28.7604 10.738 28.6148 11.7361 28.7802C12.1991 28.8558 12.652 28.9837 13.0861 29.1614C13.2098 29.2081 13.3678 29.2682 13.4679 29.2942C13.4673 29.2548 13.4742 29.1904 13.4798 29.1379C13.4988 28.8136 13.5873 28.4973 13.7392 28.2102C13.9534 27.8759 14.2314 27.5872 14.5572 27.3604C14.8831 27.1337 15.2505 26.9734 15.6383 26.8888C15.9785 26.7868 16.3356 26.7538 16.6887 26.7917C17.0418 26.8297 17.3838 26.9378 17.6946 27.1097C17.8994 27.2489 18.0745 27.4274 18.2097 27.6348C18.3449 27.8423 18.4375 28.0746 18.4821 28.3182C18.6466 28.8942 18.8927 29.4437 19.2128 29.95C19.7036 30.7468 19.9904 30.9312 20.2066 31.0071C20.389 31.0647 20.5839 31.0698 20.7691 31.0218C20.9503 30.9829 21.1356 30.9661 21.3208 30.9718C22.8406 30.9742 24.5251 32.3905 24.9994 34.0655C25.1917 34.7653 25.1864 35.5047 24.9841 36.2017C24.9586 36.295 24.9118 36.3812 24.8473 36.4532C24.7828 36.5253 24.7024 36.5814 24.6124 36.6171C23.1451 37.2016 21.5798 37.5013 20.0003 37.5ZM9.96095 30.0775C11.203 32.5331 13.3019 34.4483 15.8608 35.4608C18.4196 36.4733 21.2608 36.5128 23.8468 35.5718C23.9185 35.1846 23.9016 34.7862 23.7973 34.4064C23.4738 33.265 22.2922 32.2238 21.3187 32.2223H21.3163C21.1947 32.2249 21.0735 32.2369 20.9538 32.2583C20.568 32.3383 20.1678 32.3139 19.7946 32.1875C19.0739 31.8747 18.4897 31.3132 18.1485 30.6055C17.7736 30.0088 17.4836 29.3628 17.287 28.6862C17.1653 28.2901 17.1387 28.237 17.0288 28.168C16.6885 28.0098 16.3012 27.9858 15.9439 28.1005C15.4932 28.1927 15.0941 28.4519 14.8267 28.8263C14.7625 28.9665 14.727 29.1182 14.7223 29.2724C14.7226 29.4788 14.6763 29.6826 14.5869 29.8686C14.4974 30.0546 14.3671 30.218 14.2056 30.3466C13.9668 30.4823 13.6962 30.5522 13.4215 30.5492C13.1468 30.5462 12.8778 30.4704 12.6419 30.3295C12.2914 30.1842 11.9255 30.079 11.5512 30.0162C11.0219 29.9375 10.4826 29.9583 9.96095 30.0775Z" fill="white"/>
<path d="M9.3391 25.1875C8.83581 25.1835 8.33954 25.0691 7.88523 24.8525C7.77143 24.7996 7.67618 24.7138 7.61185 24.6061C7.54752 24.4984 7.5171 24.3738 7.52454 24.2485C7.68687 21.4762 8.7698 18.8373 10.6017 16.7501C12.4336 14.6629 14.9097 13.2468 17.6376 12.7262C17.7941 12.6963 17.9561 12.7273 18.0905 12.8128C18.2249 12.8984 18.3216 13.032 18.3609 13.1864C18.3873 13.2858 18.4075 13.3868 18.4213 13.4888C18.64 15.2933 16.7392 17.1475 14.8969 17.6835C14.3522 17.8321 13.7865 17.8885 13.2232 17.8504C12.7357 17.8342 12.6352 17.8485 12.5387 17.9514C12.4337 18.1086 12.361 18.2851 12.3248 18.4706C12.2886 18.6561 12.2897 18.8469 12.3279 19.032C12.3412 19.2311 12.3943 19.4255 12.484 19.6037C12.5738 19.7819 12.6983 19.9403 12.8503 20.0695C13.0914 20.2179 13.4284 20.1376 13.9151 19.9975C14.4195 19.8529 15.1107 19.6538 15.6097 20.166C15.7625 20.3435 15.8738 20.5528 15.9355 20.7787C15.9972 21.0045 16.0078 21.2414 15.9665 21.4719C15.9137 21.9248 15.7678 22.3619 15.5379 22.7556C15.308 23.1494 14.9992 23.4914 14.6307 23.76C14.1996 24.0413 13.685 24.1661 13.1729 24.1137C12.7159 24.0917 12.2584 24.148 11.8204 24.2801C11.4594 24.384 11.1154 24.5398 10.7992 24.7426C10.4076 25.0134 9.94687 25.1668 9.4711 25.1848C9.42698 25.1865 9.38304 25.1875 9.3391 25.1875ZM8.80873 23.8646C9.00716 23.9192 9.21274 23.9432 9.41841 23.936C9.68518 23.9257 9.94226 23.8333 10.1545 23.6714C10.562 23.4143 11.0035 23.2157 11.4662 23.0812C12.0259 22.9137 12.6096 22.8401 13.1935 22.8636C13.4495 22.9097 13.7135 22.8591 13.9344 22.7217C14.1877 22.5324 14.3916 22.2848 14.5289 22C14.6662 21.7151 14.7329 21.4014 14.7233 21.0854C14.5667 21.1133 14.4121 21.1513 14.2604 21.1989C13.9323 21.339 13.5777 21.4057 13.2211 21.3946C12.8646 21.3835 12.5148 21.2947 12.1962 21.1345C11.8821 20.9113 11.6204 20.6224 11.4292 20.288C11.238 19.9535 11.1219 19.5814 11.089 19.1975C11.0359 18.8207 11.0513 18.4374 11.1344 18.066C9.82558 19.7395 9.01905 21.7505 8.80873 23.8646ZM17.1479 14.1172C15.4094 14.5691 13.8051 15.4323 12.4702 16.6342C12.7334 16.5937 13.0004 16.5825 13.2661 16.601C13.6969 16.6359 14.1306 16.596 14.5479 16.4832C15.6681 16.1573 16.9087 15.1111 17.1479 14.1172Z" fill="white"/>
<path d="M30.4121 31.3358C30.279 31.3358 30.1494 31.2933 30.0422 31.2143C29.481 30.8143 29.0166 30.2936 28.6829 29.6906C28.2909 28.8372 28.1136 27.9009 28.1666 26.9632C28.1863 26.6354 28.1552 26.3065 28.0744 25.9882C27.8469 26.0492 27.6386 26.1669 27.4689 26.3303C27.3418 26.4858 27.2471 26.6652 27.1905 26.8579C27.1338 27.0507 27.1164 27.2528 27.1393 27.4524C27.1685 27.7441 27.1281 28.0386 27.0214 28.3117C26.9147 28.5847 26.7446 28.8286 26.5253 29.0232C26.2958 29.1701 26.0383 29.268 25.7691 29.3107C25.4999 29.3533 25.2247 29.3398 24.961 29.271C24.5604 29.1963 24.1789 29.0419 23.8391 28.817C23.4993 28.5921 23.2081 28.3013 22.9828 27.9618C22.737 27.5268 22.6357 27.0249 22.6935 26.5287C22.734 26.0889 22.6676 25.6458 22.5001 25.2372C22.3265 24.8217 22.0745 24.4437 21.7579 24.1236C21.4111 23.7741 20.9626 23.5434 20.4766 23.4644C19.9743 23.3796 19.5065 23.1536 19.1278 22.8128C17.0327 20.8093 19.4204 15.9625 19.4454 15.9147C19.7167 15.4074 20.0366 14.9276 20.4006 14.4822C20.6682 14.1647 20.9607 13.869 21.2753 13.598L21.3412 13.5392C21.531 13.3688 21.7041 13.1808 21.8581 12.9777C21.9293 12.8852 22.025 12.8146 22.1343 12.7737C22.2435 12.7329 22.3621 12.7234 22.4764 12.7464C24.3976 13.1351 26.2005 13.9701 27.7395 15.1839C29.2785 16.3978 30.5106 17.9565 31.3362 19.7342C32.1619 21.5119 32.558 23.4588 32.4926 25.4178C32.4271 27.3769 31.902 29.293 30.9596 31.0117C30.9169 31.0897 30.858 31.1577 30.7868 31.211C30.7157 31.2644 30.634 31.3019 30.5471 31.3212C30.5028 31.3309 30.4575 31.3358 30.4121 31.3358ZM28.0843 24.7598C28.264 24.7589 28.442 24.7956 28.6068 24.8676C29.3959 25.2137 29.4063 26.0956 29.4167 26.9488C29.3686 27.6874 29.4959 28.4268 29.7884 29.1067C29.9055 29.3245 30.0504 29.5261 30.2193 29.7067C30.9157 28.1931 31.2674 26.5438 31.249 24.8778C31.2306 23.2118 30.8425 21.5707 30.1128 20.0729C29.3831 18.5751 28.33 17.2579 27.0295 16.2165C25.729 15.1751 24.2134 14.4355 22.5923 14.0509C22.4614 14.1986 22.3223 14.3387 22.1754 14.4705L22.1016 14.5355C21.8341 14.7656 21.5854 15.0166 21.3579 15.2863C21.0526 15.6622 20.7835 16.0661 20.554 16.4925C19.9439 17.6617 18.9161 20.8807 19.9919 21.9094C20.2149 22.0953 20.4864 22.2136 20.7744 22.2503C21.4822 22.3815 22.1329 22.726 22.6393 23.2375C23.075 23.6749 23.4207 24.1936 23.6568 24.764C23.8917 25.3362 23.9895 25.9554 23.9424 26.5722C23.8986 26.8257 23.9375 27.0866 24.0535 27.3162C24.3284 27.7002 24.7423 27.9619 25.2071 28.0457C25.3986 28.103 25.6042 28.0918 25.7883 28.014C25.8658 27.9572 25.8799 27.6459 25.8915 27.3957C25.8706 27.0367 25.9229 26.6773 26.0453 26.3393C26.1676 26.0012 26.3574 25.6915 26.6031 25.4291C27.001 25.0362 27.5264 24.7988 28.0843 24.7598Z" fill="white"/>
<path d="M15.2307 11.6848C14.4611 11.6648 13.6978 11.54 12.962 11.3138C11.3306 10.8038 9.88003 9.83575 8.78303 8.52495L8.72291 8.46151C7.34047 6.99283 6.34887 5.20059 5.83903 3.24913C5.81082 3.14217 5.8115 3.02963 5.841 2.92301C5.87051 2.8164 5.92779 2.71952 6.00698 2.64228C6.08618 2.56505 6.18446 2.51021 6.29178 2.48338C6.3991 2.45655 6.51162 2.45869 6.61784 2.48957C7.69497 2.80246 8.80587 2.98444 9.92653 3.03157C10.6457 3.05774 11.3658 3.02446 12.0795 2.93207C12.9897 2.77341 13.9241 2.82509 14.8112 3.08313L14.9165 3.11488C16.2134 3.42463 17.3694 4.1593 18.2005 5.20195C18.802 6.02853 19.1677 7.00296 19.2585 8.0212C19.2641 8.07797 19.262 8.13523 19.2523 8.19145C19.0994 9.21115 18.5906 10.1439 17.8161 10.8245C17.0839 11.4094 16.1674 11.7144 15.2307 11.6848ZM7.37678 3.96726C7.8758 5.31779 8.64212 6.55377 9.62991 7.60126L9.69066 7.66532C10.6291 8.81317 11.8819 9.66243 13.2957 10.1091C14.1929 10.3581 15.8634 10.8201 17.0179 9.86282C17.543 9.39122 17.8914 8.75451 18.0054 8.05801C17.9254 7.29597 17.6467 6.56828 17.1973 5.9477C16.5247 5.12459 15.5967 4.54939 14.5603 4.3132L14.4498 4.2802C13.7238 4.073 12.9597 4.03687 12.2174 4.17463C11.4406 4.27553 10.6567 4.31094 9.87397 4.28051C9.03437 4.24503 8.19913 4.14025 7.37678 3.96726Z" fill="white"/>
<path d="M20.0638 13.6231C19.9688 13.6232 19.8751 13.6016 19.7897 13.5601C19.7044 13.5186 19.6296 13.4582 19.571 13.3834C19.5125 13.3087 19.4717 13.2216 19.4519 13.1287C19.432 13.0359 19.4336 12.9398 19.4565 12.8476C19.5366 12.5192 19.5453 12.1774 19.4821 11.8454C19.4188 11.5133 19.2851 11.1986 19.09 10.9226C18.7145 10.5884 18.2899 10.3138 17.8311 10.1084C16.7605 9.55993 15.6495 9.09399 14.508 8.71462C13.8098 8.47018 13.4951 8.37593 13.2724 8.30906C13.0472 8.24462 12.8255 8.16833 12.6083 8.08049C11.413 7.59998 10.3013 6.93316 9.31458 6.10481C9.25153 6.05223 9.19946 5.98775 9.16134 5.91505C9.12322 5.84235 9.09979 5.76285 9.09239 5.68109C9.08499 5.59933 9.09376 5.51692 9.11821 5.43856C9.14267 5.36019 9.18231 5.28741 9.23489 5.22437C9.28747 5.16133 9.35195 5.10926 9.42465 5.07113C9.49735 5.03301 9.57685 5.00958 9.6586 5.00218C9.82372 4.98724 9.98801 5.03849 10.1153 5.14468C11.0006 5.88878 11.9983 6.48776 13.0713 6.91931C13.2545 6.99334 13.4415 7.05752 13.6316 7.11156C13.8641 7.18143 14.1928 7.27968 14.9216 7.53487C16.1206 7.93418 17.2874 8.42437 18.4118 9.00118C19.0468 9.26277 19.6173 9.65945 20.0836 10.1637C20.3937 10.5879 20.607 11.075 20.7083 11.5907C20.8097 12.1063 20.7966 12.6379 20.6701 13.148C20.6366 13.2835 20.5587 13.4039 20.4488 13.49C20.3389 13.5761 20.2034 13.623 20.0638 13.6231Z" fill="white"/>
<path d="M25.107 11.6849C24.1703 11.7143 23.2538 11.4093 22.5215 10.8246C21.7475 10.1438 21.239 9.21127 21.086 8.19183C21.0758 8.13557 21.0735 8.07816 21.0792 8.02127C21.1699 7.00321 21.5355 6.02894 22.137 5.20252C22.9684 4.15975 24.1247 3.42496 25.4219 3.11502L25.5269 3.08377C26.4139 2.82578 27.3481 2.77411 28.2581 2.93271C28.9719 3.02605 29.6922 3.05934 30.4115 3.03221C31.5321 2.98497 32.643 2.803 33.7201 2.49021C33.8264 2.4593 33.939 2.45715 34.0463 2.484C34.1537 2.51084 34.252 2.5657 34.3312 2.64299C34.4104 2.72027 34.4677 2.81719 34.4971 2.92386C34.5266 3.03052 34.5272 3.1431 34.499 3.25008C33.9885 5.20114 32.997 6.99306 31.6151 8.46189L31.5526 8.52752C30.4558 9.83742 29.0059 10.8047 27.3753 11.3144C26.6396 11.5405 25.8764 11.6651 25.107 11.6849ZM22.332 8.0579C22.4462 8.75434 22.7945 9.391 23.3195 9.86271C24.4736 10.8194 26.1445 10.3565 27.0414 10.1093C28.4545 9.66262 29.7068 8.81406 30.6455 7.66727L30.708 7.60133C31.6955 6.55368 32.4617 5.31773 32.9608 3.96733C32.1385 4.14023 31.3034 4.24494 30.4639 4.2804C29.6811 4.31041 28.8971 4.275 28.1201 4.17452C27.378 4.03646 26.6139 4.0726 25.8881 4.28008L25.7777 4.31252C24.7411 4.54902 23.813 5.1244 23.1402 5.94765C22.6908 6.56818 22.4118 7.29587 22.332 8.0579Z" fill="white"/>
<path d="M20.2762 13.623C20.1367 13.623 20.0012 13.5762 19.8914 13.4902C19.7815 13.4042 19.7036 13.2839 19.67 13.1485C19.5436 12.6385 19.5306 12.1069 19.6319 11.5914C19.7333 11.0758 19.9465 10.5887 20.2565 10.1645C20.7228 9.65985 21.2935 9.26294 21.9289 9.00143C23.0532 8.42452 24.2199 7.93432 25.4189 7.53511C26.1476 7.27993 26.476 7.18167 26.7085 7.1118C26.8987 7.05783 27.0857 6.99355 27.2689 6.91924C28.3419 6.4879 29.3398 5.88902 30.2251 5.14493C30.3524 5.03874 30.5167 4.98748 30.6818 5.00242C30.8469 5.01737 30.9994 5.09729 31.1055 5.22461C31.2117 5.35193 31.263 5.51622 31.248 5.68134C31.2331 5.84645 31.1532 5.99886 31.0259 6.10505C30.0392 6.93336 28.9275 7.60009 27.7321 8.08043C27.515 8.16848 27.2933 8.24488 27.068 8.3093C26.8453 8.37618 26.5305 8.47043 25.8321 8.71486C24.6908 9.09444 23.58 9.56037 22.5094 10.1086C22.0505 10.3139 21.6259 10.5884 21.2504 10.9226C21.0552 11.1986 20.9215 11.5132 20.8582 11.8453C20.7949 12.1773 20.8036 12.5191 20.8835 12.8476C20.9064 12.9397 20.908 13.0358 20.8881 13.1287C20.8683 13.2215 20.8275 13.3086 20.769 13.3834C20.7104 13.4581 20.6356 13.5185 20.5503 13.56C20.4649 13.6016 20.3712 13.6232 20.2762 13.623Z" fill="white"/>
</svg>
