<svg width="36" height="37" viewBox="0 0 36 37" fill="none" xmlns="http://www.w3.org/2000/svg">
<path d="M18.0022 34.9393C8.94704 34.9393 1.57812 27.5704 1.57812 18.5152C1.57812 18.2141 1.82449 17.9678 2.12559 17.9678H33.8787C34.1798 17.9678 34.4262 18.2141 34.4262 18.5152C34.4262 27.5704 27.0573 34.9393 18.0022 34.9393ZM2.68401 19.0627C2.97417 27.2638 9.7354 33.8443 18.0022 33.8443C26.2689 33.8443 33.0302 27.2638 33.3203 19.0627H2.68401Z" fill="white"/>
<path d="M32.8493 10.9869C32.904 10.7844 32.9314 10.5763 32.9314 10.3628C32.9314 9.15839 32.0554 8.14557 30.8948 7.92111C30.6594 6.78238 29.6302 5.92285 28.4038 5.92285C27.1775 5.92285 26.1483 6.78238 25.9129 7.92111C25.4037 8.02513 24.9274 8.27696 24.5661 8.65472C24.3581 8.8737 24.3635 9.21861 24.5825 9.42665C24.8015 9.63468 25.1464 9.62921 25.3544 9.41022C25.6227 9.12554 26.0059 8.96677 26.4056 8.96677C26.7067 8.96677 26.953 8.72041 26.953 8.41931C26.953 7.64738 27.5991 7.01779 28.3984 7.01779C29.1977 7.01779 29.8437 7.64738 29.8437 8.41931C29.8437 8.72041 30.09 8.96677 30.3911 8.96677C31.185 8.96677 31.831 9.59089 31.831 10.3628C31.831 10.6037 31.7598 10.8446 31.623 11.08C31.5299 11.2388 31.5189 11.4359 31.6065 11.6056C31.6941 11.7753 31.8529 11.8848 32.039 11.9012C32.7726 11.9778 33.3256 12.5691 33.3256 13.2808C33.3256 14.0527 32.6796 14.6823 31.8803 14.6823C31.3547 14.6823 30.8729 14.3977 30.6156 13.9378C30.5171 13.7626 30.3364 13.6586 30.1393 13.6586C29.9422 13.6586 29.7561 13.7681 29.663 13.9433C29.4112 14.3977 28.9294 14.6823 28.4038 14.6823C27.8783 14.6823 27.391 14.3977 27.1447 13.9433C27.0461 13.7681 26.8655 13.6586 26.6629 13.6586C26.4603 13.6586 26.2797 13.7681 26.1811 13.9433C26.1373 14.0254 26.0826 14.102 26.0169 14.1677C25.8088 14.3867 25.8198 14.7371 26.0388 14.9396C26.1975 15.0929 26.4275 15.1258 26.6246 15.0491C26.6684 15.0929 26.7176 15.1203 26.7614 15.1586V16.3193C26.7614 16.6204 27.0078 16.8667 27.3089 16.8667C27.61 16.8667 27.8564 16.6204 27.8564 16.3193V15.7061C28.037 15.7444 28.2177 15.7718 28.4038 15.7718C28.59 15.7718 28.7706 15.7444 28.9513 15.7061V16.3193C28.9513 16.6204 29.1977 16.8667 29.4988 16.8667C29.7999 16.8667 30.0462 16.6204 30.0462 16.3193V15.1586C30.0791 15.1313 30.1174 15.1094 30.1448 15.082C30.6101 15.52 31.2288 15.7718 31.8857 15.7718C33.2873 15.7718 34.426 14.655 34.426 13.2753C34.426 12.2461 33.7854 11.3537 32.8493 10.9815V10.9869Z" fill="white"/>
<path d="M23.1993 10.0129C23.2869 9.73365 23.3307 9.44349 23.3307 9.14786C23.3307 7.68064 22.2795 6.45431 20.8999 6.21343C20.6645 4.80644 19.4546 3.7334 18.0038 3.7334C16.553 3.7334 15.3431 4.80644 15.1077 6.21343C13.7281 6.45979 12.6769 7.68064 12.6769 9.14786C12.6769 9.43801 12.7207 9.72817 12.8083 10.0129C11.6751 10.4344 10.8867 11.5293 10.8867 12.7995C10.8867 14.4419 12.2061 15.7777 13.8211 15.7777C14.6205 15.7777 15.365 15.4437 15.9125 14.8798C16.0493 15.0222 16.1972 15.1536 16.3614 15.2631V16.3306C16.3614 16.6317 16.6078 16.8781 16.9089 16.8781C17.21 16.8781 17.4563 16.6317 17.4563 16.3306V15.7284C17.637 15.7613 17.8177 15.7832 18.0038 15.7832C18.1899 15.7832 18.3706 15.7613 18.5513 15.7284V16.3306C18.5513 16.6317 18.7976 16.8781 19.0987 16.8781C19.3998 16.8781 19.6462 16.6317 19.6462 16.3306V15.2631C19.805 15.1536 19.9583 15.0222 20.0951 14.8798C20.6371 15.4492 21.3872 15.7777 22.1865 15.7777C23.807 15.7777 25.1209 14.4419 25.1209 12.7995C25.1209 11.5293 24.3325 10.4344 23.1993 10.0129ZM22.1865 14.6828C21.5185 14.6828 20.9054 14.305 20.5769 13.6918C20.4838 13.5112 20.2977 13.4017 20.0951 13.4017C19.8926 13.4017 19.7064 13.5112 19.6134 13.6918C19.2904 14.2995 18.6717 14.6828 18.0038 14.6828C17.3359 14.6828 16.7227 14.305 16.3942 13.6918C16.2026 13.336 15.6168 13.336 15.4307 13.6918C15.1077 14.2995 14.4891 14.6828 13.8211 14.6828C12.8083 14.6828 11.9817 13.8397 11.9817 12.7995C11.9817 11.8414 12.6879 11.0366 13.6295 10.9381C13.8157 10.9162 13.9744 10.8067 14.062 10.6424C14.1442 10.4782 14.1387 10.2811 14.0456 10.1169C13.8649 9.81029 13.7773 9.48729 13.7773 9.15333C13.7773 8.11314 14.604 7.27004 15.6168 7.27004C15.9179 7.27004 16.1643 7.02368 16.1643 6.72257C16.1643 5.68238 16.991 4.83928 18.0038 4.83928C19.0166 4.83928 19.8433 5.68238 19.8433 6.72257C19.8433 7.02368 20.0897 7.27004 20.3908 7.27004C21.4091 7.27004 22.2303 8.11314 22.2303 9.15333C22.2303 9.48729 22.1372 9.81577 21.962 10.1169C21.8689 10.2756 21.8635 10.4727 21.9456 10.6424C22.0277 10.8067 22.1919 10.9217 22.3781 10.9381C23.3197 11.0421 24.0259 11.8414 24.0259 12.7995C24.0259 13.8397 23.1993 14.6828 22.1865 14.6828Z" fill="white"/>
<path d="M11.4341 8.65472C11.0728 8.27696 10.602 8.02513 10.0873 7.92111C9.85193 6.78238 8.82269 5.92285 7.59637 5.92285C6.37004 5.92285 5.3408 6.78238 5.10539 7.92111C3.94475 8.15105 3.06881 9.15839 3.06881 10.3628C3.06881 10.5709 3.09618 10.7789 3.15093 10.9869C2.21476 11.3592 1.57422 12.2516 1.57422 13.2808C1.57422 14.655 2.71295 15.7773 4.11447 15.7773C4.77143 15.7773 5.39007 15.5254 5.85542 15.0875C5.88827 15.1148 5.92111 15.1367 5.95396 15.1641V16.3247C5.95396 16.6258 6.20032 16.8722 6.50143 16.8722C6.80254 16.8722 7.0489 16.6258 7.0489 16.3247V15.7116C7.22956 15.7499 7.41023 15.7773 7.59637 15.7773C7.7825 15.7773 7.96317 15.7499 8.14383 15.7116V16.3247C8.14383 16.6258 8.39019 16.8722 8.6913 16.8722C8.99241 16.8722 9.23877 16.6258 9.23877 16.3247V15.1641C9.28257 15.1258 9.33184 15.0929 9.37564 15.0546C9.56725 15.1313 9.79719 15.0984 9.96143 14.9451C10.1804 14.7371 10.1914 14.3922 9.98333 14.1732C9.91763 14.1075 9.86288 14.0309 9.81908 13.9487C9.72054 13.7735 9.53988 13.664 9.33731 13.664C9.13475 13.664 8.95409 13.7735 8.85554 13.9487C8.60371 14.4031 8.12193 14.6878 7.59637 14.6878C7.0708 14.6878 6.58355 14.4031 6.33719 13.9487C6.24412 13.7735 6.05798 13.664 5.86089 13.664C5.6638 13.664 5.47766 13.7735 5.3846 13.9433C5.12729 14.4031 4.64551 14.6878 4.11994 14.6878C3.32064 14.6878 2.67463 14.0582 2.67463 13.2863C2.67463 12.5801 3.22757 11.9833 3.96118 11.9067C4.14732 11.8848 4.31156 11.7753 4.39368 11.611C4.4758 11.4468 4.47032 11.2442 4.37725 11.0855C4.24039 10.8555 4.16922 10.6092 4.16922 10.3683C4.16922 9.59636 4.81523 8.97225 5.60906 8.97225C5.91016 8.97225 6.15652 8.72589 6.15652 8.42478C6.15652 7.65285 6.80254 7.02326 7.60184 7.02326C8.40114 7.02326 9.04716 7.65285 9.04716 8.42478C9.04716 8.72589 9.29352 8.97225 9.59462 8.97225C9.99427 8.97225 10.372 9.13649 10.6458 9.4157C10.8538 9.63468 11.2042 9.64016 11.4177 9.43212C11.6367 9.22408 11.6422 8.8737 11.4341 8.66019V8.65472Z" fill="white"/>
<path d="M28.9531 4.28077C28.7177 4.28077 28.5096 4.13295 28.433 3.91396C28.3071 3.55263 28.1319 3.3227 27.9019 3.2351C27.5625 3.10371 27.1245 3.28438 27.0205 3.33912C26.7522 3.48694 26.4238 3.38839 26.276 3.12561C26.1281 2.86282 26.2267 2.52887 26.4895 2.38105C26.5825 2.32631 27.4311 1.88286 28.2906 2.21134C28.4877 2.28798 28.7231 2.41938 28.9421 2.65479C29.1611 2.41938 29.3965 2.28251 29.5936 2.21134C30.4531 1.87738 31.3017 2.32631 31.3948 2.38105C31.6576 2.52887 31.7561 2.85735 31.6083 3.12561C31.4659 3.38839 31.132 3.48694 30.8692 3.33912C30.7323 3.26795 30.3108 3.10919 29.9823 3.2351C29.7578 3.3227 29.5827 3.55263 29.4567 3.91396C29.3801 4.13295 29.1721 4.28077 28.9366 4.28077H28.9531Z" fill="white"/>
<path d="M7.05463 4.28077C6.81922 4.28077 6.61118 4.13295 6.53454 3.91396C6.40862 3.55263 6.23343 3.3227 6.00349 3.2351C5.66406 3.10371 5.22609 3.28438 5.12207 3.33912C4.85381 3.48694 4.52533 3.38839 4.37751 3.12561C4.2297 2.86282 4.32824 2.52887 4.59103 2.38105C4.6841 2.32631 5.53267 1.88286 6.3922 2.21134C6.58928 2.28798 6.82469 2.41938 7.04368 2.65479C7.26267 2.41938 7.49808 2.28251 7.69517 2.21134C8.55469 1.87738 9.40327 2.32631 9.49634 2.38105C9.75912 2.52887 9.85767 2.85735 9.70985 3.12561C9.56751 3.38839 9.23355 3.48694 8.97077 3.33912C8.8339 3.26795 8.41235 3.10919 8.08387 3.2351C7.85941 3.3227 7.68422 3.55263 7.5583 3.91396C7.48166 4.13295 7.27362 4.28077 7.03821 4.28077H7.05463Z" fill="white"/>
<path d="M14.82 32.3767C14.705 32.3767 14.5955 32.3439 14.4969 32.2727C14.2506 32.0921 14.2013 31.7526 14.382 31.5063C15.5755 29.8803 17.7982 29.3164 19.0136 29.1248C21.4388 28.7361 22.386 27.7561 22.386 25.6319C22.386 24.0607 22.9006 22.8563 23.8313 22.2431C24.8496 21.5697 26.2785 21.6245 28.0742 22.3909C28.8406 22.7139 29.7549 22.7413 30.7951 22.4566C31.1345 22.3636 31.4904 22.6373 31.4904 22.9877C31.4904 23.2559 31.2987 23.4749 31.0469 23.5242C29.7768 23.8581 28.6326 23.8198 27.6471 23.3983C26.2292 22.7906 25.1178 22.7085 24.4335 23.1574C23.6068 23.7049 23.4809 24.9421 23.4809 25.6319C23.4809 29.1193 21.0282 29.9131 19.1887 30.2088C18.3402 30.3402 16.2653 30.8 15.2689 32.1523C15.1594 32.3001 14.9951 32.3767 14.8254 32.3767H14.82Z" fill="white"/>
<path d="M11.3221 28.1013C10.7911 28.1013 10.2601 27.9918 9.76733 27.7728C9.0611 27.4498 8.27275 27.4115 7.59936 27.6742C7.32015 27.7837 7.00262 27.6469 6.89313 27.3622C6.78363 27.083 6.9205 26.7654 7.20518 26.6559C8.1523 26.2837 9.25271 26.3275 10.2272 26.7764C11.2564 27.2472 12.6196 26.9735 13.3204 26.1523C13.9774 25.3803 13.9226 24.3347 13.1616 23.2014C12.6634 22.4459 12.3295 21.6466 12.1652 20.8145C12.105 20.5188 12.3021 20.2287 12.5977 20.1739C12.8934 20.1137 13.1835 20.3108 13.2383 20.6064C13.3751 21.2962 13.6544 21.9696 14.0704 22.5992C15.5431 24.8055 14.6179 26.322 14.1471 26.8695C13.4627 27.6688 12.3897 28.1122 11.3167 28.1122L11.3221 28.1013Z" fill="white"/>
</svg>
