<svg width="37" height="36" viewBox="0 0 37 36" fill="none" xmlns="http://www.w3.org/2000/svg">
<path fill-rule="evenodd" clip-rule="evenodd" d="M34.5648 23.1898L31.2414 15.3581L31.2406 15.3585C31.0001 14.7945 30.3469 14.5304 29.7835 14.7698L27.0072 15.9479C26.5202 16.1546 26.2493 16.6783 26.3523 17.1891C25.788 17.3989 25.2493 17.6398 24.7567 17.8602C24.0031 18.1973 23.3678 18.4815 23.048 18.4825C22.7035 18.4837 21.4639 17.7166 20.0588 17.8769V17.8771C19.7487 17.9125 19.5765 17.9277 19.3808 18.0053V17.4266C19.3808 15.5048 20.4178 13.7917 22.0159 12.8715C25.3906 15.1525 29.3695 13.907 30.9546 10.1421C31.0549 9.90392 30.9696 9.63406 30.7645 9.49357C29.9729 8.89725 29.1013 8.47721 28.1994 8.27056C26.3561 7.84819 24.5109 8.34284 23.1258 9.63019C22.4642 10.2451 21.9294 11.0209 21.5444 11.9048C21.5004 11.9533 20.3237 12.4987 19.3809 13.9002V10.9261C21.5852 9.08815 22.4031 6.24366 21.0375 3.66523C20.6016 2.84229 19.9668 2.10563 19.1821 1.4944C18.9937 1.3407 18.7177 1.33086 18.5171 1.48589C15.2427 4.02108 15.1206 8.26887 18.3074 10.9261V13.9002C17.3646 12.4987 16.1877 11.9533 16.1438 11.9048C15.7588 11.021 15.2241 10.2451 14.5625 9.63026C13.1774 8.34291 11.3322 7.84826 9.48888 8.27063C8.58698 8.47728 7.71532 8.89732 6.92381 9.49364C6.71857 9.63413 6.63335 9.90399 6.73368 10.1421C8.3186 13.9072 12.2979 15.1526 15.6724 12.8716C17.2704 13.7919 18.3075 15.5048 18.3075 17.4267V18.055C17.5566 17.8157 16.6529 17.6785 15.1651 18.1744C14.7633 18.3083 14.3804 18.519 14.0455 18.4847C13.1619 18.3944 12.1524 17.9477 11.2109 17.5439L11.2695 17.4059C11.5087 16.8433 11.2441 16.1869 10.6811 15.948L7.90481 14.7698C7.34139 14.5305 6.68812 14.7946 6.44765 15.3586L6.44688 15.3582L3.12328 23.1898C2.88414 23.7524 3.14866 24.4088 3.71165 24.6477L6.48794 25.8259C7.00242 26.0446 7.60085 25.8428 7.88097 25.3664L11.1525 27.6732L10.5483 28.7643C9.83011 30.0611 11.0139 31.5908 12.4448 31.2277C12.7195 32.0796 13.605 32.5706 14.4722 32.3505C14.7468 33.2022 15.6322 33.6935 16.4996 33.4734C16.9537 34.8817 18.8775 35.0674 19.5929 33.7758L19.9843 33.069L21.1844 33.6379C21.5826 33.8266 22.0646 33.9483 22.4924 33.8967C22.9034 33.8472 23.263 33.656 23.4866 33.2556C23.745 32.9095 23.8512 32.4941 23.8153 32.093C24.6997 31.9574 25.3257 31.1605 25.2462 30.2699C26.1305 30.1343 26.7566 29.3374 26.6771 28.4467C27.7798 28.2776 28.4135 27.1173 27.9755 26.0996L29.4097 25.5188L29.4095 25.5182L29.7944 25.3442C30.0684 25.836 30.6772 26.0481 31.2002 25.8259L33.9765 24.6477C34.5396 24.4088 34.8038 23.7525 34.5648 23.1898ZM29.7913 10.1138C28.5027 12.6908 25.8164 13.6789 23.2443 12.3595C23.6868 12.2385 24.1526 12.1738 24.6335 12.1738C24.9299 12.1738 25.1702 11.9335 25.1702 11.6371C25.1702 11.3408 24.9299 11.1004 24.6335 11.1004C24.1059 11.1004 23.5934 11.1651 23.1035 11.2868C24.7035 8.97537 27.4591 8.57459 29.7913 10.1138ZM13.0546 12.1738C13.5354 12.1738 14.0013 12.2385 14.4437 12.3595C11.8717 13.6789 9.18534 12.6909 7.89679 10.1138C10.229 8.57459 12.9846 8.97537 14.5846 11.2868C14.0946 11.165 13.5822 11.1004 13.0546 11.1004C12.7582 11.1004 12.5179 11.3407 12.5179 11.6371C12.5179 11.9334 12.7581 12.1738 13.0546 12.1738ZM18.844 2.60407C20.9675 4.48641 21.2588 7.29757 19.3807 9.43803V7.52848C19.3807 7.23204 19.1404 6.99179 18.844 6.99179C18.5477 6.99179 18.3073 7.23211 18.3073 7.52848V9.43803C16.4294 7.29764 16.7205 4.48648 18.844 2.60407ZM6.96051 24.8182L6.91207 24.8426L4.131 23.6623L4.1066 23.6139L7.43217 15.7774L7.43139 15.7771L7.48061 15.7529L10.2617 16.9332L10.2862 16.9816L6.96051 24.8182ZM12.5753 29.8876C12.4928 30.0364 12.3559 30.1382 12.202 30.1824C11.6487 30.3412 11.2262 29.7483 11.4832 29.2842L12.6354 27.2039C12.718 27.0549 12.8549 26.9529 13.0089 26.9086C13.562 26.7498 13.9862 27.347 13.7279 27.8065L13.3028 28.5741L12.5753 29.8876ZM14.603 31.01C14.5204 31.159 14.3835 31.2611 14.2295 31.3053C14.043 31.3588 13.892 31.3288 13.7267 31.2379C13.4699 31.0965 13.3535 30.6954 13.4961 30.4352L13.5324 30.3681L14.6629 28.3268C14.7454 28.1778 14.8823 28.0758 15.0364 28.0316C15.5848 27.8742 16.0142 28.4621 15.7552 28.9298L14.603 31.01ZM16.6297 32.134C16.5471 32.2823 16.4105 32.3839 16.2569 32.4281C15.7036 32.587 15.281 31.994 15.538 31.53L16.6902 29.4497C16.7728 29.3007 16.9097 29.1987 17.0637 29.1545C17.6121 28.997 18.0416 29.585 17.7826 30.0527L16.6297 32.134ZM19.8246 31.1473L18.6786 33.2182C18.6645 33.2393 18.6519 33.2614 18.6409 33.2844C18.5573 33.4179 18.4283 33.5097 18.2843 33.551C18.0979 33.6045 17.9467 33.5746 17.7814 33.4835C17.5223 33.3408 17.4087 32.9346 17.5508 32.6809L18.7176 30.5724C18.8002 30.4234 18.9371 30.3215 19.0911 30.2772C19.2776 30.2237 19.4286 30.2536 19.5939 30.3446C19.8529 30.4872 19.9667 30.8933 19.8246 31.1473ZM26.0366 27.2627C25.8039 27.0799 25.467 27.1203 25.2841 27.3529C25.1011 27.5856 25.1415 27.9226 25.3742 28.1056C25.5084 28.211 25.5874 28.3619 25.6065 28.5201C25.6744 29.0841 25.0289 29.4182 24.6059 29.0859C24.3731 28.903 24.0361 28.9433 23.8532 29.1761C23.6703 29.4088 23.7106 29.7458 23.9433 29.9287C24.0776 30.0341 24.1566 30.185 24.1756 30.3432C24.2435 30.9073 23.598 31.2413 23.1749 30.909C22.9421 30.726 22.6051 30.7664 22.4222 30.9991C22.2526 31.2149 22.275 31.5203 22.4646 31.7094L22.4642 31.7099C22.4844 31.7301 22.5058 31.7483 22.528 31.7646C22.7757 31.9583 22.8225 32.3672 22.6298 32.6111C22.5367 32.729 22.552 32.8093 22.3665 32.8316C22.1517 32.8575 21.8801 32.7825 21.6413 32.6693L20.5041 32.1302L20.745 31.6953C21.4644 30.378 20.266 28.8723 18.8485 29.232C18.5738 28.3803 17.6861 27.8896 16.8211 28.1091C16.5464 27.2574 15.6588 26.7668 14.7937 26.9862C14.5132 26.1165 13.5933 25.625 12.7154 25.877C12.2584 26.0082 11.9172 26.2924 11.6742 26.7311C10.4793 25.875 9.48846 25.1692 8.31501 24.3674L10.7918 18.5309C11.8089 18.9677 12.8838 19.442 13.9364 19.5496C14.4466 19.6017 14.7907 19.4655 15.1759 19.3129C16.354 18.8463 17.1653 18.8397 17.9205 19.0599L14.6159 21.6801C14.0384 22.1379 14.0829 23.0296 14.6952 23.4351C15.6534 24.0698 16.6018 24.2394 17.5374 24.0653C18.4338 23.8986 19.2963 23.4133 20.1298 22.722C20.1524 22.7217 20.1856 22.729 20.225 22.7414L23.618 23.8078L26.7756 26.2584C26.9234 26.3825 27.0131 26.4963 27.0373 26.6968C27.1049 27.2577 26.462 27.5967 26.0366 27.2627ZM29.0017 24.5273L27.2201 25.2487L24.1957 22.9015C24.1438 22.8615 24.087 22.8324 24.0278 22.8141L24.028 22.8135L20.5438 21.7184C20.1701 21.6009 19.7726 21.6292 19.4546 21.8936C18.155 22.9741 16.7804 23.5289 15.2866 22.5422L15.2827 22.5188L19.4719 19.1975C19.7964 18.9579 19.7793 18.9876 20.1805 18.9418V18.9421C21.3421 18.8096 22.3345 19.5542 23.048 19.5519C23.5993 19.5502 24.3283 19.2241 25.1928 18.8373C25.676 18.6212 26.2054 18.3844 26.7488 18.1835L29.3701 24.3606C29.2439 24.4152 29.1207 24.4705 29.0017 24.5273ZM33.5661 23.6571L30.7761 24.8426L30.7276 24.8182L27.402 16.9817L27.4265 16.9333L30.2028 15.7551L30.2568 15.7771L30.256 15.7775L33.5641 23.5729C33.5729 23.5958 33.5981 23.6389 33.5661 23.6571Z" fill="white"/>
</svg>
