<svg width="30" height="31" viewBox="0 0 30 31" fill="none" xmlns="http://www.w3.org/2000/svg">
<path d="M3.72801 7.95649C2.56506 7.95649 1.61914 8.90512 1.61914 10.0708V16.5113C1.61914 18.3733 2.18705 20.1544 3.26093 21.661L5.7053 25.101H5.56966C5.31961 25.101 5.1175 25.3036 5.1175 25.5532V28.3443C5.1175 28.5939 5.31961 28.7965 5.56966 28.7965H12.8056C13.0556 28.7965 13.2577 28.5939 13.2577 28.3443V25.5532C13.2577 25.3036 13.0556 25.101 12.8056 25.101H12.4854L12.4845 21.0836C12.4741 20.9018 12.4533 20.7304 12.4271 20.5649C13.2609 20.7969 14.1227 20.9149 14.9994 20.9149C15.6202 20.9149 16.2379 20.8561 16.8361 20.7404C16.8456 20.739 16.8555 20.7377 16.865 20.7359C17.106 20.6884 17.3412 20.6314 17.5749 20.5659C17.5469 20.739 17.5243 20.9181 17.5134 21.1089V25.101H17.1933C16.9433 25.101 16.7412 25.3036 16.7412 25.5532V28.3443C16.7412 28.5939 16.9433 28.7965 17.1933 28.7965H24.4292C24.6793 28.7965 24.8814 28.5939 24.8814 28.3443V25.5532C24.8814 25.3036 24.6793 25.101 24.4292 25.101H24.2936L26.7375 21.6614C27.8118 20.1539 28.3797 18.3729 28.3797 16.5109V10.0703C28.3797 8.90467 27.4338 7.95604 26.2709 7.95604C25.7093 7.95604 25.1803 8.17579 24.781 8.57504C24.6119 8.74415 24.4826 8.94084 24.3808 9.15019C24.0973 7.90359 23.5828 6.75013 22.8435 5.72237C22.8394 5.71604 22.8385 5.70881 22.834 5.70248C22.8299 5.69705 22.8236 5.69479 22.8191 5.68936C21.019 3.16993 18.099 1.6665 15.0003 1.6665C14.7937 1.6665 14.592 1.68459 14.3886 1.6977C14.3623 1.69816 14.3366 1.6968 14.3112 1.70177C10.0474 2.00608 6.54768 5.09296 5.62301 9.15652C5.52082 8.94491 5.3906 8.74641 5.21968 8.57549C4.82043 8.17624 4.2914 7.95649 3.72982 7.95649H3.72801ZM12.3529 27.8922H6.02136V26.0053H6.57435C6.57661 26.0053 6.57933 26.0062 6.58159 26.0062H12.0328C12.0328 26.0062 12.0355 26.0053 12.0373 26.0053H12.3529V27.8922ZM12.1205 19.5177C11.5015 18.1328 10.2463 17.5622 9.42341 17.3325C8.78903 17.1588 8.22157 16.7406 7.82457 16.1523L7.29464 15.376C7.17075 15.1449 7.05997 14.9007 6.95552 14.6507C7.2856 14.5671 7.59849 14.5485 7.88878 14.6041C8.30703 14.6828 8.59777 14.8845 8.93508 15.1182C9.41256 15.4492 9.95379 15.8245 10.9083 15.9018C11.5965 15.9583 12.0613 15.8227 12.471 15.7033C12.8987 15.5785 13.2365 15.4786 13.8207 15.6156C14.172 15.6907 15.2151 16.0497 15.3878 16.6922C15.4421 16.8916 15.3942 17.0309 15.2884 17.3013C15.2133 17.4934 15.1283 17.7109 15.0971 17.9777C15.0157 18.622 15.259 19.2776 15.8341 19.9667C14.5898 20.0834 13.3066 19.9337 12.1201 19.5186L12.1205 19.5177ZM5.83643 14.2157C5.84276 14.2356 5.84864 14.2555 5.85497 14.2754C5.84864 14.275 5.84276 14.2722 5.83643 14.2718V14.2157ZM23.9757 27.8922H17.6441V26.0053H17.9597C17.9597 26.0053 17.9624 26.0062 17.9642 26.0062H23.4155C23.4182 26.0062 23.4204 26.0053 23.4227 26.0053H23.9757V27.8922ZM24.8886 16.2265L24.2266 17.3089C23.2204 18.9554 22.7173 19.8341 22.7173 19.945C22.7173 20.1946 22.9195 20.3972 23.1695 20.3972C23.3553 20.3972 23.5154 20.2846 23.5846 20.1241C23.6605 19.9844 24.1597 19.1519 24.9976 17.7815L25.66 16.6981C26.1149 15.9556 25.8879 14.9763 25.15 14.5132C25.1219 14.4961 25.0934 14.4798 25.065 14.464V10.0708C25.065 9.74749 25.1907 9.44364 25.419 9.21485C25.6473 8.98651 25.9494 8.86081 26.2695 8.86081C26.9337 8.86081 27.4741 9.4034 27.4741 10.0708V16.5113C27.4741 18.1839 26.964 19.7832 25.9991 21.1374L23.1826 25.1015H18.4169L18.416 21.1351C18.5236 19.2365 19.7801 18.4936 20.8124 18.2056C21.6552 17.975 22.4044 17.4265 22.9199 16.6628L23.732 15.4723C23.8893 15.2363 24.2077 15.125 24.4758 15.1933C24.4794 15.1942 24.4826 15.1951 24.4857 15.1965C24.5549 15.2186 24.6155 15.2467 24.6729 15.2819C24.9949 15.484 25.0898 15.8991 24.8891 16.2269L24.8886 16.2265ZM24.1606 14.2311V14.2718C24.1552 14.2722 24.1507 14.2745 24.1453 14.275C24.1502 14.26 24.1557 14.2456 24.1606 14.2311ZM23.6022 9.927C23.6732 10.3801 23.7184 10.8372 23.7184 11.2916C23.7184 12.7109 23.3671 14.1226 22.7029 15.376L22.1716 16.155C21.9066 16.5475 21.5603 16.8563 21.1723 17.0752C20.9042 16.7795 20.7685 16.5046 20.7816 16.2536C20.792 15.9782 20.9738 15.6663 21.1339 15.3909C21.3676 14.9898 21.6322 14.535 21.3211 14.1122C21.0679 13.7767 20.6777 13.8174 20.4204 13.8436C20.1975 13.8658 20.0555 13.8743 19.9456 13.8034C19.8054 13.7102 19.687 13.4864 19.6345 13.2196C19.5667 12.8696 19.6205 12.5111 19.7751 12.2841C19.8787 12.1326 19.9953 12.0865 20.2499 11.9961C20.5393 11.8934 20.9354 11.7533 21.3297 11.3319C21.6805 10.9566 21.7958 10.6125 21.8799 10.3611C21.9315 10.2064 21.964 10.116 22.0201 10.0486C22.1404 9.9062 22.5121 9.71855 23.6031 9.92745L23.6022 9.927ZM21.8279 5.88063C21.0557 6.39202 20.3652 6.59956 19.772 6.49285C19.6354 6.46934 19.4984 6.42955 19.3596 6.39066C18.8957 6.26044 18.3165 6.09766 17.7183 6.41237C17.1377 6.71938 16.9627 7.24615 16.809 7.71097C16.6797 8.10118 16.568 8.43849 16.2361 8.67407C15.6438 9.09638 14.7729 8.96842 14.6716 8.85764C14.6766 8.77851 14.8208 8.5547 14.9262 8.39101C15.2318 7.9176 15.6505 7.26921 15.6022 6.3667C15.5723 5.79472 15.3684 5.45153 15.1722 5.11919C15.0645 4.93742 14.9533 4.74932 14.8597 4.50154C14.6486 3.95217 14.6246 3.30513 14.7666 2.58303C14.8443 2.58077 14.9203 2.57127 14.9985 2.57127C17.664 2.57127 20.1825 3.80024 21.8279 5.88017V5.88063ZM13.8279 2.6599C13.7072 3.45434 13.7673 4.18186 14.0146 4.82438C14.1358 5.14316 14.2728 5.37511 14.394 5.57994C14.5667 5.87158 14.6811 6.0642 14.6992 6.41463C14.7318 7.02504 14.4315 7.49031 14.1666 7.90087C13.9011 8.31234 13.6005 8.77851 13.8754 9.26685C14.0286 9.53498 14.3235 9.72398 14.7286 9.81306C14.8991 9.85058 15.0772 9.86867 15.2572 9.86867C15.7939 9.86867 16.3455 9.70635 16.7606 9.41109C17.333 9.00369 17.5184 8.44437 17.6672 7.99538C17.8037 7.58255 17.8933 7.34291 18.1392 7.21269C18.4065 7.07207 18.6836 7.13989 19.1145 7.26152C19.2832 7.30855 19.4505 7.35512 19.6142 7.3836C20.443 7.53146 21.3627 7.27599 22.3448 6.62262C22.8127 7.3506 23.1663 8.13826 23.3969 8.97927C22.4013 8.84724 21.7163 9.00459 21.326 9.46715C21.1565 9.67017 21.0846 9.8845 21.0213 10.0739C20.948 10.2932 20.8843 10.4827 20.6682 10.7147C20.4244 10.9751 20.2038 11.0533 19.9474 11.1442C19.6594 11.2464 19.3008 11.373 19.0273 11.7754C18.737 12.2009 18.6321 12.8059 18.7465 13.3933C18.846 13.9037 19.0996 14.3274 19.4478 14.5598C19.8127 14.7977 20.192 14.7764 20.4584 14.7497C20.4231 14.8144 20.3837 14.8818 20.3516 14.9369C20.1486 15.2855 19.8959 15.7192 19.8773 16.2143C19.8565 16.6194 19.9967 17.0245 20.2883 17.4238C19.4862 17.6978 18.4349 18.282 17.881 19.5177C17.5614 19.6312 17.2403 19.7235 16.9125 19.7972C16.2451 19.1506 15.9331 18.5768 15.9951 18.0885C16.0132 17.9329 16.0679 17.7932 16.1312 17.6313C16.2492 17.3288 16.3957 16.9526 16.261 16.4575C15.9105 15.1531 14.087 14.7493 14.0182 14.7344C13.2111 14.5458 12.6826 14.7 12.2168 14.837C11.8501 14.9442 11.5042 15.0454 10.9829 15.0025C10.2694 14.9446 9.89004 14.6815 9.45009 14.3767C9.08158 14.1212 8.66378 13.8314 8.05744 13.7174C7.61161 13.6324 7.14 13.6591 6.65122 13.7952C6.40886 12.9908 6.27819 12.1525 6.27819 11.2925C6.27819 6.88216 9.57262 3.2355 13.8279 2.6608V2.6599ZM5.49821 15.1996C5.50183 15.1987 5.50545 15.1978 5.50861 15.1969C5.5787 15.1788 5.64019 15.1702 5.69581 15.1702C5.92686 15.1702 6.13938 15.2833 6.26824 15.4759L7.07625 16.6606C7.59352 17.4261 8.3423 17.9745 9.18286 18.2047C9.98725 18.4294 10.9232 18.9313 11.3514 20.0228C11.3514 20.0237 11.3523 20.0246 11.3523 20.0255C11.4739 20.3371 11.5567 20.6938 11.5807 21.1093V25.1015H6.8149L3.99795 21.1369C3.03349 19.7836 2.52346 18.1843 2.52346 16.5118V10.0712C2.52346 9.40385 3.06379 8.86126 3.72801 8.86126C4.04814 8.86126 4.35018 8.98696 4.57852 9.2153C4.80686 9.44364 4.93256 9.74749 4.93256 10.0712V14.4644C4.90272 14.4807 4.87288 14.4979 4.84349 14.516C4.10963 14.9767 3.88265 15.9561 4.33707 16.6981L4.99903 17.781C5.83733 19.1529 6.33697 19.9853 6.41293 20.125C6.48211 20.2855 6.64218 20.3981 6.82801 20.3981C7.07806 20.3981 7.28017 20.1955 7.28017 19.9459C7.28017 19.835 6.77677 18.9559 5.76996 17.3085L5.10845 16.2269C4.90815 15.8991 5.0031 15.4845 5.32097 15.2846C5.38382 15.2462 5.44622 15.2177 5.49867 15.2005L5.49821 15.1996Z" fill="white"/>
<path d="M7.95098 13.1315C8.06356 13.1857 8.16982 13.2074 8.27156 13.2074C8.52974 13.2074 8.75582 13.0641 8.96155 12.933C9.18311 12.7924 9.45847 12.6174 9.89662 12.4727C10.3845 12.3117 10.7512 12.2959 11.0451 12.2837C11.4263 12.2674 11.8201 12.2507 12.0796 11.8609C12.3916 11.3925 12.157 10.9032 11.968 10.5099C11.7988 10.1581 11.6243 9.79454 11.7129 9.38534C11.7907 9.02497 12.0362 8.79437 12.2736 8.571C12.5571 8.30513 12.9094 7.9737 12.7941 7.45959C12.6087 6.62853 11.3783 6.39792 10.6612 6.33462C10.3316 6.30568 8.67172 6.20937 8.3118 7.14941C8.18203 7.48944 8.30637 7.75712 8.38912 7.93436C8.44292 8.05057 8.4895 8.15095 8.50035 8.30151C8.51934 8.56965 8.40992 8.72971 8.16123 9.06657C7.99031 9.29762 7.77825 9.58474 7.60824 9.97586C7.11132 11.1198 7.15291 12.7476 7.95098 13.1315ZM8.4375 10.3367C8.56636 10.0401 8.73005 9.81851 8.8883 9.60419C9.16186 9.23342 9.44536 8.84998 9.40195 8.23776C9.37935 7.9208 9.27716 7.70014 9.20888 7.5541C9.19215 7.51747 9.16954 7.46954 9.16005 7.46954C9.15869 7.46954 9.15779 7.47045 9.15688 7.47225C9.21205 7.33118 9.83422 7.17021 10.5816 7.23578C11.4091 7.30903 11.8879 7.54912 11.9137 7.63277C11.8938 7.68748 11.75 7.82268 11.6546 7.91266C11.3639 8.18576 10.966 8.55925 10.829 9.19498C10.6752 9.90713 10.9515 10.4823 11.1532 10.9019C11.2273 11.0565 11.3399 11.2907 11.3435 11.3473C11.2997 11.3676 11.1378 11.3748 11.0076 11.3803C10.6757 11.3943 10.2213 11.4137 9.61356 11.614C9.06871 11.794 8.71241 12.0201 8.47684 12.1697C8.42303 12.2041 8.36154 12.243 8.31315 12.271C8.16711 12.0192 8.09114 11.1347 8.4375 10.3367Z" fill="white"/>
</svg>
