<svg width="40" height="41" viewBox="0 0 40 41" fill="none" xmlns="http://www.w3.org/2000/svg">
<path d="M4.97198 11.2775C3.42138 11.2775 2.16016 12.5424 2.16016 14.0966V22.684C2.16016 25.1666 2.91737 27.5414 4.34921 29.5502L7.60837 34.1369H7.42751C7.09412 34.1369 6.82463 34.407 6.82463 34.7397V38.4613C6.82463 38.7941 7.09412 39.0642 7.42751 39.0642H17.0754C17.4088 39.0642 17.6783 38.7941 17.6783 38.4613V34.7397C17.6783 34.407 17.4088 34.1369 17.0754 34.1369H16.6485L16.6473 28.7803C16.6335 28.5379 16.6057 28.3094 16.5708 28.0888C17.6825 28.3981 18.8316 28.5554 20.0005 28.5554C20.8283 28.5554 21.6518 28.477 22.4494 28.3227C22.4621 28.3209 22.4754 28.3191 22.488 28.3167C22.8094 28.2534 23.1229 28.1774 23.4345 28.09C23.3972 28.3209 23.367 28.5596 23.3526 28.8141V34.1369H22.9257C22.5923 34.1369 22.3228 34.407 22.3228 34.7397V38.4613C22.3228 38.7941 22.5923 39.0642 22.9257 39.0642H32.5736C32.907 39.0642 33.1765 38.7941 33.1765 38.4613V34.7397C33.1765 34.407 32.907 34.1369 32.5736 34.1369H32.3927L35.6513 29.5508C37.0837 27.5408 37.8409 25.166 37.8409 22.6834V14.096C37.8409 12.5418 36.5797 11.2769 35.0291 11.2769C34.2803 11.2769 33.575 11.5699 33.0426 12.1023C32.8172 12.3277 32.6447 12.59 32.5091 12.8691C32.1311 11.207 31.445 9.66904 30.4593 8.29869C30.4539 8.29025 30.4527 8.28061 30.4466 8.27217C30.4412 8.26493 30.4328 8.26192 30.4267 8.25468C28.0267 4.89544 24.1333 2.89087 20.0018 2.89087C19.7262 2.89087 19.4574 2.91498 19.1861 2.93247C19.1511 2.93307 19.1167 2.93126 19.083 2.93789C13.3978 3.34363 8.73154 7.45948 7.49865 12.8776C7.3624 12.5954 7.18877 12.3307 6.96088 12.1029C6.42854 11.5705 5.72317 11.2775 4.9744 11.2775H4.97198ZM16.4719 37.8584H8.02979V35.3426H8.76711C8.77012 35.3426 8.77374 35.3438 8.77675 35.3438H16.0451C16.0451 35.3438 16.0487 35.3426 16.0511 35.3426H16.4719V37.8584ZM16.162 26.6925C15.3367 24.8459 13.6631 24.0851 12.5658 23.7788C11.72 23.5473 10.9634 22.9896 10.4341 22.2053L9.72749 21.1702C9.5623 20.8621 9.4146 20.5365 9.27533 20.2031C9.71544 20.0916 10.1326 20.0669 10.5197 20.141C11.0773 20.2459 11.465 20.5148 11.9147 20.8265C12.5514 21.2678 13.273 21.7682 14.5457 21.8713C15.4633 21.9467 16.083 21.7658 16.6293 21.6066C17.1996 21.4402 17.6499 21.307 18.4288 21.4897C18.8973 21.5898 20.2881 22.0684 20.5184 22.9251C20.5908 23.191 20.5269 23.3767 20.3858 23.7372C20.2857 23.9934 20.1724 24.2834 20.1308 24.6391C20.0223 25.4982 20.3466 26.3724 21.1135 27.2912C19.4543 27.4467 17.7434 27.2472 16.1614 26.6937L16.162 26.6925ZM7.78321 19.6232C7.79165 19.6497 7.79949 19.6762 7.80793 19.7027C7.79949 19.7021 7.79165 19.6985 7.78321 19.6979V19.6232ZM31.9689 37.8584H23.5268V35.3426H23.9476C23.9476 35.3426 23.9512 35.3438 23.9536 35.3438H31.2219C31.2256 35.3438 31.2286 35.3426 31.2316 35.3426H31.9689V37.8584ZM33.1861 22.3042L32.3035 23.7475C30.9619 25.9427 30.2911 27.1143 30.2911 27.2622C30.2911 27.595 30.5606 27.8651 30.894 27.8651C31.1418 27.8651 31.3552 27.715 31.4474 27.501C31.5487 27.3147 32.2143 26.2048 33.3314 24.3775L34.2146 22.933C34.8211 21.943 34.5185 20.6372 33.5346 20.0199C33.4972 19.997 33.4592 19.9752 33.4212 19.9541V14.0966C33.4212 13.6655 33.5888 13.2604 33.8933 12.9553C34.1977 12.6509 34.6005 12.4833 35.0273 12.4833C35.9129 12.4833 36.6334 13.2067 36.6334 14.0966V22.684C36.6334 24.914 35.9533 27.0464 34.6668 28.852L30.9115 34.1375H24.5571L24.5559 28.849C24.6994 26.3175 26.3748 25.327 27.7512 24.943C28.8749 24.6355 29.8739 23.9042 30.5612 22.8859L31.6439 21.2986C31.8538 20.9839 32.2782 20.8356 32.6357 20.9266C32.6405 20.9278 32.6447 20.929 32.6489 20.9308C32.7412 20.9604 32.822 20.9977 32.8985 21.0448C33.3278 21.3142 33.4544 21.8677 33.1867 22.3048L33.1861 22.3042ZM32.2155 19.6437V19.6979C32.2082 19.6985 32.2022 19.7015 32.195 19.7021C32.2016 19.6822 32.2088 19.663 32.2155 19.6437ZM31.4709 13.9049C31.5656 14.5089 31.6259 15.1185 31.6259 15.7243C31.6259 17.6168 31.1574 19.499 30.2718 21.1702L29.5634 22.2089C29.2101 22.7322 28.7483 23.144 28.2311 23.4358C27.8735 23.0415 27.6927 22.6749 27.7102 22.3403C27.724 21.9732 27.9664 21.5572 28.1798 21.1901C28.4915 20.6553 28.8442 20.0488 28.4294 19.4851C28.0918 19.0378 27.5715 19.092 27.2285 19.127C26.9312 19.1565 26.7419 19.168 26.5954 19.0733C26.4085 18.9491 26.2506 18.6507 26.1807 18.295C26.0902 17.8284 26.162 17.3503 26.3682 17.0477C26.5062 16.8457 26.6618 16.7842 27.0012 16.6636C27.387 16.5268 27.9151 16.3399 28.4409 15.778C28.9087 15.2776 29.0624 14.8188 29.1746 14.4836C29.2433 14.2774 29.2867 14.1569 29.3615 14.067C29.5218 13.8771 30.0174 13.6269 31.4721 13.9055L31.4709 13.9049ZM29.1052 8.5097C28.0755 9.19156 27.1549 9.46828 26.3639 9.326C26.1819 9.29465 25.9992 9.24159 25.8141 9.18975C25.1956 9.01612 24.4233 8.79908 23.6257 9.21869C22.8516 9.62804 22.6182 10.3304 22.4133 10.9502C22.2408 11.4704 22.0919 11.9202 21.6494 12.2343C20.8597 12.7974 19.6985 12.6268 19.5635 12.4791C19.5701 12.3736 19.7624 12.0751 19.9029 11.8569C20.3104 11.2257 20.8687 10.3611 20.8042 9.15779C20.7644 8.39515 20.4925 7.93757 20.2308 7.49445C20.0874 7.25209 19.9391 7.0013 19.8143 6.67092C19.5327 5.93842 19.5008 5.0757 19.6901 4.1129C19.7938 4.10989 19.895 4.09723 19.9993 4.09723C23.5533 4.09723 26.9114 5.73585 29.1052 8.5091V8.5097ZM18.4385 4.21539C18.2775 5.27465 18.3577 6.24468 18.6875 7.10137C18.8491 7.5264 19.0317 7.83568 19.1933 8.10879C19.4236 8.49764 19.5761 8.75447 19.6002 9.2217C19.6436 10.0356 19.2433 10.6559 18.89 11.2034C18.5362 11.752 18.1352 12.3735 18.5018 13.0247C18.7062 13.3822 19.0992 13.6342 19.6394 13.7529C19.8667 13.803 20.1042 13.8271 20.3442 13.8271C21.0598 13.8271 21.7953 13.6107 22.3488 13.217C23.112 12.6738 23.3592 11.928 23.5575 11.3294C23.7396 10.7789 23.859 10.4594 24.1869 10.2858C24.5432 10.0983 24.9128 10.1887 25.4874 10.3509C25.7122 10.4136 25.9353 10.4757 26.1535 10.5137C27.2586 10.7108 28.4849 10.3702 29.7943 9.49902C30.4183 10.4697 30.8897 11.5199 31.1972 12.6412C29.8697 12.4652 28.9563 12.675 28.436 13.2917C28.21 13.5624 28.1141 13.8482 28.0297 14.1008C27.932 14.3932 27.847 14.6458 27.5588 14.9551C27.2339 15.3023 26.9397 15.4066 26.5979 15.5278C26.2138 15.6641 25.7357 15.8329 25.371 16.3694C24.9839 16.9367 24.8441 17.7434 24.9966 18.5265C25.1292 19.2072 25.4675 19.7721 25.9317 20.082C26.4182 20.3991 26.924 20.3707 27.2791 20.3352C27.2321 20.4214 27.1796 20.5112 27.1368 20.5848C26.8661 21.0496 26.5291 21.6277 26.5044 22.2879C26.4767 22.8281 26.6636 23.3682 27.0524 23.9006C25.9829 24.2659 24.5812 25.0449 23.8427 26.6925C23.4165 26.8438 22.9884 26.9668 22.5513 27.0651C21.6615 26.203 21.2455 25.4379 21.3281 24.7868C21.3522 24.5794 21.4252 24.3931 21.5096 24.1773C21.6669 23.774 21.8622 23.2724 21.6826 22.6122C21.2154 20.8729 18.7839 20.3346 18.6923 20.3147C17.6162 20.0633 16.9114 20.2689 16.2904 20.4515C15.8015 20.5944 15.3403 20.7295 14.6452 20.6722C13.6938 20.595 13.188 20.2441 12.6014 19.8378C12.1101 19.4972 11.553 19.1107 10.7445 18.9588C10.1501 18.8455 9.52131 18.881 8.8696 19.0625C8.54645 17.99 8.37222 16.8722 8.37222 15.7256C8.37222 9.84508 12.7648 4.98286 18.4385 4.2166V4.21539ZM7.33225 20.935C7.33708 20.9338 7.3419 20.9326 7.34612 20.9314C7.43957 20.9073 7.52156 20.8958 7.59571 20.8958C7.90378 20.8958 8.18714 21.0466 8.35896 21.3034L9.4363 22.8829C10.126 23.9036 11.1244 24.6349 12.2451 24.9418C13.3176 25.2414 14.5656 25.9106 15.1365 27.3659C15.1365 27.3671 15.1377 27.3684 15.1377 27.3696C15.2999 27.7849 15.4102 28.2606 15.4422 28.8147V34.1375H9.08784L5.3319 28.8514C4.04596 27.047 3.36591 24.9146 3.36591 22.6846V14.0972C3.36591 13.2073 4.08635 12.4839 4.97198 12.4839C5.39882 12.4839 5.80155 12.6515 6.106 12.9559C6.41045 13.2604 6.57805 13.6655 6.57805 14.0972V19.9548C6.53826 19.9765 6.49847 19.9994 6.45929 20.0235C5.48081 20.6378 5.17817 21.9436 5.78406 22.933L6.66668 24.3769C7.78441 26.206 8.45059 27.3159 8.55188 27.5022C8.64412 27.7162 8.85754 27.8663 9.10532 27.8663C9.43871 27.8663 9.7082 27.5962 9.7082 27.2634C9.7082 27.1155 9.037 25.9433 7.69458 23.7469L6.81257 22.3048C6.5455 21.8677 6.6721 21.3148 7.09593 21.0484C7.17973 20.9971 7.26292 20.9591 7.33286 20.9362L7.33225 20.935Z" fill="white"/>
<path d="M10.6033 18.1772C10.7534 18.2495 10.895 18.2785 11.0307 18.2785C11.3749 18.2785 11.6764 18.0874 11.9507 17.9125C12.2461 17.725 12.6133 17.4917 13.1974 17.2988C13.8479 17.0842 14.3369 17.0631 14.7288 17.0468C15.237 17.0251 15.7621 17.0028 16.1081 16.4831C16.5241 15.8585 16.2112 15.2062 15.9592 14.6817C15.7338 14.2127 15.501 13.728 15.6192 13.1823C15.7229 12.7019 16.0503 12.3944 16.3668 12.0966C16.7448 11.7421 17.2144 11.3002 17.0607 10.6147C16.8135 9.50659 15.1731 9.19913 14.2169 9.11472C13.7774 9.07614 11.5642 8.94772 11.0843 10.2011C10.9113 10.6545 11.0771 11.0114 11.1874 11.2477C11.2592 11.4026 11.3213 11.5365 11.3358 11.7372C11.3611 12.0948 11.2152 12.3082 10.8836 12.7573C10.6557 13.0654 10.373 13.4482 10.1463 13.9697C9.48371 15.495 9.53917 17.6654 10.6033 18.1772ZM11.252 14.4508C11.4238 14.0553 11.642 13.7599 11.853 13.4741C12.2178 12.9798 12.5958 12.4685 12.5379 11.6522C12.5077 11.2296 12.3715 10.9354 12.2805 10.7407C12.2582 10.6919 12.228 10.6279 12.2154 10.6279C12.2135 10.6279 12.2123 10.6292 12.2111 10.6316C12.2847 10.4435 13.1142 10.2288 14.1108 10.3163C15.2141 10.4139 15.8525 10.7341 15.8869 10.8456C15.8604 10.9185 15.6686 11.0988 15.5414 11.2188C15.1538 11.5829 14.6233 12.0809 14.4406 12.9285C14.2356 13.8781 14.604 14.6449 14.8728 15.2044C14.9717 15.4106 15.1218 15.7229 15.1267 15.7982C15.0682 15.8254 14.8523 15.835 14.6787 15.8422C14.2362 15.8609 13.6303 15.8869 12.82 16.1539C12.0936 16.3939 11.6185 16.6953 11.3044 16.8949C11.2327 16.9407 11.1507 16.9925 11.0862 17.0299C10.8914 16.6941 10.7901 15.5149 11.252 14.4508Z" fill="white"/>
</svg>
