<svg width="24" height="25" viewBox="0 0 24 25" fill="none" xmlns="http://www.w3.org/2000/svg">
<g clip-path="url(#clip0_227_18381)">
<path d="M23.9553 14.8136C23.6372 13.9971 22.3025 13.2203 20.711 12.9247C19.5656 12.7111 16.6575 12.4836 14.409 14.9487C12.8969 16.6069 12.5373 18.7968 13.5349 20.2738C13.5486 20.2941 13.5657 20.3117 13.5798 20.3317C11.6861 21.266 9.48407 21.5029 7.40123 20.9398C8.48732 20.1574 8.81135 19.3535 8.87578 18.7697C8.97448 17.8767 8.52568 17.1539 8.11114 16.8061C7.62045 16.3942 6.98692 16.3501 6.4782 16.3149C5.93885 16.278 5.67343 16.2401 5.57295 16.0536C5.48419 15.8905 5.50266 15.8193 5.64459 15.4976C5.83159 15.074 6.11411 14.4342 5.75814 13.3356C5.62072 12.9112 5.74823 12.7179 5.95956 12.3975C6.17405 12.0726 6.46829 11.6279 6.32725 10.9466C6.25426 10.5933 6.01635 10.1107 5.29945 9.81785C4.24742 9.38759 2.61168 9.56079 1.23161 10.1763C1.44718 9.38798 1.77364 8.62494 2.21205 7.90816C3.93463 5.08166 7.01398 3.57767 10.1086 3.71798C9.97888 4.27781 10.2184 4.85678 10.4096 5.31869C10.5597 5.68233 10.7156 6.05811 10.6664 6.31811C10.6182 6.57178 10.3303 6.78716 10.0253 7.01518C9.60079 7.33329 9.07226 7.72846 9.0637 8.4129C9.0592 8.76662 9.16373 9.0541 9.37371 9.26767C9.77337 9.67321 10.4258 9.67456 11.0567 9.67592C11.4068 9.67681 11.7686 9.67773 12.0633 9.74575C12.339 9.80613 12.5301 10.0535 12.7527 10.3396C13.0131 10.6749 13.3087 11.0547 13.808 11.1259C13.9035 11.1394 13.9936 11.1457 14.0783 11.1457C14.8344 11.1457 15.1805 10.6388 15.4634 10.2229C15.6265 9.98322 15.796 9.73538 16.051 9.54074C16.051 9.54028 16.051 9.54028 16.051 9.54028C16.2367 9.39789 16.58 9.32625 16.9116 9.25687C17.192 9.19821 17.4911 9.13341 17.7551 9.01364C18.0546 9.7119 18.2673 10.4528 18.3786 11.2232C18.4161 11.4745 18.6486 11.6507 18.8999 11.6132C19.1511 11.5757 19.3274 11.3432 19.2899 11.092C18.8774 8.22315 17.2199 5.71059 14.7486 4.20308C10.181 1.41677 4.20707 2.8643 1.42076 7.42814C0.0744951 9.63694 -0.334274 12.2395 0.276991 14.7558C0.884503 17.2721 2.43704 19.4021 4.64584 20.7522C6.22088 21.7084 7.9609 22.1659 9.6822 22.1659C11.2601 22.1659 12.821 21.7784 14.2182 21.0441C14.9852 21.7133 16.0009 22.1014 17.0261 22.1014C17.2054 22.1014 17.3848 22.0897 17.5632 22.0654C18.6464 21.9176 20.6308 21.1723 21.7528 17.8298C22.262 16.314 23.0397 15.895 23.4578 15.6706C23.6813 15.5507 24.1454 15.3002 23.9553 14.8136ZM16.7224 8.35344C16.3106 8.43996 15.8428 8.53771 15.4905 8.80718C15.1174 9.0924 14.8867 9.43124 14.701 9.70341C14.3973 10.1499 14.3027 10.2657 13.9377 10.2121C13.808 10.1936 13.6421 9.98006 13.4817 9.77324C13.206 9.41863 12.8626 8.9766 12.2661 8.84547C11.8749 8.75536 11.4599 8.75447 11.0589 8.7531C10.6795 8.7522 10.1604 8.75131 10.0311 8.62018C9.99282 8.58097 9.98561 8.49221 9.98651 8.42462C9.98921 8.21015 10.2118 8.02855 10.5781 7.75414C10.9706 7.4608 11.4586 7.09584 11.573 6.48934C11.6731 5.95944 11.4545 5.43135 11.2621 4.96589C11.0212 4.38386 10.9184 4.06536 11.0563 3.81331C12.1621 3.98541 13.2522 4.372 14.2648 4.99059C15.5698 5.78625 16.6212 6.8917 17.3477 8.18818C17.1784 8.25795 16.934 8.30951 16.7224 8.35344ZM1.00801 11.3219C2.34133 10.5068 4.09096 10.3194 4.95024 10.6722C5.2242 10.7839 5.38325 10.9389 5.42335 11.1331C5.48419 11.426 5.39046 11.5851 5.1895 11.8892C4.94349 12.2623 4.606 12.7733 4.88041 13.6204C5.12776 14.3837 4.96871 14.7433 4.80064 15.1245C4.64429 15.4786 4.45008 15.9184 4.76099 16.4934C5.11426 17.1458 5.83564 17.1954 6.41465 17.2359C6.84812 17.2657 7.25725 17.2936 7.51816 17.5126C7.711 17.6748 8.02146 18.1011 7.95884 18.6688C7.88495 19.3373 7.30752 19.9869 6.28469 20.5546C5.8913 20.3882 5.50483 20.1935 5.12959 19.9647C3.12706 18.7421 1.72451 16.8183 1.17326 14.5383C0.919996 13.4925 0.863004 12.4304 0.991434 11.3936C0.99794 11.3697 1.00126 11.3459 1.00801 11.3219ZM20.8786 17.536C20.164 19.6628 18.9429 20.9461 17.4397 21.1507C16.5293 21.2731 15.5669 20.9673 14.8671 20.3806C15.6959 18.7593 16.718 17.5013 17.9138 16.6493C18.121 16.5015 18.1697 16.2131 18.0219 16.0058C17.8741 15.7985 17.5857 15.7508 17.3784 15.8977C16.1448 16.7768 15.085 18.0286 14.2193 19.6237C13.5833 18.5136 13.9327 16.8399 15.0904 15.5706C16.4701 14.0584 18.1463 13.724 19.3557 13.724C19.8441 13.724 20.2568 13.779 20.5425 13.8322C21.7077 14.0485 22.5666 14.5306 22.927 14.9082C22.408 15.193 21.4662 15.785 20.8786 17.536Z" fill="#8EC73D"/>
</g>
<defs>
<clipPath id="clip0_227_18381">
<rect width="24" height="24" fill="white" transform="translate(0 0.475586)"/>
</clipPath>
</defs>
</svg>
