<svg width="60" height="61" viewBox="0 0 60 61" fill="none" xmlns="http://www.w3.org/2000/svg">
<path fill-rule="evenodd" clip-rule="evenodd" d="M56.2018 38.9637L50.6627 25.9109L50.6614 25.9115C50.2607 24.9716 49.1719 24.5314 48.2328 24.9303L43.6057 26.8939C42.7941 27.2384 42.3425 28.1112 42.5142 28.9625C41.5738 29.3122 40.6759 29.7138 39.855 30.081C38.599 30.6428 37.5401 31.1165 37.0071 31.1183C36.4329 31.1201 34.3669 29.8416 32.0251 30.1089V30.1093C31.5082 30.1682 31.2213 30.1935 30.8951 30.3228V29.3583C30.8951 26.1554 32.6235 23.3002 35.2869 21.7666C40.9114 25.5683 47.543 23.4924 50.1847 17.2175C50.352 16.8206 50.2098 16.3708 49.8678 16.1367C48.5487 15.1428 47.0959 14.4427 45.5927 14.0983C42.5205 13.3944 39.4452 14.2188 37.1367 16.3644C36.0341 17.3892 35.1428 18.6822 34.5011 20.1554C34.4278 20.2362 32.4666 21.1451 30.8952 23.481V18.5241C34.569 15.461 35.9323 10.7201 33.6562 6.42276C32.9298 5.0512 31.8717 3.82343 30.5639 2.80472C30.2498 2.54854 29.79 2.53214 29.4555 2.79054C23.9982 7.01585 23.7947 14.0955 29.1061 18.5241V23.481C27.5347 21.1453 25.5732 20.2362 25.5001 20.1554C24.8584 18.6823 23.9672 17.3893 22.8646 16.3645C20.5561 14.2189 17.4807 13.3945 14.4085 14.0984C12.9054 14.4428 11.4526 15.1429 10.1334 16.1368C9.79136 16.3709 9.64933 16.8207 9.81656 17.2176C12.4581 23.4928 19.0902 25.5684 24.7144 21.7667C27.3778 23.3006 29.1062 26.1554 29.1062 29.3586V30.4057C27.8548 30.0069 26.3487 29.7782 23.8689 30.6048C23.1993 30.8279 22.561 31.179 22.0029 31.1219C20.5302 30.9714 18.8477 30.2269 17.2786 29.5538L17.3762 29.3239C17.7749 28.3863 17.3339 27.2922 16.3956 26.894L11.7684 24.9304C10.8294 24.5315 9.74062 24.9717 9.33984 25.9116L9.33855 25.911L3.79921 38.9637C3.40066 39.9014 3.84152 40.9954 4.77984 41.3936L9.40699 43.3572C10.2644 43.7218 11.2618 43.3853 11.7287 42.5914L17.1813 46.4361L16.1742 48.2546C14.9773 50.4159 16.9502 52.9653 19.3351 52.3601C19.793 53.78 21.2687 54.5983 22.7141 54.2315C23.1718 55.651 24.6473 56.4699 26.0931 56.103C26.85 58.4503 30.0562 58.7598 31.2485 56.607L31.9009 55.4291L33.9011 56.3772C34.5647 56.6917 35.3681 56.8945 36.0811 56.8086C36.7661 56.726 37.3655 56.4073 37.7381 55.7401C38.1687 55.1632 38.3457 54.4709 38.286 53.8024C39.76 53.5764 40.8033 52.2482 40.6707 50.7638C42.1446 50.5379 43.188 49.2097 43.0555 47.7253C44.8934 47.4434 45.9496 45.5095 45.2196 43.8134L47.61 42.8455L47.6095 42.8444L48.2511 42.5544C48.7078 43.374 49.7224 43.7275 50.5941 43.3572L55.2212 41.3936C56.1598 40.9953 56.6 39.9015 56.2018 38.9637ZM48.246 17.1704C46.0983 21.4654 41.6211 23.1121 37.3343 20.9132C38.0718 20.7116 38.8481 20.6037 39.6496 20.6037C40.1436 20.6037 40.5441 20.2032 40.5441 19.7092C40.5441 19.2153 40.1435 18.8148 39.6496 18.8148C38.7702 18.8148 37.9161 18.9226 37.0996 19.1254C39.7663 15.273 44.3589 14.605 48.246 17.1704ZM20.3514 20.6037C21.1528 20.6037 21.9292 20.7116 22.6666 20.9132C18.3799 23.1121 13.9027 21.4655 11.7551 17.1704C15.6421 14.605 20.2348 15.273 22.9014 19.1253C22.0848 18.9225 21.2307 18.8146 20.3515 18.8146C19.8574 18.8146 19.457 19.2152 19.457 19.7091C19.457 20.2031 19.8573 20.6037 20.3514 20.6037ZM30.0005 4.65417C33.5396 7.7914 34.025 12.4767 30.895 16.0441V12.8615C30.895 12.3675 30.4944 11.967 30.0005 11.967C29.5065 11.967 29.106 12.3676 29.106 12.8615V16.0441C25.976 12.4768 26.4613 7.79151 30.0005 4.65417ZM10.1946 41.6777L10.1139 41.7183L5.47874 39.7512L5.43808 39.6706L10.9807 26.6097L10.9794 26.6091L11.0614 26.5689L15.6966 28.536L15.7373 28.6168L10.1946 41.6777ZM19.5526 50.1268C19.415 50.3746 19.187 50.5443 18.9305 50.618C18.0083 50.8828 17.3041 49.8945 17.7325 49.1211L19.6528 45.6539C19.7904 45.4055 20.0185 45.2356 20.2753 45.1618C21.1971 44.8971 21.9041 45.8924 21.4735 46.6583L20.765 47.9375L19.5526 50.1268ZM22.9321 51.9975C22.7945 52.2458 22.5663 52.4158 22.3096 52.4895C21.9988 52.5787 21.7471 52.5288 21.4716 52.3771C21.0436 52.1416 20.8495 51.473 21.0872 51.0394L21.1478 50.9275L23.0319 47.5253C23.1695 47.277 23.3977 47.1071 23.6544 47.0334C24.5684 46.771 25.284 47.7509 24.8524 48.5303L22.9321 51.9975ZM26.31 53.8707C26.1723 54.118 25.9446 54.2873 25.6886 54.3609C24.7664 54.6257 24.0621 53.6374 24.4904 52.8641L26.4108 49.3968C26.5484 49.1485 26.7765 48.9786 27.0333 48.9049C27.9472 48.6424 28.663 49.6224 28.2314 50.4018L26.31 53.8707ZM31.6348 52.2262L29.7247 55.6777C29.7013 55.7129 29.6803 55.7497 29.6619 55.7881C29.5226 56.0105 29.3075 56.1635 29.0675 56.2324C28.7569 56.3216 28.5049 56.2716 28.2294 56.1199C27.7976 55.8821 27.6082 55.205 27.845 54.7822L29.7898 51.2681C29.9273 51.0198 30.1555 50.8498 30.4123 50.776C30.723 50.6868 30.9748 50.7367 31.2503 50.8884C31.6819 51.126 31.8716 51.8029 31.6348 52.2262ZM41.9882 45.7519C41.6003 45.4473 41.0387 45.5145 40.7339 45.9023C40.429 46.2901 40.4962 46.8516 40.8841 47.1568C41.1077 47.3325 41.2394 47.5839 41.2712 47.8475C41.3844 48.7876 40.3085 49.3443 39.6035 48.7906C39.2156 48.4857 38.6539 48.553 38.3491 48.9408C38.0443 49.3287 38.1115 49.8903 38.4993 50.1952C38.7231 50.3709 38.8547 50.6224 38.8864 50.886C38.9996 51.8262 37.9237 52.3829 37.2185 51.829C36.8306 51.5241 36.2689 51.5914 35.9641 51.9793C35.6815 52.3389 35.7187 52.8479 36.0348 53.1631L36.0341 53.1639C36.0677 53.1976 36.1034 53.2279 36.1405 53.255C36.5532 53.578 36.6312 54.2594 36.3101 54.6659C36.1549 54.8624 36.1805 54.9962 35.8713 55.0334C35.5132 55.0765 35.0606 54.9515 34.6627 54.7628L32.7673 53.8644L33.1687 53.1396C34.3678 50.944 32.3703 48.4346 30.0078 49.034C29.5501 47.6145 28.0705 46.7967 26.6289 47.1625C26.1711 45.743 24.6918 44.9254 23.2499 45.291C22.7824 43.8416 21.2493 43.0224 19.7862 43.4424C19.0244 43.6611 18.4557 44.1348 18.0507 44.8659C16.0593 43.4391 14.4078 42.2627 12.4521 40.9264L16.5802 31.1989C18.2753 31.9269 20.0667 32.7174 21.821 32.8967C22.6714 32.9835 23.2448 32.7566 23.8869 32.5021C25.8504 31.7245 27.2026 31.7135 28.4613 32.0806L22.9535 36.4475C21.991 37.2106 22.0652 38.6967 23.0857 39.3726C24.6827 40.4305 26.2635 40.7131 27.8228 40.423C29.3168 40.145 30.7543 39.3363 32.1434 38.184C32.1811 38.1835 32.2364 38.1957 32.302 38.2163L37.9571 39.9937L43.2198 44.078C43.4661 44.2849 43.6157 44.4745 43.656 44.8087C43.7686 45.7435 42.697 46.3085 41.9882 45.7519ZM46.9298 41.1929L43.9605 42.3952L38.92 38.4833C38.8335 38.4165 38.7387 38.3681 38.6401 38.3375L38.6405 38.3366L32.8334 36.5114C32.2106 36.3155 31.5482 36.3626 31.018 36.8034C28.852 38.6042 26.561 39.5289 24.0714 37.8843L24.0649 37.8454L31.0469 32.3098C31.5878 31.9106 31.5593 31.96 32.2278 31.8837V31.8842C34.1639 31.6633 35.8179 32.9043 37.0071 32.9006C37.9259 32.8976 39.1409 32.3541 40.5818 31.7096C41.3871 31.3494 42.2694 30.9547 43.175 30.6199L47.5439 40.915C47.3336 41.0061 47.1282 41.0982 46.9298 41.1929ZM54.5373 39.7426L49.8872 41.7183L49.8064 41.6777L44.2638 28.6169L44.3046 28.5362L48.9318 26.5726L49.0218 26.6092L49.0205 26.6098L54.5339 39.6022C54.5485 39.6404 54.5905 39.7122 54.5373 39.7426Z" fill="#8EC73D"/>
</svg>
