<svg width="31" height="30" viewBox="0 0 31 30" fill="none" xmlns="http://www.w3.org/2000/svg">
<path d="M15.5 1C7.78009 1 1.5 7.28009 1.5 15C1.5 22.7199 7.78009 29 15.5 29C23.2199 29 29.5 22.7199 29.5 15C29.5 7.28009 23.2199 1 15.5 1ZM22.1582 22.2414C21.9307 22.4689 21.632 22.5834 21.3334 22.5834C21.0348 22.5834 20.7359 22.4689 20.5086 22.2414L14.6752 16.4082C14.4558 16.1901 14.3334 15.8936 14.3334 15.5834V8C14.3334 7.35486 14.8559 6.8334 15.5 6.8334C16.1441 6.8334 16.6666 7.35486 16.6666 8V15.1004L22.1582 20.5918C22.6143 21.0481 22.6143 21.7853 22.1582 22.2414Z" fill="white"/>
</svg>
