<svg width="30" height="30" viewBox="0 0 30 30" fill="none" xmlns="http://www.w3.org/2000/svg">
<path d="M6.94188 3.5314L4.76821 5.70507C2.98894 7.48434 2.50001 10.1807 3.54124 12.4714C6.56094 19.1147 11.8853 24.4391 18.5286 27.4588C20.8193 28.5 23.5157 28.0111 25.2949 26.2318L27.4686 24.0581C28.1771 23.3496 28.1771 22.2008 27.4686 21.4923L24.5445 18.5682C23.9923 18.016 23.1487 17.8791 22.4502 18.2283L20.8274 19.0397C19.4304 19.7382 17.7432 19.4644 16.6388 18.36L12.64 14.3612C11.5356 13.2568 11.2618 11.5696 11.9603 10.1726L12.7717 8.5498C13.1209 7.8513 12.984 7.00769 12.4318 6.45549L9.50772 3.5314C8.79918 2.82287 7.65041 2.82287 6.94188 3.5314Z" fill="white"/>
</svg>
