<svg width="60" height="61" viewBox="0 0 60 61" fill="none" xmlns="http://www.w3.org/2000/svg">
<path d="M7.457 15.6815C5.13109 15.6815 3.23926 17.5788 3.23926 19.9101V32.7912C3.23926 36.5152 4.37508 40.0773 6.52284 43.0905L11.4116 49.9706H11.1403C10.6402 49.9706 10.236 50.3757 10.236 50.8749V56.4572C10.236 56.9564 10.6402 57.3616 11.1403 57.3616H25.6121C26.1122 57.3616 26.5164 56.9564 26.5164 56.4572V50.8749C26.5164 50.3757 26.1122 49.9706 25.6121 49.9706H24.9718L24.97 41.9357C24.9492 41.5722 24.9076 41.2294 24.8552 40.8984C26.5227 41.3624 28.2464 41.5984 29.9998 41.5984C31.2415 41.5984 32.4768 41.4808 33.6732 41.2493C33.6922 41.2466 33.7121 41.2439 33.7311 41.2403C34.2131 41.1453 34.6833 41.0314 35.1508 40.9003C35.0948 41.2466 35.0496 41.6047 35.0279 41.9863V49.9706H34.3876C33.8875 49.9706 33.4833 50.3757 33.4833 50.8749V56.4572C33.4833 56.9564 33.8875 57.3616 34.3876 57.3616H48.8594C49.3595 57.3616 49.7637 56.9564 49.7637 56.4572V50.8749C49.7637 50.3757 49.3595 49.9706 48.8594 49.9706H48.5881L53.476 43.0914C55.6246 40.0764 56.7604 36.5143 56.7604 32.7903V19.9092C56.7604 17.5779 54.8686 15.6806 52.5427 15.6806C51.4195 15.6806 50.3615 16.1201 49.563 16.9186C49.2248 17.2569 48.9661 17.6502 48.7626 18.0689C48.1956 15.5757 47.1665 13.2688 45.688 11.2133C45.6798 11.2006 45.678 11.1862 45.669 11.1735C45.6608 11.1627 45.6482 11.1581 45.6391 11.1473C42.039 6.10842 36.1989 3.10156 30.0017 3.10156C29.5884 3.10156 29.1851 3.13774 28.7781 3.16396C28.7257 3.16486 28.6741 3.16215 28.6235 3.1721C20.0958 3.78071 13.0963 9.95448 11.247 18.0816C11.0426 17.6584 10.7822 17.2614 10.4403 16.9195C9.64183 16.121 8.58378 15.6815 7.46062 15.6815H7.457ZM24.7069 55.5529H12.0437V51.7792H13.1497C13.1542 51.7792 13.1596 51.781 13.1642 51.781H24.0666C24.0666 51.781 24.072 51.7792 24.0757 51.7792H24.7069V55.5529ZM24.2421 38.804C23.004 36.0341 20.4937 34.8929 18.8478 34.4335C17.579 34.0862 16.4441 33.2497 15.6501 32.0732L14.5903 30.5205C14.3425 30.0584 14.1209 29.5701 13.912 29.07C14.5722 28.9027 15.198 28.8656 15.7785 28.9768C16.615 29.1342 17.1965 29.5375 17.8711 30.005C18.8261 30.667 19.9086 31.4176 21.8176 31.5722C23.1939 31.6853 24.1236 31.414 24.9429 31.1752C25.7984 30.9256 26.4739 30.7258 27.6423 30.9998C28.3449 31.1499 30.4312 31.8679 30.7767 33.153C30.8852 33.5518 30.7893 33.8303 30.5777 34.3711C30.4276 34.7554 30.2576 35.1904 30.1952 35.7239C30.0324 37.0126 30.5189 38.3239 31.6692 39.702C29.1805 39.9353 26.6141 39.636 24.2411 38.8059L24.2421 38.804ZM11.6738 28.2C11.6865 28.2398 11.6983 28.2796 11.7109 28.3194C11.6983 28.3185 11.6865 28.313 11.6738 28.3121V28.2ZM47.9524 55.5529H35.2892V51.7792H35.9204C35.9204 51.7792 35.9258 51.781 35.9295 51.781H46.8319C46.8373 51.781 46.8419 51.7792 46.8464 51.7792H47.9524V55.5529ZM49.7782 32.2215L48.4543 34.3865C46.4419 37.6794 45.4357 39.4368 45.4357 39.6586C45.4357 40.1578 45.8399 40.5629 46.34 40.5629C46.7117 40.5629 47.0318 40.3378 47.1701 40.0167C47.3221 39.7373 48.3204 38.0725 49.9961 35.3315L51.321 33.1647C52.2307 31.6798 51.7767 29.7211 50.3009 28.795C50.2448 28.7607 50.1879 28.7281 50.1309 28.6965V19.9101C50.1309 19.2635 50.3823 18.6558 50.839 18.1983C51.2956 17.7416 51.8997 17.4902 52.54 17.4902C53.8684 17.4902 54.9491 18.5754 54.9491 19.9101V32.7912C54.9491 36.1363 53.929 39.3349 51.9992 42.0433L46.3662 49.9715H36.8347L36.8329 42.0388C37.0481 38.2416 39.5612 36.7558 41.6258 36.1797C43.3114 35.7185 44.8099 34.6216 45.8408 33.0942L47.4649 30.7131C47.7797 30.2411 48.4163 30.0186 48.9526 30.1551C48.9598 30.157 48.9661 30.1588 48.9724 30.1615C49.1108 30.2058 49.232 30.2619 49.3468 30.3324C49.9907 30.7366 50.1806 31.5668 49.7791 32.2224L49.7782 32.2215ZM48.3222 28.2308V28.3121C48.3114 28.313 48.3023 28.3176 48.2915 28.3185C48.3014 28.2886 48.3123 28.2597 48.3222 28.2308ZM47.2054 19.6226C47.3474 20.5287 47.4378 21.4429 47.4378 22.3518C47.4378 25.1904 46.7352 28.0137 45.4067 30.5205L44.3441 32.0786C43.8142 32.8636 43.1215 33.4812 42.3456 33.9189C41.8093 33.3275 41.538 32.7777 41.5643 32.2758C41.5851 31.725 41.9486 31.1011 42.2687 30.5503C42.7363 29.7482 43.2653 28.8385 42.6431 27.9929C42.1367 27.3219 41.3563 27.4033 40.8417 27.4558C40.3959 27.5001 40.1119 27.5172 39.8922 27.3753C39.6118 27.189 39.3749 26.7413 39.27 26.2078C39.1344 25.5079 39.242 24.7907 39.5513 24.3368C39.7583 24.0338 39.9917 23.9416 40.5008 23.7607C41.0796 23.5554 41.8717 23.2751 42.6603 22.4323C43.3621 21.6817 43.5927 20.9935 43.7609 20.4907C43.864 20.1814 43.9291 20.0006 44.0412 19.8658C44.2817 19.581 45.0251 19.2057 47.2072 19.6235L47.2054 19.6226ZM43.6569 11.5298C42.1123 12.5526 40.7314 12.9677 39.5449 12.7543C39.2718 12.7072 38.9978 12.6277 38.7202 12.5499C37.7924 12.2894 36.6339 11.9639 35.4375 12.5933C34.2764 13.2073 33.9264 14.2608 33.6189 15.1905C33.3603 15.9709 33.1369 16.6455 32.4732 17.1167C31.2885 17.9613 29.5468 17.7054 29.3442 17.4838C29.3542 17.3256 29.6426 16.8779 29.8533 16.5506C30.4647 15.6038 31.3021 14.307 31.2053 12.502C31.1456 11.358 30.7378 10.6716 30.3453 10.0069C30.1301 9.6434 29.9076 9.2672 29.7204 8.77164C29.2981 7.67289 29.2502 6.37881 29.5341 4.93462C29.6897 4.93009 29.8416 4.9111 29.998 4.9111C35.329 4.9111 40.3661 7.36904 43.6569 11.5289V11.5298ZM27.6568 5.08835C27.4153 6.67724 27.5356 8.13228 28.0302 9.41732C28.2726 10.0549 28.5466 10.5188 28.789 10.9284C29.1344 11.5117 29.3632 11.897 29.3994 12.5978C29.4645 13.8186 28.864 14.7492 28.3341 15.5703C27.8033 16.3932 27.2019 17.3256 27.7517 18.3022C28.0583 18.8385 28.6479 19.2165 29.4582 19.3947C29.7991 19.4697 30.1554 19.5059 30.5153 19.5059C31.5887 19.5059 32.692 19.1812 33.5222 18.5907C34.667 17.7759 35.0378 16.6573 35.3353 15.7593C35.6084 14.9337 35.7875 14.4544 36.2794 14.1939C36.8139 13.9127 37.3682 14.0483 38.23 14.2916C38.5674 14.3856 38.902 14.4788 39.2293 14.5358C40.8869 14.8315 42.7263 14.3205 44.6905 13.0138C45.6265 14.4697 46.3336 16.0451 46.7948 17.7271C44.8035 17.463 43.4335 17.7777 42.6531 18.7029C42.3139 19.1089 42.1702 19.5375 42.0436 19.9165C41.8971 20.355 41.7696 20.734 41.3373 21.1979C40.8499 21.7188 40.4086 21.8752 39.8958 22.057C39.3198 22.2614 38.6026 22.5146 38.0555 23.3194C37.4749 24.1704 37.2651 25.3803 37.4939 26.5551C37.6929 27.576 38.2002 28.4234 38.8965 28.8882C39.6263 29.3639 40.385 29.3214 40.9177 29.268C40.8471 29.3973 40.7685 29.5321 40.7043 29.6424C40.2982 30.3396 39.7927 31.2069 39.7556 32.1971C39.714 33.0074 39.9944 33.8176 40.5777 34.6161C38.9734 35.1642 36.8709 36.3325 35.7631 38.804C35.1237 39.031 34.4816 39.2155 33.826 39.3629C32.4912 38.0697 31.8673 36.9222 31.9912 35.9455C32.0273 35.6344 32.1368 35.355 32.2634 35.0312C32.4994 34.4262 32.7924 33.6738 32.5229 32.6836C31.8221 30.0747 28.1749 29.2671 28.0375 29.2373C26.4233 28.8602 25.3661 29.1685 24.4347 29.4425C23.7013 29.6569 23.0095 29.8594 21.9668 29.7735C20.5398 29.6578 19.781 29.1315 18.9011 28.5219C18.1641 28.011 17.3285 27.4313 16.1158 27.2034C15.2242 27.0334 14.281 27.0868 13.3034 27.359C12.8187 25.7502 12.5574 24.0736 12.5574 22.3536C12.5574 13.5329 19.1462 6.23955 27.6568 5.09016V5.08835ZM10.9974 30.1678C11.0046 30.166 11.0119 30.1642 11.0182 30.1624C11.1584 30.1262 11.2814 30.109 11.3926 30.109C11.8547 30.109 12.2797 30.3351 12.5375 30.7203L14.1535 33.0897C15.188 34.6207 16.6856 35.7176 18.3667 36.1779C19.9755 36.6274 21.8474 37.6311 22.7038 39.8142C22.7038 39.816 22.7056 39.8178 22.7056 39.8196C22.9489 40.4427 23.1144 41.1562 23.1623 41.9872V49.9715H13.6308L7.99688 42.0424C6.06797 39.3358 5.04789 36.1372 5.04789 32.7921V19.911C5.04789 18.5763 6.12856 17.4911 7.457 17.4911C8.09726 17.4911 8.70134 17.7425 9.15802 18.1992C9.6147 18.6558 9.8661 19.2635 9.8661 19.911V28.6974C9.80642 28.7299 9.74673 28.7643 9.68795 28.8005C8.22024 29.722 7.76628 31.6807 8.67512 33.1647L9.99904 35.3306C11.6756 38.0743 12.6749 39.7391 12.8268 40.0185C12.9652 40.3396 13.2853 40.5648 13.657 40.5648C14.1571 40.5648 14.5613 40.1596 14.5613 39.6604C14.5613 39.4386 13.5545 37.6803 11.5409 34.3855L10.2179 32.2224C9.81727 31.5668 10.0072 30.7375 10.6429 30.3378C10.7686 30.261 10.8934 30.204 10.9983 30.1696L10.9974 30.1678Z" fill="#8EC73D"/>
<path d="M15.9029 26.031C16.1281 26.1395 16.3406 26.183 16.5441 26.183C17.0605 26.183 17.5126 25.8963 17.9241 25.634C18.3672 25.3528 18.9179 25.0028 19.7942 24.7134C20.77 24.3915 21.5034 24.3598 22.0912 24.3354C22.8535 24.3029 23.6412 24.2694 24.1603 23.4899C24.7842 22.553 24.3149 21.5745 23.9369 20.7878C23.5987 20.0842 23.2496 19.3572 23.4269 18.5387C23.5824 17.818 24.0734 17.3568 24.5482 16.9101C25.1152 16.3783 25.8197 15.7155 25.5891 14.6873C25.2183 13.0251 22.7577 12.5639 21.3234 12.4373C20.6642 12.3794 17.3444 12.1868 16.6246 14.0669C16.365 14.7469 16.6137 15.2823 16.7792 15.6368C16.8868 15.8692 16.98 16.07 17.0017 16.3711C17.0397 16.9074 16.8208 17.2275 16.3234 17.9012C15.9816 18.3633 15.5575 18.9376 15.2175 19.7198C14.2236 22.0077 14.3068 25.2633 15.9029 26.031ZM16.876 20.4414C17.1337 19.8482 17.4611 19.4051 17.7776 18.9764C18.3247 18.2349 18.8917 17.468 18.8049 16.2436C18.7597 15.6097 18.5553 15.1684 18.4187 14.8763C18.3853 14.803 18.3401 14.7072 18.3211 14.7072C18.3184 14.7072 18.3166 14.709 18.3147 14.7126C18.4251 14.4304 19.6694 14.1085 21.1643 14.2396C22.8192 14.3861 23.7768 14.8663 23.8284 15.0336C23.7886 15.143 23.501 15.4134 23.3102 15.5934C22.7287 16.1396 21.9329 16.8866 21.6589 18.158C21.3514 19.5823 21.904 20.7326 22.3073 21.5718C22.4556 21.8811 22.6808 22.3495 22.688 22.4626C22.6003 22.5033 22.2766 22.5177 22.0161 22.5286C21.3523 22.5566 20.4435 22.5955 19.2281 22.9961C18.1384 23.3561 17.4258 23.8082 16.9546 24.1075C16.847 24.1763 16.724 24.254 16.6273 24.3101C16.3352 23.8064 16.1833 22.0376 16.876 20.4414Z" fill="#8EC73D"/>
</svg>
