<svg width="40" height="41" viewBox="0 0 40 41" fill="none" xmlns="http://www.w3.org/2000/svg">
<path fill-rule="evenodd" clip-rule="evenodd" d="M37.4685 25.9148L33.7758 17.2129L33.7749 17.2133C33.5078 16.5867 32.7819 16.2932 32.1559 16.5592L29.0711 17.8682C28.53 18.0979 28.229 18.6798 28.3435 19.2473C27.7165 19.4804 27.1179 19.7482 26.5706 19.993C25.7333 20.3675 25.0274 20.6833 24.6721 20.6845C24.2892 20.6857 22.9119 19.8334 21.3507 20.0116V20.0118C21.0061 20.0511 20.8149 20.068 20.5974 20.1542V19.5112C20.5974 17.3759 21.7496 15.4724 23.5253 14.45C27.2749 16.9845 31.696 15.6006 33.4571 11.4173C33.5686 11.1527 33.4739 10.8528 33.2459 10.6967C32.3664 10.0342 31.3979 9.56745 30.3958 9.33784C28.3477 8.86854 26.2974 9.41815 24.7585 10.8485C24.0234 11.5317 23.4292 12.3938 23.0014 13.3759C22.9525 13.4298 21.645 14.0357 20.5974 15.593V12.2884C23.0467 10.2463 23.9555 7.08573 22.4381 4.22081C21.9539 3.30643 21.2485 2.48792 20.3766 1.80878C20.1672 1.63799 19.8606 1.62706 19.6377 1.79932C15.9995 4.6162 15.8638 9.33596 19.4047 12.2884V15.593C18.3571 14.0358 17.0495 13.4298 17.0007 13.3759C16.5729 12.3939 15.9788 11.5318 15.2437 10.8486C13.7047 9.41823 11.6545 8.86862 9.60635 9.33792C8.60424 9.56753 7.63573 10.0342 6.75627 10.6968C6.52823 10.8529 6.43354 11.1528 6.54502 11.4174C8.30604 15.6008 12.7274 16.9846 16.4769 14.4501C18.2525 15.4727 19.4048 17.3759 19.4048 19.5114V20.2094C18.5705 19.9435 17.5664 19.7911 15.9132 20.3421C15.4668 20.4909 15.0413 20.7249 14.6692 20.6869C13.6874 20.5866 12.5658 20.0903 11.5197 19.6415L11.5848 19.4882C11.8506 18.8632 11.5566 18.1338 10.931 17.8683L7.84627 16.5592C7.22026 16.2933 6.4944 16.5867 6.22721 17.2134L6.22635 17.213L2.53346 25.9148C2.26776 26.5399 2.56166 27.2692 3.18721 27.5347L6.27197 28.8438C6.84362 29.0868 7.50854 28.8625 7.81979 28.3332L11.4549 30.8964L10.7835 32.1087C9.98549 33.5496 11.3008 35.2492 12.8907 34.8457C13.196 35.7923 14.1798 36.3378 15.1434 36.0933C15.4485 37.0396 16.4322 37.5856 17.396 37.341C17.9006 38.9058 20.0381 39.1121 20.833 37.677L21.2679 36.8917L22.6014 37.5238C23.0438 37.7335 23.5794 37.8686 24.0547 37.8114C24.5114 37.7563 24.911 37.5438 25.1594 37.099C25.4464 36.7144 25.5645 36.2529 25.5246 35.8072C26.5073 35.6566 27.2028 34.7711 27.1145 33.7815C28.0971 33.6309 28.7927 32.7454 28.7043 31.7558C29.9296 31.5679 30.6337 30.2786 30.1471 29.1479L31.7406 28.5026L31.7403 28.5019L32.1681 28.3085C32.4725 28.8549 33.1489 29.0906 33.73 28.8438L36.8148 27.5347C37.4405 27.2692 37.734 26.5399 37.4685 25.9148ZM32.1646 11.3859C30.7328 14.2492 27.7481 15.3471 24.8902 13.8811C25.3818 13.7467 25.8994 13.6748 26.4337 13.6748C26.7631 13.6748 27.03 13.4078 27.03 13.0785C27.03 12.7492 26.763 12.4821 26.4337 12.4821C25.8474 12.4821 25.2781 12.554 24.7337 12.6892C26.5115 10.121 29.5732 9.67565 32.1646 11.3859ZM13.5682 13.6748C14.1025 13.6748 14.6201 13.7467 15.1117 13.8811C12.2539 15.3471 9.26908 14.2493 7.83737 11.3859C10.4287 9.67565 13.4905 10.121 15.2682 12.6892C14.7239 12.5539 14.1545 12.4821 13.5683 12.4821C13.2389 12.4821 12.972 12.7491 12.972 13.0784C12.972 13.4077 13.2388 13.6748 13.5682 13.6748ZM20.001 3.04174C22.3604 5.13323 22.684 8.25674 20.5973 10.635V8.51331C20.5973 8.18393 20.3303 7.91698 20.001 7.91698C19.6717 7.91698 19.4046 8.18401 19.4046 8.51331V10.635C17.318 8.25682 17.6415 5.13331 20.001 3.04174ZM6.79705 27.7241L6.74323 27.7512L3.65315 26.4398L3.62604 26.386L7.32112 17.6788L7.32026 17.6784L7.37494 17.6516L10.465 18.963L10.4922 19.0168L6.79705 27.7241ZM13.0357 33.3568C12.944 33.5221 12.792 33.6352 12.621 33.6843C12.0062 33.8608 11.5367 33.202 11.8223 32.6864L13.1025 30.3749C13.1942 30.2093 13.3463 30.096 13.5175 30.0468C14.1321 29.8703 14.6034 30.5339 14.3163 31.0445L13.844 31.8973L13.0357 33.3568ZM15.2887 34.6039C15.197 34.7695 15.0449 34.8828 14.8737 34.932C14.6665 34.9914 14.4987 34.9581 14.315 34.8571C14.0297 34.7 13.9003 34.2543 14.0588 33.9653L14.0992 33.8906L15.3553 31.6225C15.447 31.457 15.5991 31.3437 15.7703 31.2946C16.3796 31.1196 16.8567 31.7729 16.5689 32.2925L15.2887 34.6039ZM17.5406 35.8528C17.4488 36.0176 17.2971 36.1305 17.1264 36.1796C16.5116 36.3561 16.0421 35.6972 16.3276 35.1817L17.6078 32.8702C17.6996 32.7046 17.8517 32.5914 18.0228 32.5422C18.6321 32.3672 19.1093 33.0206 18.8216 33.5402L17.5406 35.8528ZM21.0905 34.7564L19.8171 37.0574C19.8015 37.0809 19.7875 37.1054 19.7753 37.131C19.6824 37.2793 19.539 37.3813 19.379 37.4272C19.1719 37.4867 19.0039 37.4534 18.8203 37.3522C18.5324 37.1937 18.4061 36.7423 18.564 36.4604L19.8605 34.1177C19.9522 33.9521 20.1043 33.8389 20.2755 33.7896C20.4827 33.7302 20.6505 33.7635 20.8342 33.8646C21.1219 34.023 21.2484 34.4742 21.0905 34.7564ZM27.9928 30.4403C27.7342 30.2371 27.3598 30.282 27.1566 30.5405C26.9533 30.799 26.9981 31.1734 27.2567 31.3768C27.4058 31.4939 27.4936 31.6616 27.5148 31.8373C27.5903 32.464 26.873 32.8352 26.403 32.466C26.1444 32.2628 25.7699 32.3076 25.5667 32.5662C25.3635 32.8248 25.4083 33.1992 25.6668 33.4024C25.816 33.5196 25.9038 33.6872 25.9249 33.863C26.0004 34.4898 25.2831 34.8609 24.813 34.4917C24.5544 34.2884 24.1799 34.3332 23.9767 34.5918C23.7883 34.8316 23.8131 35.1709 24.0239 35.381L24.0234 35.3816C24.0458 35.404 24.0696 35.4242 24.0943 35.4423C24.3695 35.6576 24.4214 36.1119 24.2074 36.3829C24.1039 36.5139 24.121 36.6031 23.9149 36.6279C23.6761 36.6567 23.3744 36.5733 23.1091 36.4475L21.8455 35.8485L22.1131 35.3653C22.9125 33.9017 21.5809 32.2287 20.0059 32.6283C19.7007 31.682 18.7143 31.1367 17.7532 31.3806C17.4481 30.4343 16.4618 29.8892 15.5006 30.133C15.1889 29.1667 14.1668 28.6206 13.1914 28.9006C12.6836 29.0464 12.3045 29.3621 12.0345 29.8496C10.7068 28.8984 9.60588 28.1141 8.30205 27.2232L11.0541 20.7382C12.1842 21.2235 13.3785 21.7506 14.548 21.8701C15.1149 21.928 15.4972 21.7767 15.9253 21.6071C17.2342 21.0886 18.1357 21.0813 18.9749 21.326L15.303 24.2373C14.6614 24.746 14.7108 25.7367 15.3911 26.1874C16.4558 26.8926 17.5096 27.081 18.5492 26.8876C19.5452 26.7023 20.5035 26.1632 21.4296 25.3949C21.4547 25.3946 21.4916 25.4028 21.5353 25.4165L25.3054 26.6014L28.8139 29.3243C28.9781 29.4622 29.0778 29.5886 29.1046 29.8114C29.1797 30.4346 28.4653 30.8113 27.9928 30.4403ZM31.2872 27.4009L29.3077 28.2024L25.9473 25.5945C25.8896 25.5499 25.8264 25.5177 25.7607 25.4973L25.761 25.4967L21.8896 24.2799C21.4744 24.1493 21.0328 24.1807 20.6793 24.4746C19.2353 25.6751 17.708 26.2916 16.0482 25.1952L16.0439 25.1692L20.6986 21.4789C21.0592 21.2127 21.0402 21.2457 21.4859 21.1948V21.1951C22.7766 21.0478 23.8792 21.8752 24.6721 21.8727C25.2846 21.8707 26.0946 21.5084 27.0552 21.0787C27.5921 20.8385 28.1803 20.5754 28.784 20.3522L31.6966 27.2156C31.5564 27.2764 31.4195 27.3378 31.2872 27.4009ZM36.3589 26.434L33.2588 27.7512L33.2049 27.7241L29.5099 19.0169L29.5371 18.9631L32.6218 17.654L32.6818 17.6785L32.681 17.6789L36.3566 26.3404C36.3663 26.3659 36.3943 26.4138 36.3589 26.434Z" fill="white"/>
</svg>
