<svg width="50" height="51" viewBox="0 0 50 51" fill="none" xmlns="http://www.w3.org/2000/svg">
<path d="M6.214 13.1064C4.27575 13.1064 2.69922 14.6874 2.69922 16.6302V27.3644C2.69922 30.4678 3.64574 33.4362 5.43554 35.9472L9.50949 41.6805H9.28341C8.86667 41.6805 8.52981 42.0182 8.52981 42.4341V47.0861C8.52981 47.5021 8.86667 47.8397 9.28341 47.8397H21.3433C21.76 47.8397 22.0968 47.5021 22.0968 47.0861V42.4341C22.0968 42.0182 21.76 41.6805 21.3433 41.6805H20.8097L20.8082 34.9848C20.7909 34.6819 20.7562 34.3963 20.7125 34.1204C22.1021 34.507 23.5385 34.7037 24.9997 34.7037C26.0344 34.7037 27.0638 34.6058 28.0608 34.4128C28.0767 34.4106 28.0932 34.4083 28.1091 34.4053C28.5107 34.3262 28.9026 34.2312 29.2922 34.122C29.2455 34.4106 29.2078 34.709 29.1897 35.027V41.6805H28.6562C28.2394 41.6805 27.9026 42.0182 27.9026 42.4341V47.0861C27.9026 47.5021 28.2394 47.8397 28.6562 47.8397H40.716C41.1328 47.8397 41.4696 47.5021 41.4696 47.0861V42.4341C41.4696 42.0182 41.1328 41.6805 40.716 41.6805H40.4899L44.5631 35.9479C46.3537 33.4354 47.3002 30.467 47.3002 27.3637V16.6294C47.3002 14.6867 45.7237 13.1056 43.7854 13.1056C42.8494 13.1056 41.9677 13.4719 41.3023 14.1373C41.0205 14.4191 40.8049 14.7469 40.6354 15.0959C40.1629 13.0182 39.3053 11.0958 38.0731 9.38283C38.0664 9.37228 38.0648 9.36022 38.0573 9.34967C38.0505 9.34062 38.04 9.33686 38.0324 9.32781C35.0324 5.12876 30.1656 2.62305 25.0012 2.62305C24.6568 2.62305 24.3207 2.65319 23.9816 2.67505C23.9379 2.6758 23.8949 2.67354 23.8527 2.68183C16.7463 3.189 10.9134 8.33382 9.37233 15.1064C9.20202 14.7537 8.98499 14.4229 8.70013 14.138C8.0347 13.4726 7.15299 13.1064 6.21702 13.1064H6.214ZM20.5889 46.3325H10.0363V43.1877H10.9579C10.9617 43.1877 10.9662 43.1893 10.97 43.1893H20.0553C20.0553 43.1893 20.0599 43.1877 20.0629 43.1877H20.5889V46.3325ZM20.2015 32.3751C19.1699 30.0668 17.0779 29.1158 15.7063 28.733C14.649 28.4436 13.7033 27.7465 13.0416 26.7661L12.1584 25.4722C11.9519 25.0871 11.7673 24.6801 11.5932 24.2634C12.1433 24.124 12.6648 24.0931 13.1486 24.1858C13.8457 24.3169 14.3303 24.653 14.8924 25.0426C15.6882 25.5942 16.5903 26.2197 18.1811 26.3486C19.3281 26.4428 20.1028 26.2167 20.7856 26.0178C21.4985 25.8098 22.0614 25.6432 23.0351 25.8716C23.6206 25.9967 25.3592 26.595 25.6471 27.6659C25.7375 27.9982 25.6576 28.2303 25.4813 28.681C25.3562 29.0013 25.2145 29.3637 25.1625 29.8084C25.0268 30.8822 25.4323 31.975 26.3909 33.1234C24.3169 33.3179 22.1782 33.0684 20.2008 32.3766L20.2015 32.3751ZM9.72803 23.5384C9.73858 23.5716 9.74838 23.6047 9.75893 23.6379C9.74838 23.6371 9.73858 23.6326 9.72803 23.6319V23.5384ZM39.9602 46.3325H29.4075V43.1877H29.9335C29.9335 43.1877 29.938 43.1893 29.9411 43.1893H39.0264C39.031 43.1893 39.0347 43.1877 39.0385 43.1877H39.9602V46.3325ZM41.4817 26.8897L40.3784 28.6938C38.7014 31.4379 37.8629 32.9024 37.8629 33.0873C37.8629 33.5033 38.1997 33.8409 38.6165 33.8409C38.9262 33.8409 39.193 33.6532 39.3083 33.3857C39.4349 33.1528 40.2669 31.7655 41.6633 29.4813L42.7673 27.6757C43.5254 26.4383 43.1471 24.806 41.9172 24.0343C41.8705 24.0056 41.823 23.9785 41.7756 23.9521V16.6302C41.7756 16.0914 41.9851 15.5849 42.3656 15.2036C42.7462 14.8231 43.2496 14.6136 43.7832 14.6136C44.8902 14.6136 45.7907 15.5179 45.7907 16.6302V27.3644C45.7907 30.152 44.9407 32.8175 43.3325 35.0745L38.6383 41.6813H30.6954L30.6939 35.0707C30.8733 31.9064 32.9675 30.6682 34.688 30.1882C36.0927 29.8038 37.3414 28.8897 38.2005 27.6169L39.554 25.6327C39.8162 25.2393 40.3467 25.0539 40.7936 25.1677C40.7997 25.1692 40.8049 25.1707 40.8102 25.173C40.9255 25.2099 41.0265 25.2566 41.1222 25.3154C41.6588 25.6523 41.817 26.3441 41.4824 26.8904L41.4817 26.8897ZM40.2684 23.564V23.6319C40.2593 23.6326 40.2518 23.6364 40.2428 23.6371C40.251 23.6123 40.2601 23.5882 40.2684 23.564ZM39.3377 16.3905C39.456 17.1456 39.5314 17.9075 39.5314 18.6649C39.5314 21.0304 38.9458 23.3832 37.8388 25.4722L36.9533 26.7706C36.5117 27.4247 35.9344 27.9394 35.2878 28.3042C34.841 27.8113 34.6149 27.3531 34.6367 26.9349C34.6541 26.4759 34.957 25.956 35.2238 25.497C35.6134 24.8286 36.0542 24.0705 35.5358 23.3658C35.1138 22.8067 34.4634 22.8745 34.0346 22.9182C33.6631 22.9551 33.4265 22.9695 33.2433 22.8511C33.0097 22.6959 32.8123 22.3229 32.7248 21.8782C32.6118 21.295 32.7015 20.6974 32.9592 20.319C33.1318 20.0666 33.3262 19.9897 33.7505 19.839C34.2328 19.6679 34.893 19.4343 35.5501 18.732C36.1349 18.1065 36.3271 17.533 36.4672 17.114C36.5531 16.8563 36.6074 16.7055 36.7008 16.5933C36.9013 16.3559 37.5208 16.0431 39.3392 16.3913L39.3377 16.3905ZM36.3806 9.64659C35.0934 10.4989 33.9427 10.8448 32.9539 10.667C32.7264 10.6278 32.498 10.5615 32.2667 10.4966C31.4935 10.2796 30.5281 10.0083 29.5311 10.5328C28.5635 11.0445 28.2718 11.9225 28.0156 12.6972C27.8001 13.3475 27.6139 13.9097 27.0608 14.3023C26.0736 15.0062 24.6222 14.7929 24.4534 14.6083C24.4616 14.4764 24.702 14.1034 24.8776 13.8306C25.3871 13.0415 26.0849 11.9609 26.0043 10.4567C25.9545 9.5034 25.6146 8.93142 25.2876 8.37753C25.1082 8.07458 24.9228 7.76108 24.7668 7.34811C24.4149 6.43249 24.375 5.35409 24.6116 4.15059C24.7412 4.14682 24.8678 4.131 24.9982 4.131C29.4407 4.131 33.6382 6.17928 36.3806 9.64583V9.64659ZM23.0471 4.2787C22.8459 5.60278 22.9462 6.81532 23.3584 7.88618C23.5603 8.41747 23.7887 8.80406 23.9906 9.14544C24.2785 9.63151 24.4692 9.95255 24.4993 10.5366C24.5536 11.5539 24.0532 12.3294 23.6116 13.0137C23.1692 13.6994 22.6681 14.4764 23.1263 15.2903C23.3817 15.7372 23.8731 16.0522 24.5483 16.2006C24.8324 16.2632 25.1293 16.2933 25.4293 16.2933C26.3238 16.2933 27.2432 16.0228 27.935 15.5307C28.889 14.8517 29.198 13.9195 29.4459 13.1712C29.6735 12.4831 29.8227 12.0837 30.2327 11.8667C30.6781 11.6323 31.14 11.7454 31.8582 11.9481C32.1393 12.0264 32.4181 12.1041 32.6909 12.1515C34.0723 12.398 35.6051 11.9722 37.2419 10.8832C38.0219 12.0965 38.6112 13.4093 38.9955 14.811C37.3361 14.5909 36.1944 14.8532 35.5441 15.6241C35.2615 15.9625 35.1416 16.3197 35.0361 16.6355C34.9141 17.001 34.8078 17.3167 34.4476 17.7033C34.0414 18.1374 33.6736 18.2678 33.2463 18.4192C32.7663 18.5895 32.1687 18.8005 31.7128 19.4712C31.229 20.1804 31.0541 21.1887 31.2448 22.1676C31.4106 23.0184 31.8333 23.7246 32.4136 24.1119C33.0218 24.5083 33.654 24.4729 34.0979 24.4284C34.0391 24.5362 33.9736 24.6485 33.9201 24.7404C33.5817 25.3214 33.1604 26.0441 33.1295 26.8693C33.0949 27.5445 33.3285 28.2198 33.8146 28.8852C32.4777 29.3419 30.7256 30.3155 29.8024 32.3751C29.2696 32.5643 28.7345 32.718 28.1882 32.8408C27.0759 31.7632 26.5559 30.8069 26.6591 29.993C26.6893 29.7338 26.7805 29.5009 26.886 29.2311C27.0827 28.7269 27.3268 28.1 27.1023 27.2748C26.5182 25.1006 23.4789 24.4277 23.3644 24.4028C22.0192 24.0885 21.1383 24.3455 20.3621 24.5739C19.7509 24.7525 19.1744 24.9213 18.3055 24.8497C17.1163 24.7532 16.484 24.3146 15.7508 23.8067C15.1366 23.3809 14.4403 22.8979 13.4297 22.708C12.6867 22.5663 11.9007 22.6107 11.086 22.8376C10.6821 21.4969 10.4643 20.0998 10.4643 18.6664C10.4643 11.3158 15.955 5.23803 23.0471 4.28021V4.2787ZM9.16434 25.1783C9.17037 25.1767 9.1764 25.1752 9.18167 25.1737C9.29848 25.1436 9.40097 25.1293 9.49367 25.1293C9.87875 25.1293 10.2329 25.3177 10.4477 25.6387L11.7944 27.6131C12.6565 28.889 13.9045 29.8031 15.3054 30.1867C16.6461 30.5612 18.206 31.3977 18.9197 33.2169C18.9197 33.2184 18.9212 33.2199 18.9212 33.2214C19.1239 33.7406 19.2618 34.3352 19.3018 35.0278V41.6813H11.3588L6.6639 35.0738C5.05648 32.8182 4.20642 30.1528 4.20642 27.3652V16.6309C4.20642 15.5186 5.10697 14.6143 6.214 14.6143C6.74755 14.6143 7.25096 14.8238 7.63152 15.2044C8.01209 15.5849 8.22159 16.0914 8.22159 16.6309V23.9529C8.17185 23.98 8.12212 24.0087 8.07313 24.0388C6.85004 24.8067 6.47173 26.439 7.2291 27.6757L8.33237 29.4805C9.72954 31.767 10.5623 33.1543 10.6889 33.3872C10.8042 33.6547 11.0709 33.8424 11.3807 33.8424C11.7974 33.8424 12.1343 33.5048 12.1343 33.0888C12.1343 32.9039 11.2953 31.4386 9.61725 28.693L8.51474 26.8904C8.1809 26.3441 8.33915 25.653 8.86893 25.3199C8.97368 25.2559 9.07768 25.2084 9.1651 25.1798L9.16434 25.1783Z" fill="#8EC73D"/>
<path d="M13.2526 21.7309C13.4402 21.8213 13.6173 21.8575 13.7869 21.8575C14.2172 21.8575 14.594 21.6186 14.9369 21.4C15.3062 21.1657 15.7651 20.874 16.4953 20.6329C17.3085 20.3646 17.9196 20.3382 18.4095 20.3179C19.0448 20.2907 19.7011 20.2628 20.1337 19.6132C20.6537 18.8325 20.2626 18.0171 19.9476 17.3615C19.6657 16.7752 19.3748 16.1693 19.5225 15.4873C19.6522 14.8867 20.0614 14.5023 20.457 14.1301C20.9295 13.6869 21.5166 13.1346 21.3244 12.2777C21.0154 10.8926 18.9649 10.5083 17.7697 10.4028C17.2203 10.3545 14.4538 10.194 13.854 11.7607C13.6377 12.3274 13.8449 12.7736 13.9828 13.069C14.0725 13.2627 14.1501 13.43 14.1682 13.6809C14.1999 14.1278 14.0175 14.3946 13.603 14.956C13.3182 15.3411 12.9647 15.8196 12.6814 16.4715C11.8532 18.3781 11.9225 21.091 13.2526 21.7309ZM14.0635 17.0729C14.2782 16.5785 14.5511 16.2092 14.8148 15.852C15.2707 15.2341 15.7432 14.595 15.6709 13.5747C15.6332 13.0464 15.4629 12.6786 15.3491 12.4352C15.3212 12.3742 15.2836 12.2943 15.2677 12.2943C15.2655 12.2943 15.264 12.2958 15.2624 12.2988C15.3544 12.0637 16.3913 11.7954 17.637 11.9047C19.0161 12.0268 19.8142 12.4269 19.8571 12.5663C19.824 12.6575 19.5843 12.8828 19.4253 13.0328C18.9408 13.488 18.2776 14.1105 18.0493 15.17C17.793 16.3569 18.2535 17.3155 18.5896 18.0149C18.7132 18.2726 18.9008 18.663 18.9069 18.7572C18.8338 18.7911 18.564 18.8031 18.3469 18.8122C17.7938 18.8355 17.0364 18.8679 16.0236 19.2018C15.1155 19.5017 14.5217 19.8785 14.129 20.1279C14.0394 20.1852 13.9369 20.25 13.8562 20.2968C13.6128 19.877 13.4862 18.403 14.0635 17.0729Z" fill="#8EC73D"/>
</svg>
