<svg width="40" height="41" viewBox="0 0 40 41" fill="none" xmlns="http://www.w3.org/2000/svg">
<path fill-rule="evenodd" clip-rule="evenodd" d="M11.2563 25.6014C10.1613 27.1355 8.09154 28.787 5.2738 30.1618C4.54154 30.5191 4.87188 31.6265 5.68021 31.5243C11.6006 30.7754 15.4379 28.1825 17.5334 24.3266C18.3127 22.8925 18.8024 21.366 19.0631 19.8077C19.2351 18.7803 19.2805 18.0093 19.2805 17.1187C19.2805 13.1392 16.0544 9.91309 12.0749 9.91309C8.0953 9.91309 4.86923 13.1392 4.86923 17.1187C4.86923 21.0983 8.14677 24.3266 11.9132 24.3266C11.7145 24.8722 11.6668 25.0263 11.2563 25.6014ZM27.1087 25.6014C26.0137 27.1355 23.9439 28.787 21.1262 30.1618C20.3939 30.5191 20.7243 31.6265 21.5326 31.5243C27.453 30.7754 31.2903 28.1825 33.3857 24.3266C34.1651 22.8925 34.6548 21.366 34.9155 19.8077C35.0875 18.7803 35.1329 18.0093 35.1329 17.1187C35.1329 13.1392 31.9068 9.91309 27.9272 9.91309C23.9477 9.91309 20.7216 13.1392 20.7216 17.1187C20.7216 21.0983 23.9992 24.3266 27.7656 24.3266C27.5669 24.8722 27.5192 25.0263 27.1087 25.6014Z" fill="#F9900A"/>
</svg>
